<mxfile host="Electron" modified="2023-11-24T18:46:04.933Z" agent="Mozilla/5.0 (Windows NT 10.0; Win64; x64) AppleWebKit/537.36 (KHTML, like Gecko) draw.io/22.1.2 Chrome/114.0.5735.289 Electron/25.9.4 Safari/537.36" etag="erJSrzVNPyYy8bKxdROh" version="22.1.2" type="device">
  <diagram name="Page-1" id="Ianc4apS-OyTx1FRryZn">
    <mxGraphModel dx="1089" dy="754" grid="1" gridSize="10" guides="1" tooltips="1" connect="1" arrows="1" fold="1" page="1" pageScale="1" pageWidth="827" pageHeight="1169" math="0" shadow="0">
      <root>
        <mxCell id="0" />
        <mxCell id="1" parent="0" />
        <mxCell id="H-mvp2BbjiQ_YX2gfB_a-1" value="Задание 3: Измените таблицу tickets таким образом чтобы она соответствовала требованиям из предыдущего задания.&#xa;Представителям службы поддержки нужна панель управления тикетами со списком тикетов и их соответствующими данными. Это нужно им для выбора тикетоа по адресу в зависимости от приоритета.&#xa;Сделайте схему таблицы используя app.diagrams.net и поделитесь картинкой в чате." style="text;html=1;strokeColor=none;fillColor=none;align=center;verticalAlign=middle;whiteSpace=wrap;rounded=0;" vertex="1" parent="1">
          <mxGeometry x="10" y="10" width="620" height="120" as="geometry" />
        </mxCell>
        <mxCell id="H-mvp2BbjiQ_YX2gfB_a-2" value="Tickets" style="swimlane;fontStyle=0;childLayout=stackLayout;horizontal=1;startSize=26;horizontalStack=0;resizeParent=1;resizeParentMax=0;resizeLast=0;collapsible=1;marginBottom=0;align=center;fontSize=14;" vertex="1" parent="1">
          <mxGeometry x="80" y="160" width="160" height="236" as="geometry" />
        </mxCell>
        <mxCell id="H-mvp2BbjiQ_YX2gfB_a-3" value="id" style="text;strokeColor=none;fillColor=none;spacingLeft=4;spacingRight=4;overflow=hidden;rotatable=0;points=[[0,0.5],[1,0.5]];portConstraint=eastwest;fontSize=12;whiteSpace=wrap;html=1;" vertex="1" parent="H-mvp2BbjiQ_YX2gfB_a-2">
          <mxGeometry y="26" width="160" height="30" as="geometry" />
        </mxCell>
        <mxCell id="H-mvp2BbjiQ_YX2gfB_a-4" value="customer_id" style="text;strokeColor=none;fillColor=none;spacingLeft=4;spacingRight=4;overflow=hidden;rotatable=0;points=[[0,0.5],[1,0.5]];portConstraint=eastwest;fontSize=12;whiteSpace=wrap;html=1;" vertex="1" parent="H-mvp2BbjiQ_YX2gfB_a-2">
          <mxGeometry y="56" width="160" height="30" as="geometry" />
        </mxCell>
        <mxCell id="H-mvp2BbjiQ_YX2gfB_a-5" value="emloyee_id" style="text;strokeColor=none;fillColor=none;spacingLeft=4;spacingRight=4;overflow=hidden;rotatable=0;points=[[0,0.5],[1,0.5]];portConstraint=eastwest;fontSize=12;whiteSpace=wrap;html=1;" vertex="1" parent="H-mvp2BbjiQ_YX2gfB_a-2">
          <mxGeometry y="86" width="160" height="30" as="geometry" />
        </mxCell>
        <mxCell id="H-mvp2BbjiQ_YX2gfB_a-6" value="order_id" style="text;strokeColor=none;fillColor=none;spacingLeft=4;spacingRight=4;overflow=hidden;rotatable=0;points=[[0,0.5],[1,0.5]];portConstraint=eastwest;fontSize=12;whiteSpace=wrap;html=1;" vertex="1" parent="H-mvp2BbjiQ_YX2gfB_a-2">
          <mxGeometry y="116" width="160" height="30" as="geometry" />
        </mxCell>
        <mxCell id="H-mvp2BbjiQ_YX2gfB_a-9" value="place_id (ссылка на адрес)" style="text;strokeColor=none;fillColor=none;spacingLeft=4;spacingRight=4;overflow=hidden;rotatable=0;points=[[0,0.5],[1,0.5]];portConstraint=eastwest;fontSize=12;whiteSpace=wrap;html=1;" vertex="1" parent="H-mvp2BbjiQ_YX2gfB_a-2">
          <mxGeometry y="146" width="160" height="30" as="geometry" />
        </mxCell>
        <mxCell id="H-mvp2BbjiQ_YX2gfB_a-7" value="priority" style="text;strokeColor=none;fillColor=none;spacingLeft=4;spacingRight=4;overflow=hidden;rotatable=0;points=[[0,0.5],[1,0.5]];portConstraint=eastwest;fontSize=12;whiteSpace=wrap;html=1;" vertex="1" parent="H-mvp2BbjiQ_YX2gfB_a-2">
          <mxGeometry y="176" width="160" height="30" as="geometry" />
        </mxCell>
        <mxCell id="H-mvp2BbjiQ_YX2gfB_a-8" value="tickets_count_by_customer" style="text;strokeColor=none;fillColor=none;spacingLeft=4;spacingRight=4;overflow=hidden;rotatable=0;points=[[0,0.5],[1,0.5]];portConstraint=eastwest;fontSize=12;whiteSpace=wrap;html=1;" vertex="1" parent="H-mvp2BbjiQ_YX2gfB_a-2">
          <mxGeometry y="206" width="160" height="30" as="geometry" />
        </mxCell>
        <mxCell id="H-mvp2BbjiQ_YX2gfB_a-10" value="" style="shape=image;verticalLabelPosition=bottom;labelBackgroundColor=default;verticalAlign=top;aspect=fixed;imageAspect=0;image=data:image/png,iVBORw0KGgoAAAANSUhEUgAAAfwAAAEMCAYAAAAhwAQKAAAAAXNSR0IArs4c6QAAAARnQU1BAACxjwv8YQUAAAAJcEhZcwAAEnQAABJ0Ad5mH3gAAP+lSURBVHhe7H0HgBbF/fbztqvA0XuTJiKo2Cti70ZNTKLpMT1/Y3rvvVf91JjY0dgVFBVpAlJFkN57bwfX7972Pc9vdt977zjgTqnHPnfz7uzstJ35tZmdnQ2lk+k0iLQOIfl0Qkd/KMQfu5qF7DgB2AxpNknItR9hbdZM4d/jASHayRBKgAABAgQ4GhBKmcKn2jJhLgUvFWY+/tSKbd8gMOVmMRRI54c1VhkcbfDq3yh40fz4qXTKjoKF8V/tYE3htZfB2sk/OdbgaCMcDpsxk0rRwMmiCx+u9z0asPt13kOFRveZhwzNNhJHW/7HI5rapocaR1ufudYJ2ihA4xFKJqjxpZxEN+wrdZhPQuo6E+50ipOiM73lxQ2HwnZU8qON8BoP3Z/nbQx4mxJEag9/NJ9Rgllt4dqs1n/Mgvcgw8a/B3ffVP52VgvXJqKXTIDRxqFCU9vUaLwJONryPx7R1DY91Djq+ozNc9QZRQFdH9WwKX0xllPmzj7TufwipnCESl0QcVGx+bD4nt/AEzMWPCbdX8f7+WdDZbnS3XXz+sV5efvwr++vPD98X/DvT//Zfj/ffSG7PJdOYRrp10vlnaRSvOaVcVRA1XC30CjUj6rbaKh91H5qGrVPOKwYjbvfJNsn7Lcl07rylFcakXDEzrLhx6mTu3dP+2pj0ar6yGYpDlAv5c7otbFUN8/bEKw2rtLOT5ghvA9kxzHaYOaNaSvdd/b96TyTzCu/PnS/dklxG4sD5OnD6uP1s+sTx792tDbz/PzTv6rQIJ80BN0nE6jfsqFgP1879/wml3hRdOfK8a578RtC/fbcL7xorpzaPK0erqhaeHX36dkFefG984aQHacx9bL7tvx03+xntu1+sidcfOUtg93FJ6/KeK9XnvLObjfFs7RqX7aB/uqnEy27vL37sB/+KsxC9g+7F0ZsXOxGwMsmu8/8+z8QsuvS1PvIQOUo3T6gNtR/bXvVPRf8GeQw5aBC/fr7bS009p58hFIJp8VVoCW0cmv99Ogy4Spk17xb9xvG+V1U/x4tODuAyOTr5WA36Z1l+z2PIjSIvdLx3/LNKs/qJnjZeUkcFDUrrcXJ8rqfhpGpnwflYWH7SqN8s9ogA0viiLAOvHAflr/dlxeQDQUz3I9dpy4NxfdhUbLuf19Q/o48DPJZM+tCPSgvq4uu68cFHhA+DWXSEBZmee1dTp2i/fwVJn9D8XXB/i1CAzXfG9aOyssl8X/2AUXy4MfPCtovGNf6wW+4fYLXLYqLY9kzjc4b6kO/L6QAXQlNh2svQan3pkG/3/zrdaLXK1FxG+xLwg9V8lq/o2N3Hy7vfaUX/HbIptX9xTfocm30/aNeVq5uhOpWH4zrB/tV8O9lv9Bli1+vsAbgx/Dv2Rl2B85fcXxqsPj8lxLXsQ4UJSvM7+vMfeiad+4jO+9MsMWrjbMXsvP1/LWJ94auKMvGgTVSliw/k84FyNdgXhamOP6JH0tB3rkdPGSCiey8vFR14mbDxeWvRfJi+eX68DMRLEp2gM68dHWDs70Nwqb05RHRKDFH/HbBOtbP1stbQdaxqqS7nIGmtQWrP70ZhstKm0wmLdyu0TlBoIvy02rRn8Itc4X6cZk8i5l9KJ7aSSNEv77KRyND5e0sJFcBV58soiT8vBMJ1ssFWLhBGWefe1AaP9hGaMqR5y7/uvCJR9cyhORB57KS/XttCL4lrqPVpz5YpOpgI1eWofY1P/+y1xdkw+qvhIRrv32Xb/XLui5/Q/fpw+LystLp6Npn/8i0jZJ6wkf1Uh0baht7nOBVIVO3vaPVQpFV76zRyf5g7eMVYNn7ZewDFlfRGc1/9JHdZntD+fOgKL5n/0XwskWupXP79/qigbR2lwz341uPW1kNI/OozuDqlH1fhmy/V372faoMwYXUhtfCtYvydTE9+CdKkrngFeaHmbehPB1MdhE+vamE/cUX/LY7ULxs7Ku968Py5L8vUxsDNaWNuj0Fvj8YLTOB72wE2MhyVC9fNlhP6JZUeBZUfjbvuvYUHC05XwNpkqy/4niV8fOvF9Vg8bLycmU0ELEe/DQ+9p+mbuH7qruP7LxdHJe+ft10f36b+feadTlz3Y4K8PzKztJlxVW+dfLw4mTqooOFMyTrml8fK0O60YueQVYZ2cis0s8kaCCif3OCP5WvEEvCH78CWdEyyM7Wr7BCJYzsopfGT1onvvMaMo2yPzCK8vfLcGlczpkG9OAazBJ48f2YPrzrDcDqTvjxG45VN4dMeVnQWf0yVRX/Xv3rdVPVQtdUd8Wv0zxeIu+26qBOXjyp3y7Z8NvFx/7qItTWR21EAdBQBepB+fmx6ufdUOpMnOyETcCBktSvQ6NQry77K+M95d8AVMZ+8+JFny/3WyEiO6/6fb5PWAKXqqF6ZOeSyZuuobiNwb7yEw5UfkPITnOguD4aW3ef7o0veWxam+pw4JIsT4vGn8bwGesiWnA0kSnKsHdqTw7J692DsL90CvfPfX923Prwr/uyrrHw7/tAbeTTvcrx4afIDstGJsdG5U/Huuw/Vi0yNFAvb4XuN4/s+Dr4lfeCGhoI7w+ZKf3GQITsK7v68EcJB2qoAAECHH+QADZZnaVAAgQI0Hj4xlGtsacT7+jB57N96en9zx0FCBAgQIAAAZoFAoUfIECAAAECHAcIFH6AAAECBAhwHCBQ+AECBAgQIMBxgEDhBwgQIECAAMcBAoUfIECAAAECHAcIFH6AAAECBAhwHCBQ+AH2C3v3M3hx+tiDum0f7+LWh9/HtlnJIYLevg/ewQ8Q4L3D3rH3eVSHBtnV8dm+0CSFvz9mDRi5eePQqYIABxvvua8OcScHMiJAgPcGY0390HmHBiEe2x+fNU3h78dycNZ7wNLNDdrVyXcBjg00tc8y8b3zpsKfIQgQIMAhQhYvO75+b9zapK11AxyfcATi9uEOcPTDqe6m9VaT+9iiubh+iv0LEl7df4QAxzise6WMgkc3Bx1q21o+c2fvpY0DhR8gQICmg9KmKSInowwCNFuodzX6DNZqHL0IFH6AAAECBHjfCBT+0Y9glX5TICq255Uk6LBz7txdDhAgQIBjHe99NUeAox3BCL8pMN1eq93d4gkHWbXZ58K+GvZYtA+aQiSB/XNocKj74GjKXwjo6MBoapvWR3Yb2wCGGSZTKTuPhMM8ZUAjC1G0YIR/dCNQ+O8V4g1fwevA83AkDJBXfCbZy1L24tmq5iOJetXaL1RV714azcZH+PaaLRrZb5m+8vrugHiPfezTsWOD+gXV5mPRlH89g/iAaGRVjms0okkVpU5T8sT6gv82U+nLIx5SSRNg5g+HqPCb0GeKGSj8oxuBwm8KjIodKYtHUmo6MYRH3RkhWw/GUIpqLOGY4kjBr4t34nn2DcXYy3BpBI7kPTZHZIRyo+GEbmN64b31cT2hXr8w76IpAO+kqWUENLR/vCea8JOwac3AY4DJMfql4BOJhBu4KIhx68iLA8ByUX8zTVNrFuDwIFD4TYEYgH9G1LSMdZRFrGNNPI7f//73KC4uNoJPp920mB/f0nrcZudHAiw2u+zG1MOvs2BTfgGOeqSzWPpw9LEV0VA5zCo77wBHBqKBSCRiil1ySX7RSEbha1TPo7rqpJMG4cMfvhVt2rQx2dWU/nNkECj8oxmBwm8KPCr2yTlF5hFxi8j/8Y9/4E9//BN69e6FvLw8RKNR1FTX2PWUxwQRWs6K2xghfDThvbCvhEmAg4em9oFr/cb3waHv46aXENDQ/tFgi/rKVj9sPskoyRubnlcA/20EnwUpf8mnbdu3oUOHDrj/vvvRp28fC1O6xkK9FSj8oxuBwn8v8JjJF0hiir/97W/4z3/+g79T8fft2xdhfwYg5RhOECO4xEcSVvGmgVV2dW8k3kMRAfYPa/2mdIForimd0MQ+NpL26LpRaGL+QlOyPx5hrdlQk3pdr+Y2MuBPmCe+wg9pMZ5nCPgyKZVKYvTo0Rg/fjz+8Ic/oH///pRh3tR+I+Gi6jdQ+EcrAoX/HiHmETNJsYtpfIX/wAP/wcCBA43BjJl09OIbLwgKDlgiQIAAhwAa1Wv6XjOK2XJGCt4c/zQQkXyKhCOZsKeeehqvvfYafve731Hh97NrAZoXGj9fE6AOxEgZpS54ytyFSc/74Y7J/OsGnfrMdzCc/hoKD9whdyZcvdGShKge3+i1piRHTDp3fndeXVONmniNu+any+47+5PAdnnV1NRYfMWzV6VIUjZjxD8/X79s0Zsfz88pkUzSJTJpFaY4Cs+uu+WTlVdjXKasBq4F7sg6ySa9UsfutnOfLu3RIgcompGMRqJ2FN1YmCl3xU1amEb3zM3EVYDmg0DhHwyIsfgnRvGPhxNi8ABHBmr7TH/rQKEqo08oLSvFmtWrUVVZiYqKCjz6yKP4wfd/gHnz5iGphVINwIQz3YaNG/DHP/4R999/P3bt3OVl7SlpXlc5+4IuKa5GeEsWL0F5eRlDraZOwCszOud35xL6h5tuAxyd8MkgoIfmh0Dhv0+Y3PUZhH8StAGOH8jAU5f7yjMSdVOk69atw+9//we8/MrLiMfjtjBq6bKlmD17NrZu3YoUR9mxaCwjVPVc1X89SijZU4JJkyZh2rTpVNjlppC1ulqLQTU6i/CYDWcoOGNDir6kpBS//MUv8cgjj5ixoUpqZkE06uiUQYyvFdqqX4AAPkS/oo+MYAvQbBAo/PcLk5w6OkZxQe5o/HIYeCYwMo4kNP3pOtkUKN2u4l14edTLeOmlF7FkyVK8++67iCfiuOOzd+C3v/stzjj9DMRyYjZdv2P7DsyYMQPjx43jcTp2796dmSHwqMlWVVdWVmL227MxnQbAjp07kWB+lZUVWLBggS20mjZtGnbu2GEzABXlFRg1ciSeefYZrFq1CnPnzMVOponXxDF/wXy8SUPizYkTMXfuXFQwD/fKlpueD3B8Q8agR3gSLJ4nQHNBoPDfJzTCM2Qp92Aq7PiBejojFyUrqTg1jf7CCy9g06ZNePLJJ/DzX/wCM2fOslc3P//5L2A6FbxG1suXL8ePf/JjfPS2j+JDH/oQbr/tdtxzzz1Yu26te+4u6qIBoWf5L77wIr785S/jwYceRDENCoWNeHwEPvPpz+BDt37InPJavHgx1q1fj6efeRqbNm7C2PFj8b3vfw/vzpuH5557Dp+743O45ZabcTPdxz72MTzyyKMoKyt3z3N9Ag5wnIL9LxrmXyDCmicChX+QkG0ZH3bDOODOIwuvw0UDGmGffc7Z+PwXPo++ffria1/7Gh55+GGcffZZ3vvPbtpdz/dfeuklG2Vrw6ap06bimmuvwZgxY/A2R/IawWshlWYGNHp/4IEH0KZtG9x1113o2bMnZs2aReX/ED784Q9bfK0PWLZ0GZ5++mm0b98Od/7fnejRswduuekWGh1Pok+fE+xat27drAylv+LKKzBy5EisXbvWyglG+Mcz6vZ9YPw1TwQKvxkgYM0jCCpvt6LZQf5YLIbCwkJ7nt+qVSu0Kmpl15LJZCauFuLNmTMHRUVFOPOMM9Gvbz/cdtttpvyvu+5ab5o9iQ0bNpiyL95djE9+4pMY0H+A2Rfz5883oyC/IB87tm+nwk6gdevWlmdJSQly83KtrIKCAisjNyfXCGU981u8aDG2b9uOb3zjGxhJo8NeI1W9mHFmxirAcQX1vXvDKJAmzRmBwn/fyGIQem3xlnfabKAbCuTAPkAVKQ0sxzayncnsVM/z3Up8E6ZUqD5lSKYW795tBkDHjh1R2KIQ0VgUwy4ahvPPOx/5+fkuH8ZfsmSJrQEo3lVsO6FpKj8er7Fn/Rs3bsRPfvoTXHn1lfjobR/BxEkTsWXLFpSWlFo5kUjU6qSqaavUa6+5FmVlpfjaXXfhhhtuwCc/+Un8+c9/Zt67rH7ZdQzQjFG/i7NsvKD/mzcChf8+4RvEbmTkVj83O+iemuN9HQywXUzhZ/n154+UdG5GIJ2ey0vJC1ropwV+ekavMMWrrKpCeUW5rZpXfK0H0Kj9s5/9LPoP6I/XX3sd69avs/QhGgSanr/n7nsw/935mPfuPLw7512MGjUK/fr38+K41fuqmBYJfupTn8LYN8bixz/+kU33602Cu++5G2PHjbVtoAM0f4hU91LqvgzjRT2SEh0b/ckToFkhUPjvE8Y8YhjxhrjJvMZVLuwwIGDMIwh1vzRrHXjT/OwWKdJ4PGFfIVM8hQvt27dHUVEre36+Yf0GjrzL8OKLL+Ivf/mLLeaTotareueddx6+9KUv4Ybrb7BFgFMmT0EVDYMe3btbfolEEm3bteUIvq1t7FNZUWmPA3Jycu1dfxkPKruqqhpr1q4xo+KLX/gipk+fbjuq6ZHDtm3bnaAP0IxBw9PzNQSn4D2InkWmgVhpdggU/vuEeML0PHnE+d370DIEjpwitpocfBdqgmsofWNcY9LWL6sxrqF8Gu32A172R/gutqbyk2jXth0KCwsw6uVRtmhv/fr1GcNAx06dOuOqq67Cnj178Ps//B4/+MEPce+9/w8vvfgS5s+bbwrf3++8sKAQ111/Hc46+2wbjW/ZvAXnnX8eunbpin/ffz++993v4c47/w8f/ehH8cQTT6CysgodO3aw2QEtztOWz/PmvYtf/PwX+PCtt9qq/R/96Md4/LHHUcC8zzj9dFt34Oi18S5Up10PAdRcTXGHGg2VuT93qNFQmQ06v7/caQZ2TZLKj+jD6886kQM0BwQKv5GQMNynAqdQFtO4adpaQe07x0ANuYOEhrLKVnZZjuqIo7mkHZvilNYERiOcVaheuY12guf3y93L8UpD5e7PNZhPY53upxFQMXbr/NO0+s0334IdO3bgtddfs8V3Uqrt2rWzDXdisSiuueYa/Pa3v7Xn8drDXCl/8ctf4IYbb0ABjYU2rdvYgju1xAknnGCv0ynunLlz7Nn/r379a5uaH/PGG2YkaFHfl7/yZRRx1K6V/J/61CdtRkHv6et9/5/85Cf2BoFW6Y8aNVK1xd13340zzzrTaBf7au8GXJ12tfY5+E6GUVNcQ3kcTNdQmftzGYI4ZE590HDZtc71k1x98Cp/XT6ZPLNO3fUAzQnBx3MaATGOhK5T4LSSsrhH4cLf/vZ3PPzwQxyl3YuTTjrJBK3SCTZZVp93LJkCD8RUB4qjjFwdaqHy6oc5+EaILxCOXrDVvGnmI17P9L76gGFqR/r8ujo6cTQiv64ajag7GNEW4/GaZgEUT9C+59oFT/0SjUYyz/nd55Rdn7k2cH2mP03BK9x/RJDdrwpzhqdWXjs61HS/jjI6rDq8pvooL79sZeXKCdAsQTpWt4s+fHoxGvVoZsSIEWZ46mt5Jw440UsUoDkhGOE3Ao45nD8jD538zUBeYyZPwIq5yEZ0XkQpjWznhzfk9hK6Kry+81EvrTl2a7oBp/qEImRufThDW7OqfpH9Okcinmsoz0Pm1HJeHRq8fohd5r5ZPtsMpqiznReW3T50Vmf2n+shhbn+0CI70YYErAhFfil6KXVFkcBVmJS9r3TdVru8zHBz/JMi1wdxdHSKPW3P6F08l0706gtxlae42pJXz/Z9QW/VUlz+Ka6+jCba8O9j304J6YyGeW7t5Z0H7ih1oh/2PfvNoyjP+XTl+tD+SAu+sygBmhXEwQEaAcci7s/gOMcJT8/vj8wsJoWtn8q5+si+lu0EZeg7jRwbctlxsqFy65ctRueRTK2BaJpH6gA7OiGwb1dHcOj8OHHOWGuM219a/9wdTdkTOmb+SD9SyA66ztgUwtp0R642H5fOV+SmzC07L0/fOPDjSrEzzPKXX5EVxQ4urg+Xgr/ZBk92v2e7DPxz3wU4OqG+Ia2kXD+JthxcuOiLgV6QOxpdyWtk4hFNPZoJcGzC7/0A7wXGA+QM/kuoWoDPO3bRKWY9i9Zv3T8/zD0jzzinkS2de17K8xANiYYcGu9C/pH5mQu7Y/14ezm//IauNWOXTifqOYVlu7phdY2xhp3pXM+pe+WyDUZRgw2s2O+yFz1SMji6UJ/pGsW0CW6moFI3v5Ghl8LLrxbK18UxmrNy5fTDPC2By9vVtZZe6roESTJJoVGPdnwaCdzR5zzas/41Vz+cIB042qMEspGAyEJ0ous8sf4VbQQ41hEo/PcMMYAbcZEb7ExT5QzhKS3qEP3mNJWmqdUDOTeiTiutnWv61U+rY33nxTUnv+/IqOZYu304Z0hYtRvl7E51PK6d365121cDp/quTn+wATN9zAS+S/E8ZX3HvuRIPqVwnptIZoNraU2Cglii2RyvS9UmOfp2fpcvRHNML79T00qvZ/xe/qQVPX6w8nlUuX45qpsrj5XmUU5h/rHOfdC5OBIZclnXeObfo93XPpwf5724hvJrjq6p995Q/DrO+kj9o35SGGkhI1e8vvP7VvQi0aBzS6MTXjK4XnYuwLGKQOG/BxjZkzO0cMqNqhyzOHtY02YK0/NQJ2wz/jpOz9Czj7WurmLfn/OYOsO8vqtlzYZdY+JkuYxQP34cO/EAjvHMsW3oTIFaOFnKc9bOdmzAGb1kOcWTYvaUsvJzjkaE6lTnmnddaTS1b0dHDy7cc57frnnxTPlbWQ2cM77r6304i+M7hfntlR3Pr19dV5vuvbuG8j3WXfb9SRxnn2e7A6Wt61w/1MoIn1b9MA1M1O+Mp3C7LtqNIBzRNU+SMciuusTOH+CYhqgsQFNhU2A8kC/01TNBz1Q1cI6EyIqhOEdacjVIparIftp0RVNpjJtxSfJQkgJZx5Q5/5rGdRmnsg7orEpZjozMEd6+XCrVcPg+HYetDYYfAQeOTnzDKGQLDym4vGsa1boRcF2n8Ow8muZ07/Xb1zkjAE3ney6dYn+mtKDOubpTorUqPExCsSOvyR/mNXf0HemJ0taFc1yvMNKCnx7peMOONGe0ZlPvteHpVE2tS9e4MLpUSk60aTdj9KY6GXRQ9bOc0TtvXDsG2tRvAy5EF07x/hhPTn47p1MeXlPQr/PGO6X382qurqH7ltO9W/s12KbZTn1AWvSOius60sHJCtGo5Iqus794OSJdb37RuuiAyeXqpJfCl5PK0DHAsYhA4TcRxg4Sxhw12eIpcosENFnFjo7RJJy1Paqn6CmAM887s5wEc9iEtJzOnYuQCw/kMsrByiXz8yjnGHT/zhfwjXUZS/8ocP7ow04l9Hj0793aogHnX/dddn7vx7kypbhTtX1i5zb5zuvs97QUsDt3ylt9Tmfh7Hcq3pD85pgm4/xzCWLlJeel9fPbjxPdNRQuZ/XxjIy66zi8NSRqY4aLTuo7VibjGrouZ9f9dsqE89S/lgnb22X6bB/hzc1l02Wd8Kx7z7SXF2/fbchgc+7cZIzRDvvTjqQp0UVY/S85I+fTI8NIcyrb/hTf8pAT1IGBujjWEbyH30Q4q9eftidjiZkIbWDy+9/+DoMH9UPr1gWIM54WVzkmJRt5U6a10BldpvWNlflb+yeYgdEA9tVpCrfZt/3A8j5AnDpgpvuqx5GA1d81u8EJpsbB2keeA7WRs3L2CV21HjN60EFHhbp+1VFBrs9db/r11MjLxXDpbDo1A5eHc15aj9bkDlQvH64++4bUiuWnfEmblr0g4rEiFLC3gPdpq/7osRbMsV4d/e7J0CXP68ZwUFh2uF9C/fDmBP8ehezWzg4XGuLpvcnejyTmyLpYL57fPep7GX6JGg1Ooti4aTtyC1ri/93/APoO6G0GIYc0LEc1c48HarFX4QGOAQQKv4mwDU+MYdhsFHpRY7IUXnzpWXz3m3di6Cm90L5NjNayYyZZ1nrn3X82WguxT23T1+mErC7RArF9YV+XskvZC7zoGxONhamnfVfjsKN+VerfjRbOCe+pfTzsX7G6a/YYRgrbTiQMs8LVaiQUZ5eoxdX/HDXrTApW1/lXW4pfWT/kQHfZeNi9MDuvpgqxX3sEQXrWTJULq2tcHKhM3Ue2YeF8volTC/WDeKY2Zl2/H7d+aX4cyy87QTNCdruYOvVOssPrtIsTPg5ZcbxWcl4LdVc0Ta8/m8bnZXWva0u370I6krR9HMKRXKxYsxPJcBv8897H0a9/H2aRQNSyVM2k8OuXEeBYQ6DwmwKP1lMZMU5WkMAjY4wf9yp+8oOv4e9//C4Gn9iR4VIGmq51Ct84bT+wTrAo9GW6REqi4e7JNh+yY9Q3KxpCY0eJPg40WjzcUG1M7nnVyr4b+V3vOOzrTg/UAgdW+DLXNA0uqNWd0nRNpfUX9Eixe9kov73b0Z3vuyQ/vmJ4sUxqK1xu3ymz4YyN+mX7yC6jFi7+vtK4e9HMlW7YYun+7JpLpzPL0TqKyNLYLkYtMnHrQcrKR0PXmwMybeEaSz/WVLp1v438e7dwnSnA2sY58/KaC1Yq1/7OCHVnYSp3ZSCjMxrmbyqMpFbrW5j+InjqxSmYOHU5fvjzu6nw+zIVjUGjWa8cj8YdFB7gWEOg8JsAT7TxVwvr5NHzdInTJMaNGYWf/uCruPtP38Kgfi0RiZE5knFT/Hpdr0GYkPQZSFCuLCWjGCRQPW89iBkzrEePH01Trcbs+4LxbnaZjYDqs58sDztY/Wyl7sNu7WDV0xZk7AOZ0bxqoQJdP5pA5Kkb1zsxarCs6Fc7Gr3Uh9Xcef00dp7t949yteU2CurvDE056Ex0Jpe9VbRPG07XWix5sqALvFcGy4ipfTzhzVf5CscrL/tuHV368R38sKwaGKyUjFJr3vD5128ZLUlVD/szVYKaVacuhuA2zbHHhXauNpRccjGMGqnQk0ykfEK22FXXkhy1JxhTqzliJptEA0mqgSdfnIHxb63BT355P/oN6GvR3XS+47ZA4R/7UA8GaAJMGfPfSF80b0KJjGevRWlRTAo50QiZSopel8RojklSNiL0FvDZ4igJRqZhWCIVpxMjJjL5mIWtfBpwWlSVDjvnVI1zJq/1sy+nuli9m+CUpqG8jpRjfWrFXa3Tn3u96CC4htrBd9n9aMJQfZBkHWjgeQs11X/2DFRO/ciEtvKesdVfzmBzC6oa77yFV01NZwu26oa5hYYa7fk0lV3XJJVOAhHSeoT07bswnbU0lUCERyblL9PYgq84YiR1e5TFNpKy1j6BepGQl0muSpGjUunUCGlEI7pOb5JlyjC2WTHVQW3k4rgNZETvlmmzdEYPPMrGVJtJcIhW/H0WIyFtwxylKMlh+4QoW9SW6ic6NpZ7WdPRYoQNGokyXUyDDNEkTYAklXyEfRnmUZ3Df7VxjP405Y4t6GOfahbA38hJBoK9ncN4vnOoexbg2IL6PUAjYeKOHGYjGzlbni8GpRjW60jiNjJdmopbTGQjKIZIhMWTUSTT+bwqRmQaXdNzNftTPnnk5RwFG+ObIpFA8HLYy+11LYDB2u5wILvNs/tB6iz7XE6oXzGdZ4dlxxXq+7Odj/rhTXXZqBdOxVIfon/TUX48RkmbltLz4BhJ3ikKW+jlkhikmPS2gSlzMxb0R9Gj0aMUjWbAwjE6KTUebfrZF03Kae+6NDdY2+o+7b7l2KZqG2tLL8wzuKw9wrmoSeWislrHFqhOtaS52QrxdCHiCcqauAwAqXvKFBQgxaG+zZhY90Ypr/JRlWA4u8WMNhM6MiysZzz47a6j7w9wLKO2bwM0CnVJXz6n1JMUZnrf25jWU/ay2rUoqjqRwKuvv4kxb8xCVQ2bPJJLnnPP9TXeqo6n8PAjz2LWrIVkQOXgrP76MDGr7GsrEOCIQB0g1mmKUxrf+WEyEOWy4x1ut7/y9yY0R5c0am2GKY0EaZzjRrwzdzHuu/dhJGpEv8pTkR1v2IxElD7NJthfDDVV5JGk4lHBy0n5q0zZS5k2Ohra5zA5Y2wetd5HR5uCl59HO9d1OsoMbaS0o7gCDz3+Cr7+/b/ga9/7I49/wjd/8Bf85R9PYMr0RSZn4jXAxDdn4+nnxiEeZz4p58or0xgz8R38+R8jsGbVBoaxb2SQ8V/qPp3U7JWbcXCQJ3MS4BiGqC1Ao0EBJsYQ8Usxi0/IjOkUm5GMFOLRVsUy3N6fZkybxqV/7eqV2LBuLS1tbXyiGQAzrc0wqKmOY86cpdi8aRfzUaC6JWCw9wK1fYBDBTcfJdI0o5SGbZTKIkJS3rV9JxYuXkTjtZpXqNijGvErDuNq5ivFEafoPpRESVk1xr25CLtKqkjuzExfDFSmZske5x2oKT45tZe1GRvXmsS1i3bCk4ypqk5j6fK1qKisQf9+XdCvTwf07NoOC+avwF//+jCmTl+FmkQu1qzbwX5Zh6SMq3QUqUQMk6Yvx4gnXkLbVoXo3asfc9aso3qAskxdIOOMsMeXAZoVxGkBmgSKOmMEN3pxZjCVvJ5/WQD93mtO/l9OLAdf+cqd+ORnPof8/AIkEykyHsiQUY598ige6UL5iGsHPJnZyrJZw7Xfvl2AoxYebTrD1jNweX7p5ZfhH//6J/IKWyKR5gheM1nhFkimcukK7WgzWhyxLl2xCW9Mmo/d5Zop0EyX1+d2IF9pnvm4UzZ+G/Cox4ROrCiA/1572A56GnQoiJIjNw8XnH8evvLFT+DOL34M37nrs/jL737MsGF4fewMjvLTttNkOpxjU/qlFWGMe2shHn3sKVx4/pm47cPXIqrn/SzIflWu4B8NqpfvAhzrCBR+k+CEm/EDW85/pUWB7pm+FLbFoNOoRmwURpwK/pXXx2Hsm9ORoNGepGKfOXsRBeSj+OvfH8SESbOwuyKJpD271BapZOxmjWwh0pALcFRDw0B75VD0qle7gLkL3sW///sgyqoSmD5rAR576mVMn70Ud98/Ar/503/x8pgZHNlXYFdxJZ5+7nVMnrUCf/rb/Vi/YTMZQrNe7HdTdFQ8MpjrKJ3jAfXuV22gwYS1idrGC5fHWCSOSFgzKAkOyCuRG6pEOLUb7VpUomuXNiguqUZ5VaVNGOppfnU8iTenL8Ijz76JG667GrfecjlaFUlaVfOq1lhoIMOsaVBojaSdqCAr2woM0AxAcgjQFNQqdDWds42NL3SRPykyh5biZR6AkWG19/iipSuxePk6Ml4ab89djV/88TFUUjj26dMHTz/zImbMWk7jPYp0wn+euTeUo89/2e7Yg93JflyAoxkhrfSWUarl93Rav7J24xa8NWMeKqsjWL1mC5548hX8657/on2Hdmjdui3+9veHMGXGWkRyczFocD90694Zwy46B4WFMeoWTfUzS9M4We54RbaxU58d2C7uy4q5UtOUM2nEKQTSWhcUKkRZTQQ7i/egdVE+8gpkjEVQTZkyYcZiPPHsSAwc0A8333AZ2vG6vRFAuI2gmGfSrT2yNf+UWepXMy5k0QVoFggU/nuCxwB1ZBIFIBlPr94lKMC0Ul+j/6TexY+4kX8oHKPCB96cMh1XX3sdvvWNr+KWD1yFH//oO+jSJcdek9LrN5Z/s5Z3ar/9uQBHL0wDZDmCCiNNutVGLrGcQtq6MSQTafzkxz/Ch2+9EZ///MdwzbWXYeHiDcjJycUppwxCdyr8c84airatWyKkZ/h+tx/Pir5Om8p5jWKzKV4bmZXPWFTk5dUpTHt7EZ5+YTIef3oi/vf8JPz1X49gwcL5uOySM5GXG0VNdQJz5i7C/55+CtXVFVi88F2sXL3GnhJoulGvE2s2wSYS+GNrBOQYFrG3jqxQzwU41hEo/IMCPYvkaEcvJtuQW05+2uCamiNsH3W6iuo0dpcU4+RBXVEQq0IsUoHePVrh7DNOpMVdQydO9Jg+QICjEh5962iKQgYtKZcjwZSt+AY6d2qNTu0LEQ2RxsNlaNeuALt2l9p1faVPH5ay98eleezdMGaUmcL23HEEDaKdU9vKebBmUHt4Sl/tHk7aLGJVMoolq/dg3JtrMG4y3ZRlCMXa4kMf/ADOP3sAxQ0HHPEUqisqcdP1w/Gtu+5A1y7t8diTL2LN+u2WX1LPGE37a+Jfz/zTqEklrXdVrnvCbzUI0AwQKPz3AE172cI9Mor4UyyhWU63y50iiEEslDKMTWwLbXiNyl+r/LWyPxYpYDyO5pOKk4u8vEImZGrlawzP+Do0G+hmJEbkmtWNHYfIUgFGz6J90jk92shFz4W1AZE2J9Iz5og2fYlowZ5oOokct0G7EpEn6JdRzDyUT4YyjA+OY1hjyKmtyDN67AGt73FvReRSQbfJi+C2Gy/BP3/3Rfzzt5/CP379Sfz467fiqotPQeuWMRpUCeQzzgXnnYYbrx6G0wd3xS03no+lyzfjlTdmorSKI3z2i/WZ+pHl8Mzy12Y/srnUC74LcOzj2FD4ovn6riHsK7wBvBcirkv87teKNEHGc1tdrDCNeLyrJrik5FJIxKuQnxtBi4J8rFq1ARVVKSRTOdi2vQxLl6xidD1za8JNHBVwd7p/KE5T49VP459nhx1KHM6yji04Y9c7IbSbhBm/VELaZVCzXVIeUU0J206TNGoj2sJVfKG0dOQVrRzXZj2iexfMVMzHGRFZBRxn0L27Npbc8KH2oPPkg+RNDkf6BbE4WuXX0FWjIK8KsWg57acqRqWxxaa13fVCcXtcmBtNYuipfXD1NZdh7oKlmDl3pS0itokDk1EONsHCo1eiufcMT5y5fPb+C3B4cfQrfCO+vf8aQp1wehskqoaT7oWGiFFhsoNldLtaMI5F449GK55XO4f5m4/ou9JiJrfdagJ50Rqcc+ZpmD7jHYwcPR6Tp72Lp58ZTQNgG5lPIlMZKqdGVvRIwTdM7P4PFpSZn2G2X5A/WwAeStQvO0A26s886XFVJJxATI+0SO82KDXFzWOS48y4FLvbp0ILUvPz8pGsqsHcdxZi165ydqujd3uGbI/AjnLaPxxgE7hm1q9OfMdzNlHSNuhKUJFTuWs63tb+6BVHyRv2gS2m1DbMmoVM+GMR5MbSuOKyU9Gla0c8/cKb2LxlJy/wos3IuBJlAdh4n6fWl+8LfgaUm8qvngtweHFUK3z/vVDf4s12dk2XebRX4uh4xeIrXOzgRbCgWuhi7VWDBbkzP38XaEGWa1I/cuQcVxJPnGmsxF4a1UsKX1P32echtG6Zh6ICIC8WxbALzsDNH7gAb06ajD/+8e8oyA/j+mvPRcsWSuGepVlCy1+VUImeU7YWVnvNh13Khncvfl0yyITVwsUQk+/t3J8fx3NeuNUzG9LJvnAyP2NljVR0D9l1rgPGzRTAOK6OLq0+NevaxE5dlABHAOwX6wc50iCdKLNFQQxFraIc1dfYNHK7NvmIRPRtCD2vT6JFvnhA3xqoQft2hejbuwXuu+9BzHl3TmZ1eMapd+vTVTOHjCi3t4Gcd54hdlG7/O5cPKnJkzZFeSgsUCwpfCXQdzzDJqus+aixWxbG0Ib9YgMOBmmPg55di3DVZWejunw7ZkybiioaX/YasVreswyMZVWsx8POgFOAgv1+qoXfd3vBC9cln2wE5/dOAhw2HNVfy/Mr1liyyMRnAkdgnofQr+XjhWXOdTTqI20nbfxuSaL6EghpPJ6QwLLdwG1NUUTJLTVhio28xqhjX3sRP//xF3H3n76OUwa0oaFN6zrqGQSMF0/l0AgvQCRdRQFHQWgfwsin/SBGTKCGhUY1SoI3HccybQcshus5p5XIHzGP+7qZQuR8P3/pdaMvd+7fu8HSyBEWTmdhgoS4grPi10N95sy0bf0kEhC6JifhwQrRbMikl7LI5KS0XrjLx8tPU7y6Ee00xsuaCtbKYdiHPnRd7SHTIZPTQYYKsYI8F8CH6ERwB/erL63pMy2RaI7rcioP+7ALR43JZCW7K5ddqdFnLo3fcl5h20Zo3ZIPwqT9cChufWz0ZzNhXu7qguMKum+vgQ1qDzprF8oSeY2XIlTqefQzLhVxOFRO58WjXNG79ELSNH8h4+UgFqukWKnkuVpfn9rJZ5aFCMVLrf1DkRgefXo6xr21Bj/+9f3o27+/saYVbUwt5z+qzALjiA9d3zl/fWTkitevOpfX4u4dff/YqwIBmgJPIx2taGrvKr4UtnP8cQQl5xMdIYHi0V6G4BwRuilFjcil/GVJR6NRCxN0XbkorT6UY/lYBnpGGaOPDKEZAH0H38rkP0cvsrRjWoGf2E1/Fa8lEUlW0SgvRixSQkVfirzIHuREKpiHBJ6sbSk9/svKELPzxBka/n24cu2aXXf34OIQ3mV3VB6eE3Qwr5h4b7j2qev2DZaXfd33q81UvrWr6ujqb6N9v3yL6t2T0plTorpO7WpVDWnfdbYLtY7+Dh2Ut8o+lGUcuzB68PuZkELQ1yFlkOmreWHSeDhURR7S82R9Sa/GRv7RUCnjkg+oYKLpUtI9lVC62owE5dd4mmvmqHPv4g01kFsE6Y+0Qxw4RDg4CIeoxDXCtyE500nJ65+nyiXMOKH0HsohDjRMtjCMLpouRzS1w/ojFIqyD6L2SnA0QsONPOhTvxM/5F0mtAGFMjCnCPrR0XP1YLIo65ofPcCRg/r1qIWEelNoRIrFvmanPybMCA3TJwrQ0QUpzD9qoZCsYmckKJDELa8xkUOUo/Vavckfu8Y0yk9xUxEyTA5H8CxfgVJ4Uv5WqOLSKQMD03mv8GmLTGVqz/z1oQwt3GN+2vhC9dFrTGZEMJVvxJtlzzT0Wl6CSjDFaBXSUfl5z/X8D3D4+/SbYzw7t5ytzlZvOndrqpMMGIXpnrz78m5FcSSo9SqW0ktRp6Wsw1p4yKOclc+yVR+bydB98H6twXhQOiNBxfH8dl8ayWtFsoQcC1H7aS0EjTArVI0Q4IjARt0aQWb3AWkgTDpzb6qwj0nbGonqOTNSOQwkHZgBKPqWchFtKLIoQjHZp0YQUmQ8KH+5AITHF+JZ+cVvOmhvbrZbOOrxl9pYzcg2dPIiTa5yMy36/r3l4g8kFFGyh39hm4VMsrn1+IW9IRkazXHiwsVkloyn7vK6RHnp1z8yG3f0QrJhMlXhJjMtwMIzsLAmuADvC+rt5gMSUyKRoKBx04JGIw0QiQunoKFwMsXqCRfHAnaV143UayHFyz8/X30O1xbYeedqSk2hmdL1FZiuMR/bScw4hmGm9F0Z0omOT8Q8YgjF4T+ZWJte2Ijd0qsuLo051Z3lq/7OsSZShIQzcrIdYcmy/XLeOU8yTElnd0MFa0cvXAeLY/VwwS6N7tcd6TGfyXhlpbg6erMjFt+rm6ZvHekpkdpfRgBheSq9N3Wo6GplKXs9S7Fk3tEvN8ARgN/2dOoP0RK9Ggm67nZ0EsvJZZg+d8vrmjFLxBmNNMZIotekHntZQtGKeCsr3wAe2KDGq3I0uj1vJErDifyS0uY5CszwF48en4jNxDsmf6ydGaD+4ijeHpHJSJARzf7S7okqxn31U3LRnUvm+Xyp3OX0Y36WZ+fye0eTWTzaIMrSkSYUzxIohn9wvxa/CS7A+4OxZ3NClISsUb4UIimEISQUI0EHU+4Md8QqASWnKXm3s5Tem3fhYq4MGTse4l+SDJKgYtdOVyldl6DiNXvOT02nT1caZE0rDzGXRRAjUXGJi7ydrFQPU3am8Py6atqOjkJQUezNJhkLvKJ3ZlXfkBSyVY15mtnhnD1rYzm28M9breuEqX9kPjaz4DuGazQWUT6uDGN+rdgN6xrPlSaTTsKFMVm25IaeG1qZKocMbtGZh3KLa8Rg+eiM4fZaFhNphKfv/odzFWp5ypnRwvyk7FPhArZCxN2R7tOolLlYAYxvOdIf4AhA7e479QO7RcaY+knnognPSdnYVtOkb31O1+KRLqRc9AU90Y++Eh3VufKTQnLMosw8/3EIX7H5zex71T7WhtoYhy1GGROyN4LUTmo//lJepBinmtyTjFA6qEntU9wyrGlwaYEkZaDeCEqkyJOSU9bM6qMwSstLsWrNCpTxaAaZMXpWv/CoP3G5D/mtfqq3i2IwOcoTX/mbPK3NxjsylmRaI12A9wcTpc0JIi5Hi46qapU2oXD/lOFS8vZ8mbARM5W5qSspL0/hizmyCVUzArpmSpBxpYC1sG/Pnl2WZ8bOYOS0rGfVh0xlys4qwHMykkUSE1jGMhYUR2XKYGCYGSaqGx3jacrNxWc4lXGIzgSqjAxoFa6eb6u+Xn6MW2sR66hw5a26069T/Tgz3h0snHFMaihQKldpJSzUNmwjO1dS5aP6ETZFyyPr6EYUbobA2k911jUaQqlUDOUVMezeXeXVU+XpyDahwFGq0vIkincrLQ0CVkrTkKqKlEbCZm/Unowe4MhCtCXaJi3LW1kZx44dZVQSVC6kR/UZew/hBPlF/UWeSTFcpKBlLfF0zOtjhvlM4x+NNPgj//EE4z/HceIbT406P73iGdu3gO2YIM9tKwGWbUpg5eY01mwJYfXmFNZuTGL7TqCmJh9lVeS1Mn04R/vux5hTDps2HxXlMezYlURJpZSxeFRlSwalsHr1avzgB9/Dn//0J8yYMRO7dhZTLsqgd32hOAnyovrXf4PHh6pvcpQXw+R3DWpMHts1daqD3Yv98MQPlr8xLsD7wlG9Sv89w2SFU6YiSClyU+AmeZyKdQyVBZ0rjSxJMR0vyjpVHCmbiJ5NKy9doBPRl1eWY92adZg+dSoe/e+/sWfbcox44CcYOrCVTZshVcNMpKD0QRxPmGkGgELQjlJ0qquK1/eqqRmlyKUgbYtSXlQdklK8ukZFbHyTjhtjIZyDqngEO3fuRNeuHWn8U/gmGE+PA5Sv9vHXPbNcCQtn3DBf08CuYN1TWnF0jfFsta9dUH15/yqPcY1xec0OFDiaUrT7sXjevcgAYV6qmy185D3Y5iu8ZCMTKoORL0/EU888ifv+3z/QspB58H71pkKYxkic7unnxmDxsp343tdvQ0Eux/kxtbumf5knr/vTvnbQPZgLcDjhDDp1qjpBr4FF8PqYN/HCSyPx17/8CS0KpcxFG7xMOxURekRjmkamgaDvSewsTaN9yxhyYqTZZAXJL9do1PrWuvT461feOX+9+xZvWVsYh9qpHo/YVY7q127cil/+8T+YNGUtivItqkGP9M8+qxe+/vX/w+x5CzB39mzc8anb0atXeyTjSVRVAiNHTsD4NyfgmmuH45YbhrOMBPk2D489OxPPvjwbp5x5Nd6e/Q62b9+Bk08+GR/98Adx8qBB6NypC6J5ucb7JitZZoRyVfUTrMr0O/5nOAPk5Nfgyq4mJUM1i8g70T2ZjKXHZbFvMLrJc2sI5w/QdER+9tOf/dzzNw8YHUi58dd+RIiOJDNhjsR0wQLdM3J6JZQsAxGqLrvxbIRcZF+PoquprsamTZswftw4/O9//8Ojjz2KtevWoFuXjijesQE3X3cROrXTdLVS+kJRCt8q4rLXc00pSfFASFNpejXJzTZoqY10uQnVsEZPetQQI5PonqjwlEjWM/9SqRxMnb4MU6ZOxxlnns48tOLW1V2jqbCm7W2UTktb0/ESvMpXMwf2bFVWeNTWDNjjBkrnsAwUzSZ4swG2yE5V51laAodp1EyavTCmk2FiswL0W738MrQZi5S9rssxA/3Q36FTBwwa2N8ZKDRaQhp5aJqf0eYvWo1tO5MYdu4g5OUoCUuR8cDyIqqz5a+SlaFlGuCwobbNM+0vQ9EW5UXRpm0bDDixnwl3WwSq6xL0RgekqVQF+y6CzVtK8czIaejZowNattAjONGHm5p2Bp0r4/iA7tUEgeeyIYXvPcJiu6htrHnYtnvKKrBk0UaccvIgfPurt+C6q8/D1Veej6uuPgfnnTUU3bt0wZqN2yirtuDUwUPQuigPOzncf338TLz2xtu49opLcNM151K2uan8UCgP7y7agC3bq/GNb/8ct9/2cZw4YCAHE9sx8sXnMWXKZKxZs9bkQH5+PmKxGGJU/P40ezKZxJ49JZg1cxYmT5qMBQsWoKSkBIWFhRbXthhXNzO+ZLCcyTyd677174U36Ly2yfYHaDqOfoWvvm1k/3pq3HyCT4zKgHRCJ8KW341CRZA7d+7AsmXLUF5egZqaGhQWFGTS+dP9cRJzRUUFli5diqeo5P/+t79h8uTJaNe2Lb5wxx341Cc+gfbtWnOkPwFXXXE2OrYjgUuICVKGlk0YVVXAjt0R7NpDwyHBcXJOlKwcRllpNapqQojl5rKmYvAY9uyu5F3kME4MCSronbtrsHVnAhU1SkMVyZFvZU0EL42bi9VrtuGkkwYjP5cj5XAhKqvC2LGrGtuLa1j3XDImjQYpYyrVnSw7TqFbWp7Ajj0h5pFELCcf8TjrVaxHE1oVEEVujHXRLaQiKK+MsN5p7CxhyaFc5NAA0UxAdTKGbbtpFEXysH1nGcviPVBL294CbEMl16/5ZMVQqOfmtULHrj0pNArMIEmk9VGVOIp3V6EyHsKKlZuxs7gCw84biJxcZ7BIach2keHSBHIIcNBR2/r2awQiH0fqOa3QoXMPFLRojZLSSlSQvkKhfPZlFYpLSMvse72nnyCdzVmwHmMmLUb/vt3Qrk0BcqLKR0YjD2YUH089XLdNM86TU2oLGdl6bOdW2QshtnEZ3l2wAj169KKyP5MDjjbo1rUjunfriM4d2jBNGstWbcWGDVT4p51GedECr46dhtFjJuL2D1+Jyy49AwUt85gTedWM8hiN7Q1YtX43Lrr0evTo2Q19+/XFBRdeiOEXX0SDoQiTqMiff/FFTJ021Qzwli1bMF8qfroF8xfg3/ffjwcfehDz5s/D7NmzMeb1MVi/YT169+6N9u3bs2s1GHE0YzOP3s1amP3LqFFgPeiaRxd2tYEoARqHo35K31fiXlfvF46YPPgMkxWmvDS9JGW/ZMlS3HfvvXj99dc5CHVTUCeccAK++c1v4uyzzyYxt6ISrMH2HTQIli/HM889iylvTkIelfIHb/kgbv3IrejZsweFlZuuH/P6KPziR1/DP//4fxjSvxDhVA2iVJo2yKfCleB76aXxGDduJnbu2oUTT+qD62+4HGefdToeIKOUlZfj+9+7i/klkEzE8Ktf/xHnnHMhLr3iIsyY9Q6efv41LFi0Ep06dsB1VwzHTddegMXL1+KbP78fWzdU4JRBrfC3P30TRS274uVXxuKNsWOwactu9OnTEzfdeBUuH3YmlXAEv/nrQ1SbNSwjjrfnLEELMu1XvvxF7Ni2BaNHvcwRwVZcfPlw3PHJW9CuVS62by/DU8+9gjcmTkFFdQ3OPfMMfPrjH0H/Pm3w7uJ1+PM/H8VFw87F2NdG4ewzBuPOr36WBoZG92mz+rVIyKb16VLxMF56eTyefPoFCod7kBuJY+6CDXjw4cexeesm9OvbD7n5rakcCvDTb38ILQr0ep4akBYTjQxaB2ZM+NODhxcNscnxJnl0v25GzIw4m0HS5H4+Xn51Ep55YST+/Ne/4tXRr9D4fRvnnXseJk0Yh807duKcc0/Hpz55G2IU9Hd961eYsXAPerQDHrj7Wxh4YndEqHBsvYzlezy1q2vThlHbFm7BK/9tJg5Yv7UY/+8/o9C1+wB85uPDYd8j0qwKj9rnQLLwlXELMW3GOxyt3455cxdi3MQJuPLq4fjAlUOQn6O25p/y00Ja5OKJ52di3LQ1+NGv70O/fidYOUb25DktLq6sijO/GXjuhefx1ltvoVXLlrjqyqsop87GP//xT2zavAm//vWvMeyiYTYrOnHiRPz2t79Fr1698Lvf/R5dunS2Mp1sdnn7gys9slOAGTqKkwVVQXJc1/RI1dLuFStAY3D0jPDZe6bcfSLI9KY8jetcEYSII5KtELyEGcOBcZYvW06F+iuUlpTitttvxx13fBaXDL+EI/y4TdO3aNECcY72n332WTz62GMYNWoU2rZpi49/7GP4/ve/j2uvvRZtOboX4dm0Pw2IdWtWYuK40bj2inNshK+vg9lKfFrlNRy5vvTyFMyeuwa33nwFbv3Q9aisrsLE8dMw5OQzsWDhMtYsgYuHnccjlRwZcMLEt9Cte1+0bt8Vf/rbfTjr/EtYz9sw6MQBmPbmXHTq0AIDTxqIquokOraP4Sc/+jZaFhXgqWfHY+yEKfj4J27EJ26/BYWFRXjx5Zmsf0t069kbr0xYiMULl+DmG67FLTddQWFcg/v/8yz69eqJ2z58A4YMGYiXx8ymodADnThiuO/R17B89Rp87o7bLf6KVVsw8a15OGVIb5RUpPHIky+jqHULfPmLn8IZp/RH21YFrk3U2ORh+6a2+pRKW896lyxfwxHAMtx4wwewetUa/OZ39+HCiy/GJz5zM7p26Y4XX3oNLVp3wOXDz6ByiLMNrdPE7zzwRG2aoQavnx2J1HW1h4MIR0N1cfBLOTrhGlYtYNPuNrqnC2uldwxL2Zfvzl+Eq66+DitWrsWr46ajJ2nqYx+5FmdfcDFGvz6Rg8hC0k0/dOjUEVU0an/4rdtxEpW9NnvRoyXlZ0b6cQXXrkI2dbkQ/lp7qL2lmMlQHEhIPu4qS2DilEVYuHQL1m3Zjmmzl2HmOyuxfNVmFJEHNYW/ZOVWjtrXYOfuOJ59aSzatCrEzddcgK4dNLumzcGYHxWtVuon2Yea0l+5ZicuGHYlWpMHkwktwEvZ4EDGWCQSRS+O1i8efjHOP/98xHg+Y8Z0jBgxwqbnf/yTH+OKK65Abm6ebVjWt29fdO3aDa+88jI6duhg5zLWZbQL+jSv1kepDDlJ+ezzbCe49vGMAskEzx+g8TjqpvT9UbgPvz8b260+EcjC9Uf8OtrCEToRz0MPP4Tly1fgpz/9Ca6khdqnTx/0HzAAZ5xxOnZs34HHHn0Mr3Hkv2XLFgy/ZDi++IUv4tZbb+Vo/CyOoFuxMs580MyAU0QhrFixDFMmjsHVl52JTp7C17Ukre7SyhRGvvIGhg27GNdcfhYVdB5OGtgLJw7sjbbt22DOuwuQSFbjwvPPY9bKOQeTJs+kwu+DTp064/U3JqBT597o0a0nevXogcEn90bv3p2RX1CIZcvXoapiD268/irs3rUd/7r3IXz6M5/EpRcPQYd2RejPUfO6NZuxYd0ynHnOORgzcQZ6d2+LT338ZnRp3wLJcC5eGzMB3/n6ZzCwfzf06NENb7+7Gm1b59PwycO/HxmFD95yE847+zS0KSriiKIvRo56FZ07tkHL1p1pDL2Or33xozjz1P4UKHkcXZA5vfb2Yf3ADkx5Cn/BwuW49rqbMH36bGzbvg1f+9od6N6tJU7o2QvlFVUoq4zj4guHICfmjSRNECgPb0ozixh0Xae1Qf5Z3ZCmQWV6sOL9HLLz9p2PbH9zQ917dX0iJ8OOPIUolq1cj4WLllHhX01eWIHVK1fhR9+7C317t0OXrl2weet2bN9RjvPPOhWJeIqKagOuumQo2rfRtDLzZhvbUbDRrF+mc1k90iC8lPtE/fRNjS/sL01T49eFUnvOM6Zq29iDR4Mm18gHeiw47e1F2L27BB0LKWeqSlFTWQIOL9Cre3u0aV1EQ30LeXsitrHtb7z2ApSXFWP7tmKcRqM+J0b+tLU6bPVwBCkOMhYs2oi5C9Ygv2VnxtuOVatWY+WKlTTM6Vavwir26fKVK7B27VqUl5aiQ4f2dB2wZs0aGgHD8WHKyIJCfea7VilrFlTT+/Pmz7eZvnXr1lk+lu+a1SyDfp6vYhkKk3/lypWkIbnl9taA3CqWv5J01blLF+TnkWa8mQGD2mZfLkAdHFUK31ieHSmn1ZwiLD0D0ir07TskMPbvpDx27Nhhq0u3bdtmTmmLi4vNv337dpvKf+6553D1VVfhYo4sC/LdfvZ6JlXYshCdqWDHjhuHoUNPw1133YUB/fsjFouivKSUTKA8t2Prti1mDOxQ3rt2WxmL5s/DO7Om4LorzqYi1UI0Eb2RPopLajBz1hycMngwenVrwfAa5FB3tWpThHAsHzPfXoB4vAoXXnCuPRtPJ6OYMmUWunU7AUNO7m/rnp5/YST+9+SLmD9/DvIKYujSpSMJvwUWLVqJPcXbMPyi87B10wZMmfoubvngTejQhoMvjgo0VSZBu2btclxw0TC88ebbFLI5uOj8U2iUJLFpyx5MmjIZH73lSrRpqYV8YYyfshBdOxchNyeM/zw6Gl06t8eGtcuwePFSrFy1jmUuZvnt0LFTD7w7bwFuveEitG/trT/gTVsfUihJkAgmttgW4UieGShz5y3FlVddi2nTZ6BFYS4uu/QcCqoy6/PdJZUoLk3gnDMHIDeSoOyjASG+Zb3Ulr4gMbmoH5d11lGGhhdi6ZxXRojjfz/gQFDefj5+RvVdNhoKaw6of1/qBXeUHadXOZOIYdmKdVQYS3H11deawt+wbj0+cP0VyIvVmGG8ZMlK8mcVhp1zKnmmmIplNZX/ALTMpyFu/eiVo0x1rNPmWd69HON7flIFPXtD9oMf55DE10+D8QX3WxeWIgtZcTxvdirX4p4JQG84koM9ZTV4d/4KnDH0dHznS7fhkmFn4eKLzsaZZwxGl45tLe7SlZuwcdMW3PaRm3HrTRehpqaacuR1dO3SFT26dyH/U+FzlG4jaB4XLNqENybMwvg3tfBuEl579TWMHz8BY15/FePG6jHhG5gwcSLG0j+OMnLMmDGYOWMmNmzcgGuvvYYDmmFeTfmrf/ahDP933nkHL730ki38mzBhguXzxhtvWD5vjJF/jD3vV9gbXt7jxo1l2ePtkavFYfgYxruaBmV7GhqaPVT+gspz5e7tAtTFYX2GL+tUnaTx8V7Mo1PWRNfMiqWjMYL5C+ZbeGOgtIKvFPzy5ETUOu7Zs8cs0j/96U+4/vrrkUdrUa+P8ZJNN61cvhJf/sqXzTgQY+hZFCUWR66uvhrT6E9vENn4hh5NSe7YuhF7tq3Eo/f/AEP65yNKIwH2jnII20vSuPueh3H5ZVdh2Nn9WJBe6avG+Mmz0LvfKXhh5BuoLt+GH//g68iNplBTFcGvf/NXnHvuMFx12amojldiV2mco+MNmP3uckydsQDDLhiIL3zu03jm6VewbtV8/OIn38LGNcvw9e//Hd//4Q8wdEgr1q8G8VA+HhwxDtuo8L/z7R/ie7/6D7q1T+I7d96OnFAck2ZtxI9+9ns8/p9f0xhpjUQ6hu/+5mmcOaQLhgzsidvu+AMuPH8IunTQWgW9Mx1CZUUZhl92Otp26I0//P4f+Puv/4+WfAdeFxeqD/SsTf2hNqNzTUednY/nXngDTzz1Mu659148//wTWL96Hev+DeTl7ObILxfPj3oL85YX4/t33YTCWDmT0ojQ83/rWo1KtHDPmz2w2YRM9gaNOPeGKqP+lz879sGEn69VtEFk2sN+WfcD4P3FVz32XRcHM0szvobj1+ap69ocycX1yqNhl0jn4OXXJuPpZ1/GX/7yd4x57XWOLMfg7r//Bm0K9Ygqwj5/DYuXl+BHX/8IVtGQ/8/Tb+EbX7oBPbpoelkjTfZrdhX8Ig2u3L2RnYBJMpq6LizYcIji6ycTXNtP+4qfHce14d5xsm/X71cneTRrCGzmSP3+/4xCr54D8cVPDmdoJSPqHXm9msc+SYbxyoT5mDr9LXzu07eiV5cibN9ZhSefGYelS9fiC3fcjDOGdKRC1pR+GIlQDkY88zZGj1uM//vW72gQ9KTM01s3Kq/GStZ8m96v1wApHtcC3z2YO3cuRjw+Aqeccgq+893voGePnkyhOrs1PDLuvvHNb3Dw0g2f/MQnkZunDyi5gYDdlXfvktUKkF5wt+5+9ahA1+xVPv51697N8tBlPWbQ3166JMA+cXhH+F6HqrNMIVuvuXAD/VK61vcM69mrFy644AJccskljXLDhw93/uHOb+5iukucX9fOOussrFu7Dh3ad8Cpp56KmC26c1PQIiBNOb086mWccfoZuO222+yZ1OWXX45LLr0Ul9JddNFFuOLKK3Cx8mU5lwy/jGVcjHbti7Bg3gxcf/V56Ng2hzqKioeMobvUvS5augpbdlaQIbrTWMjD9HeW4b//HUGlfj7KyvZw5L4Up59xninFpcs3YtQrr2PwqUPsGfxjjz+F3n0GYNCgweg/YBDWrt+GqrItGD7sAixbsgKbt27Bueedgxxa7O8uWoN1G7egX/8T2JgF2MpR1QsvT8HgE3thyMkDaWTMRZsWUZx35hCOqquxYXMpxo6fxBHAJWjZMpfMH8G4SfPQvUsrnHxSH6xYvQUXnH0GPvahW3D+ueeic5deWLx0Bc48rT9yYvmYPHk6rhh+FloXFbLTJMjUoepX3bcOeg+BTcG21bvWS5fqGf5i3HzTdaiq3IGRL4zByYNORYuWRdhTCjz9/BiUVKZx6bBT3QifDO+m8kk5ytNoQ0wup1DBJyAh258NV599X6+HRkZrClydnWtMAe8vfmOQHX9fZSisNrw2Lv3GwzxLRbBi6WosWbTMZs5Wrlhu62Suu+YKFOQqRgTzFq7Atl01uODck1BcWopZ89bitFP6oKgVFYCMOq8clyP9/HelCH75Lk62k/Hnu4au13dNjW+GyCGM7/72vlKL2jPrKzZKiEZ3SVkV5s5ZijZFbTB0cHfylkbrTkGq4ZKJMJat2IZNGzfi9NNORgfyZ8uCHHTu1B4TJ8/Glq1bMWjgABTm5zNfKlMaJ/MWbcbGLRW44abbccIJfdC6dRGK2hShdZvW5m/Tpp2tyK8or8DMWbPw5JNPYurUaSbrli5bhvz8PMqn/jaIUt/pzaYRT4zANMb5whe/gNOGDrXHAK1bt0bbNm0s3zbeUWHO8Zxl+edF8he5eFo3pbUBapJEPGFGgL36G6DROKwK35G2Q8ayk18e/sjv77sswlUHd+7cudGuS+cu9sy7E/0dO3WyMFmEmqbv2q2rXdfzej0PmjFzhil/PYOSgSGFVF1VjUcffYzEPBOLFy3GuvXr0LtXbww6eRC69+iBrl27Mv+OzLsjunD035H5dle+Xbpg27aNmDF1PK6+4ix0bq9NRLzV5PzXCtrClm3w5NMv2qt9y1auwwsvjcYF552Hq668mPdbhac4AtpI5ly/cTNefuVVsmASJw3qj5NOPAkjX34F02bOxJbNmzB79ttYuGA+PvSBy9C/b0/s3L4Dk6dON6OhT6+O6HnCiXj40cexYuVKxt+Fxx57inlF8KnbbkDb1i3w2tgpaF0YxoXnnEo9GsemzcUYN34KPnjjxWjZIodhUZ5PR7eOLXHqkP5oWVSEp0c8im0bN9k6hRdfGkWjIIlbbrzE3ix4c9JbuPzis1BUlG91tu1T1dM0oNTHWgUsgWIbFrExFi9ehiWLl+IDN16Frhx1VJQn8dzzI7F12268MX4yps+cY4u9LrnoFOTpCYNoQ/nplz9GNxao/AS74ryGbH8tlGxf1/aN7DIOFvw8hcbke7jiK25D8V24Yu191TZx5iGMtavXY+HChbj2umuwcuUy0spS3HDt5cjL0c6LYRp5S7FtZwn79VRRA43KWdiwZgl6dO2AtlRGohdTVkKD1fbrV9fVVaxC3ev13dERX8j27w9+fvqlwvfaaU9ZJd55Zz55uhWGntaHfMvRfU01YzM+r0ciOZQ167F1y0YaViehbYs88kDSFtXmFbTBW29NtVd+B/brzRSa/WIfLdqCNRtLcNHwa9CuYztXrJFHmnxabkbcU08/jT/+6Y94/bXX0b17d3zlK1/GN77xTWzZshmPP/Y4jfgq5Bfk2yNUjfy1oO8DH/gAbr7lZgs3I9GMf7VV7f2beDgA3IytPKqa9+cYO0AjcVgVvnWYPd91ykD9Xb/TrD8Zz/5EBU3oT4uuPOk0Yrd8Nei0TElojCDF3oWGgN6jf/fdd1FVVUVlWUYhtcJW5Y8fNx5f+epX8Nk7PotyEvnrY8bg1dGjzUiorq7hiLsAubkclUT0XjvrTmtb2a9ds4ppR+Gqy85Al055Vgm38Q2ZiVZo+7atjfGqKmtQuqcY118zHDfeOBx5uTWsT0tceP5pKC3ZwTRxfOTDN3B03Ru9e3SwTXxOP+Nk4/vtNCpaUynf/qGrce4ZJ9G6TdAKbomcwjxs3rweg/v3Rt9+J+BijvyrqxLYvWMnzj/nFHz2k1egZ+fWpnzjqTj6n9CeeZOhUwnoiU5BQRhnDz0ZufnayYv1TSbRt2cndOlYhK6dWmAgrfYdO3dj957dOPvsk/Hxj11Dyz+MOPPTXgKnDz4B+YUxtq827lFb6751YF4yADgskVAJa8/+ZLVZ94NPHkABEMaQU05ECwohKfwT+/fEB2++Gn37dLL66ZOrpgNshE9oUyBrbTkh2++j9ty/Wj9G0+BLogPl0piS/OuNiSscDfFrrzlKr4U/Yy1eiHPE1aKItEIjNZWqQkfSzsmDTrA3LcLhmG0/3aF9C/Tr1QktSK9FbQuxdcM6DKAB3qlDG+ahkRszExMLdYtqFJqa5MjG9+mqFhaiRHS1aZ3PZkO9mS1BH7nRaFfv3ffo0tZ4maKV0GM3GlniN/KPZlBO6N0VBVT4kiHKqWPbNmjVqiWlfxi9enbhqF1TA1G8u2QzVm3YY+/ht2nVlnKqHOvWrccEbTL2xBMcDD2KLVu32Nqn733/e/jUpz6N/v372ar8s8462wZEkydPsreaRr8y2kb4n//85/GRj36E9ShCwv/Qj2qh25GwkAy1MM2yyu8NFBpySsijHfTn+QM0Hof3GT7/vG5Tj3m87cJcJXy/d2YRmtapIhpZkEomgpCCV772LMhi8Jf/78x5B4888oiNSvLz8lETr7HX8W677XYMH36xjfyrOOJfv24dFixcgDfeGMtRzGq0b98O53Bkft7559PC7YGO2lCCDDZu3Gj8/MdfwT9//xWc0r+FCue4mgqL16SmtLOdVqmnknqGxct65YxXUvp+OC9rU5wUR0IJTVOREfUcjn3Da2LeEBK02PVhoBCZxh7UpWvIsLpJpdE6AgrMmiok1VwsK6wd7MQQtr99lSlxamde0/OvGqRqKkxAxJGDWE4egyoYX3EoMJJadMh0qWo1KGupobYW5Wm/f9U7zipUUw+zziwwN8y6sN76gmBY78vzPnTTJsRZe72Lb4pbgTK8bFc9+mnc6C2GUFgGEtslyXM9BolFWRLzVBn2OhLrrfsO06kubBX3RNH1aF2oAeqjoXgHhqNXoaE8jxeolXX/rg1dm3uOCkW9IFrT99RtLsd41vWNdlLUfhShSCGqamgcxkjDNDgVr4ZpYorLPo+qX2kU28hPNGKCnK3P606mN7f2VxvtC3vfq5ODbAvbkZDX6fTpYT2nF99HaGDZinub79f2lC6NHg/G49Vsdyp0nZPnjBfJo9rhUhtaq+2TST2jj+CxZ2fhjSkrcdf3/4RkdQqT3nwTM2fO4CClDEMGD8bFlwzHqUOH2gynyRvWwzbZ4lEDrEQiwZH+VuzYsd3qoMemHTp2cNPwvC+ruief9XzfpuO92/XXUWX0wz7gWo5xDxAvQMM4IhvvOEaWSBBTk9fV01kQURh4zRF746HFefbutykYptft8d9t2CDCNKqyFeFS8qWlpVixfIWt/NQjgDxaq1qoZ4aCymYaKWDtwqfXQv735P/slb14MmGv9H3kQ7farlQzZ0zCb3/+Ddzzh69iSP8C6lwqJhK1vjhlYpEMIes1nBZDSolJEauaYgD3epNGSkxh92z6kPGjahumjatJNKSKJzlqIgPpcUGGyXVDdNKHEgpiKvq1Xa5LzvYgY+rE2kMNQqf8kwzTSv4Y47lV7+oXxjfB64wVffZXaa1celVUOCcXyaoqVoMnMjyYx+6SCqxZu5kpFI/CgOmM2SUUaEAUFMTYVl2Rk08Dg+2iLwmmODJkA1u51hbMR18hNGs/wnZJ0FihoaRVxHZTaSl81VF5qr6HBpaz2kO3zr/jF2plEQcpQTxkYWod0Ycusw+pfNhBVCKkJ/U1SVOPsWxTF9K2dm5kZxpv0pzkn+g5QnqiT4Ru9C+FoPU75BURreKZn16v1OYP3Wf2vaqdRYMmKb22MIJkW2t1PTlV/CdBonaUUe8907bZNW1FzWuSQFEa55l4xucSkGxvJeefBiOPPzsTDz45EUWdT8aShcttJvTGG27Axz/2USru9mRB9iN5XW80WTVYIfcxMXFIbb1Nfqso/VhlVXfFlWyTPFJcl8LuTNEOAN27Uvgb72SXF6DxOPyr9LOIwwjCL92CXLgjbHl4mbTVFMhytA/OkLj8z90qH3+Vvpwp1CwqM0HD64rniIpx/aNXGR2VrxTmps2bMUavqEyYYDMA/fr1QUFeGFPHvYiH/vEtDO6XT8ZQuVr9KkWmfMQkEmsKVx0Ypnvz71UexleZzq8LjG/1ZF14KkMkrWkxhYlTrQz6pYilOC0tw4yhdI8UAMqDv8pb+djI2G5deWqk7OI5lWsxCQkCmSmuLlYEhbkpXMW0euqVOXqjuaa0tfnKkmVr8MhjzzNHzSJIyMdMIIUZN5mqQPfu7XDLzddyhNDOfRJVbzEwE9GE+sdm7D2kWJ6u6TFBVPfjboIXpPB1V2oH8x5CqAA5Fe63zb7gXz/klTrMqK/weX8yKo0GeZn9JMNOCl0GnAl1dox6yUaTRmPayY3KnddtlEkeSjG+dmOUsjfn0VUtlLnc8YR90BnbWn9uIKT2I2eKP7zmMf6wPuAJ21RftxMva0bOZA2VtP/tC6eMlVBtLSejXtwUxWPPzMJ/nhiP/oMvwQ03fADnnnMeunA0r0k7vzt82Wmy1ONb8/NP8K+ZX3WmX4aJwm321cpWtVQP8xr8NAeC8vQ8Ad4DjojCr4OGSrfO1wURiNMCPkEdCAkqESl5lSNh4xeQPWUkK9FmFfhvI176deoTr6Cj1dfiu3BTeiJeRWD+27Zvx7IlSzD1rSl49ZUXsGPTIoy4/8c4tV+BXdeoVBvGhKkoJQyZIdN65Spv5cujzm0a3Dy6Tqf0ZknzujE3/YpCgSrFrmk5hSNZzSqF6ZWCVT6Kw7hRptH98FTxTaDa0JwR7FyCmAaECXIaSUrn3btdY7gzDtQOKorX5GFaZeNiyuJnPShg7NUeZhVPqJIytDiiY0T7dr8eD8h4kPLm0E/VVum2h7fCVa689qOcmS+1v5SHClN8XXP9SZeJa55Ggvdhv0Jj0/nxXKr9QnVT+zSpTscC1G66f//eeKZuMFqg44gymXA8p2tmJFLhR0SPUkJK6/OSeMD6nDEtmD/iJ+VjtEd60QUfh96iO8rg2sCHkzTO6fVev41NBnhto76xXQrF02pD8an4X3EUV7JDeXrtavJXp+wze4bOKMopReP80WdnYcybK/DDX9yDk4cMtmxsTKGcknH2n2SMG9ULmvm0mdAsWLVcUUYenpdl1Mbzu1uy1UlEO2ka6hYboJEQBR1eqKOyXcbrnRBSbiIkKWDBCKKRkFLQSEJOlq4Jk0zWzMkEiyvPV+JuismlVVkWR8mUjl57/i+/iNvSy4pOo1279jj//PPwrW990/bgb9OujY3EJQTt2/KMZwzjtzKVoJShFLQFiuEUwYddd2WbsrfyZKVr9KRv3muhoBiYf6a05WQ5q36Ma84pStvHXvmoHnY/KlNK36JYfKuqAqyddeY7gsHWFhIUjGuMrTrTKdwUvc4VzvajGEA0lEB+rAYFsUrkRUuRn1OCvFgJcmNl9FfZx330XFdrAJTU7l/rClQv34Cx+ipfvXKjD4bk2Eylpo3VJO6mmg53t07pNx4uTeOgejc27rEI7/7ojMxIF7a/O8Ptoy7sGymQCPtOznWWByXLGIw653VHhO6ytZucu+ycu3bcwwxv1xYyoOV1j+UEzZioLamI9bDEDCz5JTMY7sk16ysvjeSCZUd5ErdZAeYhxyD9akFyi4JCF4fa23UxuUe8yT5TXTRg0mXLUfTg+e1c8E6sdF63+F5fe6HW5+a88zqZ7M8FeF9gLx4+OMbeG0ZTfsdnwb2i13inLHSQoWDfwI+4lfQunD8e/HxFQCJExTcFaEEKZHwyi+I5RSfDwOUjOKPCCyNk6ebl5bo8+KckLl89p08whj4CU+2OkowcUZvCZjzrAlnotoBFAZKcCidMAfLIcBkvGkk5pa1PiaoQxuW/JTGGcqNyLdzbU6WFdQyyMvhjefKHedrKeYurkQJHZ/pamV0nVKbFd/kp3NYfKFhxrE6srz/7oGn+NO/LryqrZ+sTQkmmcfX2pIZF11Ftq3ZNsqLFxZWojkth6P4VT3VSfmFU1qRQGafhxvroMb8pEuVhGVlmRwGsUZz3uICEt6MzG7Hr/tnpWgBWWamZnJg5oxH2Z9o2dhGl6Vm+HGmfR03pOxoTfWi/BeXtFE+Gn49zWFuwiWR026wlz60t2ezxUB5Ka8IorkijtDSBPaU1KC6vxu7ScuyuJE+JfxJpVFDspGzdEFOru6IRVDGDkooQqhL6kD77SldNJrFvyZfqH+tfJnHdoDCG8LpG937fGPs7pt4n/Dxcn1Ju8mizq3Y3AQ43jhpJJYKqhYjD84qoGvkn6Lm9nAjMBJNRpctIWZrXy9tPIyWtPykhHVW4ET7TWj28PHwC1xS/4urc0psSdNd8BlAyZ1jIowBT0TxoilvxKPw0Cmc+Mk60ME5JzRrWt8MF07KWmEqZzBKNWTxN4SVTKpNOD75Zhg3Spelp8W/ZUoIXRs7Ajp0VXh4Ml3FiypmnXr1NmpgyVj4S0HTKh+d+XeyU6fX6IQPodHRxXKE8NwOAXuWlOAyzIsL6fj6vpSPMj3mwnZSj3mqQkbVu/Wb84Ce/wK7dJYzMvFwiO+oVniVLV+G5keNpEChIF+l0O94tNQWqke8ODbz6NTvUtpvb+Mg9DlMXkBitv9XH+iDSA/8dgYoqKQXG1kJLOi24lF2qHRpTpFm9ohpnspLyFOIJ0YX629FRE7u0mcOnJ79d6Gc7mZ9tuLOkAo8+NQY//OV/8LM//Be/+OND+MUfHsbP/vQoRjw9Fju3a+vdjRg1ejK27SgztgwhB/HqXMyYvQ4Pjxhl3/BwC3KZpzn+2MAmxHCn2J0cVOnkXZ67P7Egf0UPflI5Vbce/JkFA+M7Pn4feJ/Jj3cY3x5p1O9DR0D69aAIjXRGoCIynWdIUaiXXwPIjCpE4YJH4NlwlqrvvDSeM0FIhjFrXGE+qOzsBTsTeoyqKX/lSwXoRs8xRGL51Jt51JvMV8/KZESoGnLGra7MSE4ur+dQP+eTKRlHU+K5ufpyLAUo86SAraoOYe68zajm0Slp5cOjvR4jQaxuZ378EyMjyTApbDG/FDoFuF6vs3rQeLLmlBCXvWB10XCb6SQcTOi7NHafUvq87gwQRmH99CiCN8lrYnerjI3WE5T86zbsQWW1Zj+UL9PaTEeU0aM0BCrsYx6m8JWvYM/1NQKx4uo6F2MfsBTOe1Dh8nXG3qEp4cjDbzvv7uzABjfCcGGl5ZXYvqMYNQkawwwy2hGtGa2SZtmn2gwmSVu2eHclxk54GzuLKzzDlfE8eCUcl9C9+y4Dn+7JN/YWDXlOTa6tuZeu2Izy6nx07zMIvfudjD79T0H33iehU6feyIm0wNbtlZi3aDVKK2soX3JQVQUsWrgR9973JIp3VaBf3xPY9MqPtCve0+DAk1t6s8d8RtS6lnWdTtfc7EOWU/x6UN4utu5LeZn3/eFg5HGcgj145GHE0yC5vD+4fB0yuXsCyoimHuHUr8G+a1R7pY5iNy9/+O8YSAFSgnoHP48KORdlFdolK27vJeu99TidFrxVkhmlqKs5St9dmkS8hkk1eo+kORoqRXVFtU2Pp2riSFWnUF3DkVK6AOWlYezeXY4qStlQXgGVeh7Lct+3til9qwOtc+rUBEdVcqmk1gPk8vbTHElHUZ3Qe/E+M1NPVydYfpojsSgFeAg1FMoVzExThOUJXlO9TPFSekeZC0cDNdU1qKipZl5J3gNHeayDRulO8ytrKWl9klO78emRBNC3T0889NBf0b1HZ0aroWKPc4RIR2FWURVi/WkAsd3SKW0IJINCGUk5kFro992Rh4Sa75ozdHe+I73otS8pIPbrOecNwXe+9xUUttBCLtJ3VQX7L2nbsJaVVZli19S0jNsVqzbhzSmLsWsPiV6Grc0uOfqry0/NuzX3D967KXs6railHPCltdpIux4U5KRx7pkD8JU7rsCXPzUMX/vMxbjr0xfh5mtOQ+siKmzGT5HvkpEUKuJpvD1vFf77+Is47ZS++Mzt16NzUR77pIa8r2GGy1wzb1oDpDIkKt+vXPb7U/nUyUtGhi+LAxw2HHWfxz3qkaFZz6NpNgq9lcuX4s3xo3Ht5WejU1s9M3MKQEJLzzQrqyKYOXsZXhs7A5OnvoNNW7ejdev2thd2JYXisy9OwLpNu7B4yUqMfm2K7WEfyy3CijVbMWbsNEydvgA1HIl36dobGzZtw0NPjkYi1Arjx0/FxLfmYPO2MhQWdUBRYR5K9pRj6qzFOOesk9C2bSts3lqKcZPfxWvjZ2L62wuwnQZCq9ZtkZcbwtQZSzB95gKcdGJPDtp5T1TU+mrWrNlz0LdffxSXJTF5+rsY9eokTOdx645StGnfGQV6l573tW1LKUa/PgtvcMQ2851lzLsanbr2Qo4+kkGzQ3JKzaANhdyjD4mWMOLxEDZt3o2//vM/GHra6cil7ti6I4mXRk+2jwqtWruD55XYtqMcl1w4GLwtwiwYCiWZKq5tDVlyJMt7mJAttA5/6Ycfukc5tb+MONI3lfjc+UtJtxNw0sln4p25KzB+4hyUVoQwZuJUTJo6n325B107dzJDdsSTr2Da7DXYuX09Bg3si1YtCpxikAIwLeO3Y3bbHg/w29b7VTv4TeF71DzpCEo4aJgzbwWK2rTDmaf1oQFQwxhu9kvzieqXxSs2Yv2mTRh08mCsWrENY16fYLsafvrjVPYdWzJ7Guw0JvSn7bfnLd6M1euKMezSG9C2TVsrsX7xPuqdGqy3shI1FCfAkYVnMwZoNEwmOes0I47Mbxd04gX5V8M2jTmFSvn+B57GrpIUBgw6A7PnLsM9945AcbF2qYvgrenz7R323SXVGDTkbMx6dzX+fO8zGPX6dHTrNRi7y8L41/97kumpGIvL8eyoCfjPw89xhF2I3n2G4MWRE/EcjYayshpTtNpBSyPs0qoUnhw5Hs+9+iba9+iPoi698cLoN3H3/Y9xRM3RezIHTz79MhXrbnIoWTSWhzcpoNdv2Mm652L8m3Px0IhRyGvVBX0HnIFJk+fhmefeQA1H3uU1ufj3IyPx1Avj0KHrQLTrfBKeeWEyRo5+i6N9KXc6ezTBfPVIwB5paH0AlX40Zkrg6WeW21e8Ssqq8e//PIuJk+ejM+sZ56j+uWdHYk/xHquWRo3WovTb1KYvDOWOEKy3Wb7tF2BHF9b8YXfOfqx9h3vT5j00HheirCoHK9buxoinxuLFl6egdYeeaNW2Jx569AXMmL0I0VgL9DlhIDp27olTTzsbObmFHFE6Q85yFd9keOd4h2tn4yMRl4hdz9Y1I0IFXRVPYe3GrZi3cBWN9LVYRLdy1RaUlFSSX6j8ySNlFXEsWroB/+++pyhryvHBm69Cu5YxGg1VZEmN5FUOf0J6lVaPI+nC9It97ZqrRWPh1dhVN8BRB3ZrgEONSjLdlEkzcP75F+HrX7sN111/Fr7w5Y9j49ZdeGP8NJRXUOCFc3Hy4AH44AcvwnU3nI0rrr7Qnl1/8vabce0VZ+Bzn70BZXtKsXrVBu+RZzWuvHwoPnPbWbj9lqH42fe/gHW06Ddv2go9K9e38PNyoli/Zj0WzV+BO790O2774Dn41G0X4+tf/SzeHP8OZnFEPuCkgahOVmHW3CVIRGLYuXsHVq1bi6FnnIHS0nKMfOVNXHv9VfjMZ67Djdefhy99/jOYOHY65sxZjNnvLsOUmXNx13c+jZs/fCFuufVifOaOT2HqtNnYuKmYdWBFNe1P40P74muXNTfi12LFOGJRW0GAWKQFli7ZgLemTMN3vnEHPvbB8/G5T16Jj956BVrYTALVimSSYvPeJIiOBnmiOtg0tS+MJZvpa4qAPPbgi3Teq6210AJZrc/QGhKFajlXgn1djS9//sP44PVDcccnrsYlw87GPCokmqE45bS+6NKlEGefRSOxXS6NAOXnPfrJ1jTHMTKtbMatlLfaJ0Y9Ly7SouEUdpdW4cXXpuC7P70b3/zxPfjGT+/BL/72IOYtYzuzQzQTtmb1Vvzvf68ht0Ueqshzs+ctsXz0fQObZE+HyZNaWOnW2DBn5m8lWzdYPbxjgGMfgcI/1CCz7C4vwbbiHfbe66yZ86nY3sWKlTvQtk1XrFpJ5kwm6KrRqVNrKkFa3ckydGhTgF7dO6NT2zwKzwoqxRQ6dWyP0rISMl8cbdtJYA5BjpRmqgpdOrRFbm4BtmzbQcblaCmhva3D2LRlJ2riEfTUt/3j5QgnSnBCz64YNKgPNm5kHVq3xi0334CZc5Zid1kSc+ctRk11GXr27GKf0Fy5aj0qK8OYMmUBJk99FyvXbqW8KLBRxXoq9dyCdti2sxpvvTUPb02eg5I9laiigbNzWzFSeobvtYEbMlBB6JVCChjbU4BhUhI1NGw2btmOAQN74YReXRDTdwKSlThlcH90aNeSRKqdAJ0SsBX+WrRnI0Fmme0sxpGAJKL3CIfOHZs/au9YI8WUHue7buZ5hw5F6ESXy76KpirRtqgVdu+WRcAU6l/ScITWn80SaPZGfer91UI9ejy5BiA612hdiphtlZTTM3ZyRVHLQtx03eX44y+/hT/95rv43S+/i2/ddQdO7N/LRul6sybC9EOHDMAPv/t5nDl0MF5/dRKWLN9ks3vWF3Je0WZYS+nb20OaVWPgPqoV4NhEoPAPITx2omhLYcvObXj51Vfw4IP/w/33PoH//udJjr43Iiemr8xpG2AJTe14l0IuBWGEI6EQBaG+WR/mCNleNWRvJZPMjeHaZ14TqlqgZ6v8eb0mkUA1tadWQ0eRw8FALq9HmCbCfGnJk3sjypOSWco2oQ+ahFO44vJLqbQrsXL1DoyfMA2nDz0JRa0LbdfCnTsq8Pxzr+CBB57Gvf9+DA899gQqa6oRieVSaKTsK3cPPvQsHvj3//DfB57AE7xeU1lBQcO8o271tVb2J6X8eQOhcI4tLNSmOnGGaWTICttefNrPwEQfr+k5vz4gJKUQViRT8HQmgNzU41Eli3QfmR4/PqBHGdZf6rsw+4n0GdGwUAqJ9KlnyWGOJqOMJzpPpdj31oXuLQ290eL6XAtbpW78FnRq/3hzHnHvBeMRHckl+hX/qv1ibNceHVrg1P5tcdqJ7XD6SR0xZEBHtG+t9TNpDhJiOKn/CbjlhuHo06MAF517CloWtMQzL7yBzdtKWZxei6SSVz/KYibc5IqML9aJP17RAZoJAoV/CKGpML2xVlhIpjx1MD7/hU/g3nv+gBGP/BWP3PcLfOdrn8L111yGvPxCjoaljKMUjlFUcdirL+BpEjxhr9BJKGqKTl+qIxhv164qrFyzDSXVaVRRDqzfwpE3lXenzp1UMhVsJRm2Cu07cpSVH8PGTestHKE8rF23BatWrUXPbh0oFBLo2LEt2nfqjtden4533lmOs84exDoBbdoX4byzeuIH3/osHn/w93j0od/i/v/3S9z11Y/jwnP7oXf31hjQvwd++/tv4IEHf41HHvkD7r37p/jy527GwH6dTIjUJFjvUA7iUvAaNbAO6YoK6BUCfXFLC73TVA7tu3TCklXrsXrTTpTrDQEaMstXbcCmnSVIsk1kLIhaQ6EYlb2eYTYsHA8elH9TymBc73XHQ1+3Iwnv/vivx0ZhKQvRapJqW693sg3SVEh6A4VaCSn2rT6j7KaKE+xCfRCKRm4yShrVGyMyGvTqpjMA3PqM49SJPz34VGQh9PhXJAe0SY4MdX1YSx/FCUf0tUnRHsMYUftqycjSMF1v4urz1+FkFQb0a4fbPnYpFixfi5dfm4rycvIio7nFflr744xoKX12hRlwVq0AzQaikuMbRuHO+/5RLzMKQjFM6xa5GHrKIMyeOQsjXx6DyZNm4eWRb+CZZ57iCHkT4hy1a3tcMWo6oVG9FL8EI8e9WvFHxk0la2w0pJFtfk4uKsrSGDVyPCZOWoBx4+dh5EtvoH/fDujVo5PNEuiDGjVVpejXpwv692mPUaPfwBsTF+CN8Yvw/Iuvo2+f3jjl5H4ciVchNxrHqYP7YsbUqTht8Gno3Y3KmsZFp3Ztcfnw8zBx/ES8MXY6xk+ZhyefHoVXRr4CLbceRGXfq1sbjHjsaYwfPxNvTp6Nxx77H6ZMmkzhH4dWK+boU7eksrwcvfqn3bxotEgqpavZNnHEeC2MKhoIvTH01IF4+unnWM9FeHXM26zrVFQnKijiqDxkPZlju9qQxx8PHko0Pn+b3M5IRx0Pdd2OJETjUhbqF47kqTX0XYSQ1mvYrBQVjhS8bSAlJS7l4ZSJui6/MJ/HKrw1dS7pv5K0rZEmW1BGgprR/zP+OY6c17JytTSkM4lpqmO2s33Pg0FJKugQqumpckYSr5nytmRatst47Bvxnj6NHWb+MRpoQwb1wvALzsC8+fPx9rsroM07BVe6IMNLBrZ3SgRKv/lAlHT8gkRthH7QCDqLS1zObOA08mJJXDH8Alx8wflktEV4hApy2dL1uPGmG3Hm2UORkxNF587tUFRUYJZ5Dkf8hXkxdO1UiIIcis9U0qZM9b5666IW+kKQCdVTBp+B2W8vxUsvTED3rj3x4ZsvQbu2BWB26NalHVoV5qBlfggf/+hV6NK9F558biyeeWE82rbvgO//4OuMm09BUI3cSBInn9SDip/1vORipitALBZjGSncdMOVGHzSYLw+Zir++8hL2L27Bp/7zB0Y2Lc/OrcvxJfuuBU9OvfGq6+8ieeef40GST4++pGPoUP7dnr+wLpTolAopeKVpgzSehWIoz6tPyrIj1DRA4Vsn24divDdb34BbVq3xAsvTsDkKXNw4YUX4bRTTkBujnWUpJzXxO9V2SuxZdAINCV/1Uvxs11zhn9/fnum0bplAXr37GQ01LaokIZgR6jb9CA4Sq3TlnTbpVMbxEjPbdsX4cQTu+CVV9/AqtXboA2pXLPxx446V+IAal49r5dB4IQ1G4jGUzQnjc6dWqFDm1y2MRW/NaF+pOi1sVcYLVvmoSPbOo9GN4cPvBqiPAnhxqvP40CgG96ZuxA18SRZVCmZhpaZ9ayMD2XFE/WCObsQ4FjHEfke/lEHUfQBWsHfQMJ/Hc+YywISNvU15rVR+OWPv4p7/vg1nNqvpeMQpQlxBGT+fFRX61l13Ea9YeajxTFisSiHuclwAfVhBa3wKtvsRjuUSeblSrlpJEWhmQ5rZBTF3Dnz8cmv/BH33PtrnDW4I6LpGKtRQ8NBO5qzLFroaY6aQmGOslVinGVFC5hfmLq2xjbL0SKrKBWwNvCJ5LXG9LlL8PILI/HNr36RQoSKmnmEoiqPNaSi1fa/2uHPpgqpwE3IUHGnOIqPp7XSOoejBY4oclq4hUXJao7eKZjCjJeupFDXyEGfzY1A3zjQUE/TvlpzoA92aEZCAsZGJqEcu56ksZAKJxHT7Iaa29qTkXiPrhd4LuFE35GH6lMfR0fNDi5c+5vPeIIUZwqC9BbRZkuid9GZIuhL7HHr7ziVOnsSuWHtmx9GDf1agBkRHcoIVI/abIFyPp6hNpVTQzjDVnJAMJUvI5oCJ20fr2J7xxNsSS2CJBRRo3NLIJmitS7sFzOk4uTVavaRJE4M+jS2fa44IWNBn7PKwRMvvI1xU1biJ7+6F/3697cqeEVbbfSs34f2AqoPF8f5hYbiBDiycEZjc0MW0dWBwn0n+P5GEKapGFP2RtZ+iF3z/fYn5uJR/5a9dyolGQtXIj+WQCRdTnuayp3+aITCjko4Eqq019Sk27W7bE5Mi/eosP06kjE1hZdKlHHQVEMhCeRFtXBH0+LldBUIUwlryjyVqGRcjqjJ4KqAVv6HUU5vKTMqowKvMObXV/t27i7Hq6++iddGv4kTB/RDUWtN57ESzN+9PVBBecC6RappJ5QzfQXvh857lUp1zY3F7Z5yozVU0nsYXoWKinIsX7kRq9aUYMXqSqxcU4EVq/Zg9eo9WLFyF9ZvLKUhEka+dtwxAyLO+rEd0lW8j1JWoZT3xDZLVyMiba+5SQowgwkwuzVrmqMDqkl918xh0l3P7/3pez2a0s5tpA8epeydnZwirZNk2J9mKNJp5X6EdBIJSVlp8SYVmUF0dTyj/v1raOENL+wS+YDHVILGFHlYi30VLMPbvb7nO8oZeyRYZfGUzB4HMLYWAcvkCjHcHqN4JZj8IlPZQj5maqIsA1cHc3XCAxxLaJ4Kfz/QePA9jQnFAJ7Xz8NG/ZZVJsQJOHNeGbSknVN6KvAEhaBNqihDMak0PE85ipXg05jfPiUq616v4xjX8VwKT8+8qWDbtGmJU0/ugjyGaaGNFk9F9FzciiRDS0HKrzooD63y58gqGkkjGo1SEEQofLV1XQ5qatJ46unnkRMqwOWXDLd4Wi5or+Z4I/WkRmqyRGx6nveg0TiFPCvF/zybATDhz/vUmwZpGiRrVqzAn//wD/zut/fh9394FL/5/X/xp788iN///v/hl7/4Gx555Bls3LSDxosTNcyEjvnz6D7Qwux41JsF1vBqM+8ZrxpMU5zeDdcZVQQ4fLBn9+zzCBWJfaudfae1JqLzGil2DvE0orSvV1JBicx9nrFdGOmcmtGCPq9rrU/pq6ttjj9kmkA/3kk2odu5N/Nm8kXtqria1XOvPaotFWTihH2jdpaMMnmkxZK6Zt/XUD/y4PWH7ALjP8tPfK5wl705RQ1wTCKY0n+PMDUlyteUPo+1U/p34tT+LXnBU/5iVk/ISbnZNJc+LEIhKFEn3nOKlAyp12RCUaQZKSLOMoWvEbdF8vLRFKo2yYiSWTWBr1GTLHZeS1MBi9EVHZraU2FidJkRgqlWO7ongmHyPQWy0qX1Ko9G2Rxhh+LQ50trWLx0uoupV4G0slqvz+mDOu69a03LSsBrf/w4hY9exUsrTiiGivIEqmUYxPT6VYy2AuvG8wiFjIySnJwIjRCmpdGjqpp8sZq62tbCP3e1D3AkoT5w/WAfNDIil8JwHWi75hm9ylQTlUnN6JdhjCKfUaHoX/1uwUovevVI1+j2eIZ43BlCegvCeF88oFdaJRPs3DWTWlOfobavWWq6jbzuT/s7ecHW1qNDPUZTf0ncO8a1/rI4DEtGcvH4c7Mwbtpq/PjX96Jf7/6Mpnjib4F+c/uG4mXbJMGU/tEH468AhxriAm1XGeORjJaK26tKcTJvkiN+d1kGAhmXzGgWuylhOjG4hKh9L56jch3J1JFwFbRBj6byxPjaWcuYXWklE6RoFUYOtK/VSbL6PG75aTTtRgN6VBAJldvoXs/1RBYaQedEY3Q5vOaEt5772baerJfxtX4oWCJRzRZ4m+pQ8EQ0f8vC8grDaNUqgpYFIbTIS6BNUQStW0cYBuTn6tUi93ZCSsLKVIHKtpzrQfcmF+BogqMBNzp3xmYOe1D0Iid6UDiVPo9as6KlZKZoRLBUJv5XI90ncnXJu37cgvdvToyqf/043rAAg64LCmMbywgI5zEFj1oJy2OKxnZS/UG+1WuPZrXrvYkElbfJCfJaiukZT0UJFi6/4mvWQOXRq9gBmg9ENQEOJcSwNir3mIej5zSVbDpM6z0WobIk02l0I55kVM0CmBEvJR0hE0c1HlLKGKrKEli3fgv1uDJz098mTJm/XtnTcztXkPyeUxfbKmjP6dzipMjfzJkKXPMDGnHvKdmD7dt3IhHXNKE262Fs1sVtkhLBpk3bUV6u14AoDli21cGsCwpuGiIx+wyqhEwSCSqCVET3SaXOcsIyLlJVrLu++udmEbSDnjMeZESonXhgbgGOEbC/NNOjPi8rTWDTxl3sWykR0i77U0+rfIVio3rSjBaLaoRp6p/pTNmTEjQXIOrMrIE5LuHuXTMfaiG3UDiLj6mIk2yfJM/jVNibtu7B4mUbsWDResxfuh6Llm3g+Qas31yMqkQIu0pqsG1nORJJ8pe+YaE8aGCXl8WxbuN2bNuu9TbKX/3gmE+v7+ljmCrSPmetKljPmCfAMQ5RUoBDBeMhSTyNojVdrtG8G8Wboqewq6ni9TgZUjvRSXgyTLrfJGVKz0OZJJZD1RjFtLfn45e//Qs2b9vFUKaxKTzFk6LnUda5rAVtWG8rn+UYLsGhaTyrCx2Ve02SI+toD0QKhiC37VAk0nkYOWoC/vnPh6Bv2DvKYHoZKGT8VCoXI54YhxdfGod4ooZChyKJ96KFWSnen5wt3JJQl0DXjEWERo1kjO5IEkRKgCOScLSANk4LXihgdWgkcFRiAk7VVrEBjnKIKp1Tf0lpT3prJn7y09+gqoaGnhmeol3RDyPoOTFpQlvCyoitqg5j/ZYqVNeQBrVhjyl9Ho1O6fXzN4V3vMJvAzPL7Ux8q/USIO9u3VqJ3/z5cXz0jl/hS9/6E776rT/jK9/4I+785q9x3wNPYMfOCrw5dSH+dd8IGgC7UUP5kGY/7KKyf+TJCfj1H+7DzHdmoZJGeJz9ZDOLjlmNVQVxt9XCTdVYWIBjG17XBjgkEI/40+f+cCcd4wg6QsemT0eRo12yNBUXzjdhqEVOJudM1iXN8tbyJjFrBYVjNa31FEdQWkGvnfekeO0RgAbamqZTlyZYToKFM76bamWYjANVweIpT9YD+fjWD3/L6AX2BOC0007DxcMuYhrVk/mzznr6ry1006FclFdx1B8rdIJBCp9/toKecbXdpxk3qoIMF953mOXo0YCFpxRbU4mqA9tDrwNpAaAZJapUgGMHHoHav/xp9D+xL2686TrSBmlFfU2aDJnhGKUty1Ep6UDKSus7tu0sw7OjJmP7rjLaAtoWmgYB81BWNsL3sucJf45TSAioPcQvahL6tfhR7aNHIZqyb9GqLa697lr85hffxx9+9T38/hffxi9/9m3c/pGb0a5dG8aNMV0u00mZ52LLjiq8MuZtzJ47B5ddchEuvegC5OnxGwvRwlx7DVZlqEiN7vmnbgjQfCDxHOAQwhbHmbJNoby8Aps2lGDpsq200EuR5EjHlH1NAjs3l2HXrkqs2bAeq1avRZJhldVxbN6yA8uWr8baTZtQnuCIKJyHHL3PTk6MM8/NO0uwZMU6rFu7BVXllA5a5EdhUE1Lftv2MpvSW7JyLcr1XV0977NnfTkUtHk286/n8slQxFbvn9CzG04+qb8T2pQwe8qqsGrtNqxctxW7SiqRpEGiNZ5uqpFiQUKBwtzta8+jFgbxktYi6LVBPdO3FfwydijU9fzf9lr3Zg4QqqLTq348BjhGoP4T3eqoftd0cApt2rfA0DMGITcvgoqyamziqHJPWQKr1m0i/W3Ezt16nZOjfNLDgkUrMXvhOixbuQGVVXpNT2al8gvgw6laPebgn9k9rr3JRPynwR6msR1NoXe31hh2RndccHonnHtmZ5x/Zk8MOrELcmNeDjZcD6OkJIE3xs/FGxPn4uZbrsAN11yEgvw8xtGOnsyTfGmv5PFoDxSsOFd29hsxAY5tRH7205/93PMHaBLEfDrqGSawcsUyvDl+NK674hx0bkeFzIsKN16hUl++ejueeG4Cnn5+PMZPegcz315IQRlGr56dEU9U4Ns//TcWLNmGCRPewozpczB4yNmYNG0BHvzvU5g4eTbeWbgay1btQFVlGa646CQUtGjD60tw939G4+XRkzFt5mKs31yNnlTarYpaY+Y7S/Hg469g8cptGPXaeMQ4qh544gDWhQYBBUVVdRVy8tpgwuRZuPrqq1FdsgEjWbfXX52O884/C1t31eC/j47GoyNex4xZi7Fg8RqWvxUnndgDQ07sTuWu93yp4PUMnveY0Ap8wkbzEhoamZhXcSR8JDkYUfLHQL+EkRYB6mhC7VDCOiLAQQP7TP2mhV80IMdNmIp//eshDBt+HeltMv790Ehs2FKBV0aPx0uvTMOChSttO+cQ8nD3vY9j6jursHrJHFxw9mlo27rApqtdD/mjSv0eb33mMYHdtpS9mEVtrAN/xEJRPQZJobi0BrNmL0FRq3Y464yTXFyO6LXBkVbka8Os5cu3YP3GTejdtz9eHz8L02bNxAduvARXX3Y2CnIYP64V+PyzqfwY3l20GWs27cHFl12Ptm3bqhJeD+jX+Q6IrGiNTBHgMEIUFeBQgkouHg9h/IRZWLZsM26++WZ877t34cwzB+P5kVSmcxejLFWDVG4BNm7fiQ9+8EP43Oe/gJKKJMaMfxtDTz8T3/vOXbjysnOxZ/cOpzNjUcatxsMjRqJ79274zne/hTu++Hls2VWMka9OQEUiB2U1YcxfuAzt23fAl79wB8674BzT9Ta6pjbOjcao92swdNCJtOA5wqJS1ureqkQE1ckYxk6cbd+7/+SnPoJvfuOL6HtCF2zess4eJdjGHBzp2+1RWGiGPpqTZ/WSUHIrfnVdRg+dhJXYX1aAvT3AU1lCMgZ0Qy6rQwyvDgEOEtRppi5sRBgK5bDLc9i9OuZi7bptvBzGHZ+9HXd97UvYRtqeNmsJ8goKccsHb8S5556J73z7LnTp3J4ELWWl7PiT7Y5rWIN4zh1s0R35x6b1QylUV9dgxsx5uO+/z+C+h17A3f99Ds+NmoDV6zaRTzWDFsL24gq8PmEmXh83mb0UQa9uNNb1nECOhkGIcsB9x8AztMS3bpTicUtdnsmqUYBjEIHCP4Qw5iDz7C4ux6qVG3DTjbfg8mGnY9CAInz4wxdh4ODTMHH6XJQl00hEatBvYFcMHtwNAwb2xPIVK9GmXQ8aCFejf98iXDF8AG6+YbgxehwxTJy2GDv2VOP6a8/FgL7tMXBAF5x/wakc2c/D9l1VVOtRFBXl4/qrL8SZQ3qiQ8fWrA2ZXErfnu3lIVFZhts/+iEkS3aTrTly4Cirgsp/R2kCk6e9ixs/cBOuvPxEDBnYAh+95WKce/bJTOw+4iNB4MQ9jQUKDelyPZ/Van5t56mpe/cOsQSILyIoPEyYeEcpfs9w8GTMIYNfgwAHC3rWqwWbUiw8ZZ+HtDiPo3494mlbVICPfeRanDG4I84/uxfOIe2sWrfD4nfqWIgWhSH06FaEvDxREHMjAbm3TyzzAGwIt+MdW0ftQl7Rp4a1O6aMbNvEi78VVSlsLU5g4644tpcBW3ZWorxSbwKlUJNKYMXqzZg5exmuueYKtG/TDhPGTEV5mXbkFA+qvcWHOurRHLuPXtsWWZ3Ca84MkFNpLvqh5tUAhw6Bwj+EMF6i8CuriiOerEbnLi2Ql0uGMjYKo3efPiguLkGiOo1cjpB6duyEljkhjr5T2L59K3LzWiKal4NIDkfjsTwMGNCflnjSviO/eeNm7N5RjccefhN//8uz+H//fAFjX5mDVUs3oHhnMXk4gfad2iInPxehvDYIdxgKdBoOtLkIaD0c4aJzkM7tQArIRbigLZL5J+DS6z+DL339F+jZ5zx887t/wE23fBaxSDsKgXy0bFGEXj368K5Y86h75icRIIEUonnhwhQksWDSic4nLx41/SvBYZE0omDULIXvnlMGOGbA/tRmOfbIhn2aZGcmqGD0HFj+SCyJHD1HToUQJU0U5OejtFJvq+iTrqIHKTK9Dirj0z0Wk0ax2SCd+O44hzWBWIfN7N680ZsvbDf6Whbk4LKLTsV3v/ZB/OQbH8CPvnYNvvipy3Bi/46I5oTt5YjePdriq5/5AD75wXNx4XknYdo7czB+0lxUx5mh8rQFt27GwDrAHH/J12bQs/yANZsPRDfHL8RM71WmeOkkwDyP9+POa33kq5gUdgyVlbKsxbJamdwKxbuKUZCbixgFZyqubXNDiEUpPBMVHAHlIhGvRlVNAjVa+Ebu3LOrjB3GvHJz0KJlHuI1ZSgsiDKvOJm7Bq1aRnHm6adSOReSSSlE2btaBa1Z/H/99W7c9qHb8aGbP4SPfuTDzI45tWyNBx95DFWJBHJatsDTz4/CN779Q3z8kx/Dt7/9TRojxaipYX1TYdY9gT3FlSw/gkSihkLHv3PVjcLCHtozZC9B7Z2bdvcgZcHy5Sy9XVM+TXFCA2H+pSzYKMWfbdjLBWgyfOtMo03+ZVZ0s5m1J752ftMW0KJn9X+UCkoLw0T72rvd7d+u+FEk40rplIsZkZa1S+dOjieXDZ5bO3vtoJE+GVlL6tw5eSeZQB6NqpxQuXPhKuRFyMsRtqZ212O8zh2K0LdXBxTGEjj91P44//wz8PrYqXhn/irog1bGtyxHcZWvLd7jmRbgOqNej2vs4Jx38Ef6NtrPdh6yvAGOIjQ/hV+P8A4lMoxgB//Ec7xon7Ska9umFYqK2mHa1HlYs3EXisuAhYs3452ZszFk4IkooFIOaQ9yMnWCUlHP3waf3B+7dm7AvPkLsbukAus2bMREMmoyrk03Ejht6ED06NkCw4f3x5e+ej0++/krcdZ53dGpcyFat27hpkjpEvrIBo2Jz3/h43jw4b9ixIg/4/HHf4XK0iWoKCnGpz/9aVRVlmJPyWqcfHJfXH/t1Xjg/t/ha//3Mbzw3GNYv2GDlb90+VrMeXsh70fP6SkkODKX4BYB1dGlLM/2AtCJSXjP+VCj+ee+on+/Cj+TXlD7q1bO2XNPg67vq5wA+4MJdQ/2TrZ/Lq93as+V+SdDMJWO06dzL5KamM4GqfRoN0ft/lpSWm1Kx7ZntvQC+0vKTHhPdHEsOwfjJ4MXbgf9sD140V57ZLtpBb59cdBmRfR6nRYL85jSplnsDfKnvm4ZDrndOLtQ+d907TAk0zkY+epkbNpRwf5kr/Ciy1Ns7ZkU5FPrUWXt/ZlMs4Bap3P/T+afbdZFV3sPAY4m+NLw+ISI8lAQpklIZUyFGEqhZWEI1115EbZt2YS//Osh/OOeERjx2HPo2aMdhl1wKvJytO9YNa31EEfrEeRw1N+nd1cMv+AUPP/cK/jH35/Afx54hSPuHWQpjvLT1Th5QBfcfON1eGHkZPzznlH4+90v4ZUxU9Gjd2/kF8SQkxNDrh4FaEe/VDmSpVuR3L0OuTVbEa3ehnR8l63WT1BoFBa1RryiAhtWLsCyeVNRU74L/XsWYfuGhfjnP+7H/Q88g4cffQ7RaAKJlF6l07NajQC0IEB+CRveswklCRAJbZ3zNAO1CWFxssG4EjqmDhrnpMQpnjyhpPRRdxRM0khkOee9ZBQIoIMOv52lFqQspOQ188ORJWlem+7oU9ApjjZT4YTeyiT0idwIitpoBXgC9//3MSxcsobBUh71yGUfMLLynNLsC9nxst2+0FBcuX2igbhNiX8giF4zNKupOtvSmn46tXiY5+FohO1JHiYPGqVb3jHKnFwqen1yWpnEmdbxQoR9071rET50y3Ds3L4ZY16fhqQ+xU3+iYQ56NAjOLqUXiM23mJJllSF8qwBZ7vxZbkARzea1Wt5JDk7yto8NPAJWkwiJ7/YD1i1Uq/lvYrrLtdreTm87JjEQGHYqUNHnHDCCRzRJFBTXYFzzzwVN3/gMrRvl2+fwtVHZ3r16IzOndoizlFyXm4O+vTqidZFRSgrLcGAfn1wzVXD0KVjAQad2Ast8vPQ94ReaNWyJUp3F9NoiODySy/C8IvPQW6uapRAQV4Egwb0QiRdYc/z3OdnK+2anp3qO/jf/9FvcNXlVyEWpyGQrEbH1nk4qX8HtGuVg1NO6otkTQ0H7DUYNuwCnMU69+zeGl27tPZv3bWDCSN3r74wc9OBjYHiNTauDwojJqntZ3c8cC5+/2VDqQ6c8rgGm0ctZK3Hfs1ud4U5MgihRct8DBzQF/m5EXRo2xKDSD8hji61XXQymUKH9u3Q/4RONIDzkUv6Ld+zHQP690C7tgVUOGYRkEaZWx3rrF7/ZHl14upSL45Q79THPoKbHH9fSrvR8Xm+r7i1UIzsWNbSZLUQEgkNJtLoc0I3dO5MfvTazI2zmUaze3Tt2rbiwKIzCjkIUG9Jl7dt3QKtWhTYpjt9e3WmYSBzIIx5izdg1fpiXHzZjSZ3lKXbN8PVoaF7rr0a4FhAs/panhR+RtEckrtSpnJSOBpZ6tQ9K3vj9Vfwix/diXv+cCdO61+olvXiEsaMnpWuEar3fE3CM6ntdmmJawpOGWoXLT+ZLOuUVr7nKF2C4cpT5XJErUVP9kldLeShQLX9y3PdbGiEI+CwWJ92P5V4WK/9RfKZN5k+oa1ygXg6B+HCnvjJL+/Db3/1a6RKZrJm2gBHi6mq6VgffexHQzP63adP9EEUf4tglifSUbVZZwl11UPnblR9aKFNBG0A4503Dmq/+lAOh7q2xzZqBT09OhFte23vel1Ex1Em6TxB+so8s6dxqw8+22jUIjO2EpCmjEJER6I3O3N05vbmV2RCcZmPnXkKrQ4YJCr3T9wWsPtHdpTa+9o36sTXzwHSNDX+vrDXrSgfe/RBj9qWbWnmDgcKvlywtxxkzKv9GE8yQW/N6FXaKAcEaXul1skeLbZMJ9m2kjdsf43qH39+Gsa+tRo/+dUD6Ne3v92A3xU6cTMI7ky8F+DYg88tzQLGALUUesRQh9F1tKkynUi4kenotJWl/JrC10I4yVDbIlcM6ClZ6Sd91EbTpdofP0EFn0xVk4Er6E/oBTmkYy0pa1siksNRUpQqmfEiFKSRBBV9vIbMr3ej8zFn3hY8+uRbePy52Xj0uVl4+OlJeHXsNOwsrsHmbWWYPm8xypM0HPQMVuUznV7fsyqbEI6zLlUUGJrS5x1qRbYtJNLdSoCwrvyxb6QfcmEgYScl0dSC1Bl+xwR4X2An6yMvduRI0hQJaUKfdbbXMY0gpFCc1ykqj7apuGSM6vVNPYsOQe+CMzhL2RsvOyvBzhuE8mU+zjWOFhTLd41BnfiuavuFbrMp8RsNZWiN6U70qDAUkQEg41t3r0cpchI0jMS2t9X3lDGSCaDc0GxLmnLHjCS1dYQyiDLDY3L7U2epD9RVXlc4HMx7CXDEIOpoNrDnSBppioaPBohjJLQkzUyiUUBSKIZjZLlIioo4Dn0eV8LN5txVd1v0xmOEyjZH++uL85hcG9aYMcDRtG19y2COnOIc6lbViPF122RoPUs1oavrYmxmyThbtm7FnPlz8O6id7Fg2UIsW70CazasQ6dOrZimDNt2FTM1i6bA0PSeWfJafGejBzn6k+5xgBYDqk6SLSZs1e6eM4GttE3tBEvTeDQxuof6qXT+3nI6vpHdbqRl0pmnZjS5RCRJwnKiJEcJmgUQ2fhnjq6YVpolzfSkbf/ND2dASFm5P4OXrNYpD3myUOd6fcefpsbPnHjIDtrLeZ7sMjLXGnKeR8dMWJZrEGpNje7Ff5J1aifXjq6VxH/mIcu6OHqcaDMpVPQyytTGMgbUvsbXNBLSNAySvJZ0HcQ8rBP3gp+1sN9qBjhq0aym9A89fDLn2NK3tjWyYVj2lP6p/fWBGU8Rir+UVL9Kat+bpYeM6niSo3tNZyozu04B6Dw8qIy4CU6F2ZSd5tKUR0qLc2Jk2ZCt6tfMXjit95z9tCrYCdM0y6jQV7HI+FrIk+Yoq6ImglhedxTEcmzKP15TYlP6USp0CYUwDRNT+P59mmJnmHtm4BS7Qkk++jAHc7VoTuk7f5NgiZ33wFC7sgyzSppcUoAmwprZQE/mhJ0lhWLnHKX7fceRZ1pKhDQiGtcnkJP2/QbSDOOEw24aXxvIaEbI6TsqLGUtXvL5gnSnRwEWIaPFVIhfkFNOVqcMDYg2s5Ed3/dnx8/2C0c6fsNw3ETHf7cjHp1mV/z0WjxrMoL8KiPfIuoyw8TDDGKrWpD6KxLJsTUVQljygH+JdAyPPTsDk2Zswk9+/W/069PHlaW257/LkPl4WQvqT7sU4JhBfQ4JcBDh6yNjWPOTycSEvGACUYLShuIMM0WuIxmUjGvT+DqX4OPoX6MocZqbwdBjAE2JcrStRXihGh7ds3l71q6CTUhKoLL0aAg5zKMgJw80E5DPUVU+00aTO5CuXI9YfDPysQd5FMbu6/hKy/I0+lK5pvSl5PW9e22UQgGjcDrNImQUvIqVADHhI8cKHRCKw7iZNI1xLK8xWQc4dCB9aatWRwPsDG3PZvQrJUHaUB95RKEz5xQQoQ7iUbajxyDiAdGRXjNTWn1Vz330hflZR9f2+/7R2HjHKmQYqa3Y7saDMToNFni/1tZqM8E7Vxva4znxrpw+YKX1PwqLMRaP7AP9sclpCOi62l75K71lloFatbm27PECn0ICHAKIX6QK9ZlZE1ym1BjqcY4YjZranUs6mjGgUbUW3KRRvKccldW0zCUgeR6lYIyRKd00KEf8MgqkoNmLlpxnbnTEsXp1HCUlpW6aTot9UhGK2hxt+WML91rm6qwSueFqhJKVtDP0uVotAmRGSY7AOAKwGT4ZJ6qj+emMZBiHR2dgyLlfC+BRNsyhx2EpJIAP61rXv2r5OgYXFUhlRRLFxaWMQvogvYQ0stTL9qbmSSEerYoWRb/hqIxHma2aORLdyzGKnIi5TvdaiZ7z0VDYgXCguE3JS8iO35i0TY1fi9rmVjovrd9ePiMKxque0V3LoGxepqFzwS6yU/V+Pehju4vX3aBC8erW0aUKcCwjUPiHEMYg5BlNatq2o2IgWdhkvFpm0/NydoPxGM89zb1zVzlG/O9lbNlawjiaEmW4di6T8k6kKHDFoFT8ngJ2oyPlRwODTL106TI899xz5H09CgihvDyF6ipXji0LoHLPYfSwBHTYfZM/GWdCRaA0t2eq2qWP190YjeEayfGaq2dt2X4aPc+vnWb33YGgOMqnqU7lNyb/AAcDtb3JvjYnzUElTmJLJ6NYMH8dHnrwOe8TzaQDRjZ6VFQavGEN6e2TyLqeRnlZBe0Bb+c4KSAe1K8p0pUeUymZg1+yT2/ZjvFUhFdMdnjdeLXhtneDl6YuFLB3OtF64+I7/8GN78W1CPSaopYy1yMTNZjvXHg2fINMSaTknaxxuWpQIVNLb/FbOuYvQy2lHT0tgRdRxeqo8wDNAqKoAIcQ4pcolacW2KU5qtHq95RWwEuJ2+t1mmrjiF6CTkN1cRcVu2bqOnQsQjSWZNo4lTxH4AkyqKbzGE+jIyl8/YW0RaYUN/1S1FowpefwuXn5lMchFO8uwaiRr2PXzjIkTbiyVqFcdj7rYN/WZxrNHOTkOaaXELGqOCVuNyErwZMCTpBL8DhJYGsV6Ox1oMMGCboAhx2OBJzTIazFp1XIzQ+jTbsWpBPRDInH1pcQekRFetW6ERs50uDdtrMSz4+eZZ9gRiiPdKNpaWZoU0OOpvaGcst2Lp4Umzk7y8YB4rvTLChArl58ucMWv/71bL9F4K/3x1M38+b53WUHy5Q/dOJVe2Ti+XXN59s6ceiiUfaRrtmMpK67aP5RIsEPCnBsQn14XMHni2z+aBqyOWEfyLos/pFAK69IorQygl1lwNadcZRURKm/c8mvEVTHk9hdVoPKeA72lKSomCtQ1Lojrrz6Wts4I63FeBxtJ9O52L6zBlvoyivZdWkqbOYfjzP/8jDKq6MoZvpEqgAnnnQabrjxVjJ7PjZvKcerr0/Fhs2lqImHUVYRQekeJtS7+wn3yKCKddlVWkN5nM9a8wZ4WQt7TOFriKBFPmbuy/Eib8w/07ltmOILkgNC8bLj+uf1w7NxoOsBDhmym3yv5mffkxRPOnkgbvnQB2mg5iOeysHu8jSqSYfFpWnsKE6ivEqv4JHma9JYuWYr3np7JXbuTqAmwXAzEERzdZVbLfyw7PADxat/vf65j+y4Kt9HY+JnX28oTMgOz77WUFg2ssLNGnCOY3HzOr7bV2r/KmFe/VCp+39S8AquB/+1SDPgaUjUluGXX3sIcGyiWe20Z3C0bYSbfV4LEbICePTjNBpZmSmteR1jrFq53Hbau/bKc9DR22lPvKGReE11GqNenYIFy7dh/uINeHk0/QvX2u567dq1pmKtwYMjRmHT1gpMHP82Zs6cj/Yde+KFUa+ha6cWaNWygKOhUrwxfh5eHD0dk6YtwZr1O9CqqBVatAS2bI7jX/c8ge17qjDylclU+glUVMQxbtwEnDhwKJ56biLGTpyHLdv3oE3rXEybsRzr1hdj0ICudhsa7b82aQGWLVmOAX17U69T8LHe9l69vdurSNn2vRMAltR3LiM6IdvvICFiIXVGcdlxsiWJibXabDKOoV45+g1weFDb1mp30YHrf9l3do0G7ax35uO5F0bilFPPxrTp8/DauGkorYjh5ZenY9zEd7Bzxx707tYJNRzw3/vAk5g6ey3WrFmBU4echNYtckluylMK11O61tX762XF99FYavDTHMr4ivte4/v+7DDvjD+ZK76fnmyXFcOc7HM3c8CSjP+y41ogf2TU0xvKwbwF67FuYwmGDb8ObdsUMZ4i6cdimN/lXOsCHFsQ9zYveLTp1G3tuQ9Hst4xK/xgQQzmq0YdbclSKoQli9fhhefGIVlVjOEXnYzCggT+898nsHjpOltgt3DhGowd8yb69O6M007rxaqVY8mSlSgti6OkPIIR/5uAiZNn4pRTBuCiCwegsmw37r/vYazfUIY9ZUmMemUG1q7bgAsuGIqePdthT0kJVqxYa/U4eVAPdO/WCsMuPB39endDQUEBHvvfU9i0qxhapleZTGP6jAU0QPIQiYTsXWp7XK/HBZry53HfUAmuTfeHjDyyNm8ojR/mws2nOtRx7DUdFcFmGwIcXrDxM6NgKY7a5+rbdu7AvIVLUJ0ANm7dTgN3Es8X4rTTe+DMM4dg/MSpmMJRfSiag7POHoq+fXviysvPR+tWMc34MzfmrRGmnHI8YPcahXjOR0Nh2Xgv8bNxqOMfOjj+8+piil5O8I48uLcrdPTqxaPFVBIvKMCxDdfDzRE+PR8JeGVLOQn6IlWcglDbVV5/zcW48rKzcPttN6JV63aYPWchauLafCcXPbp1w2UXn4FrrjofLVvkUBDmIpEIo3h3FQ2Djbjhhmtx43WX4JrLzsZnPnErSveUYsGi9UggDxXU3GedcQouvfhMnDq4jy2Iqq5JIBbLQb8+XdC6dQ5OG3oiunVrh9NPPxnFxWVYumIjUuF8rFm/GVs2b8VJJw6goueI3lul64QDSeSA3K7rTYmT7a/fUfvKx0+zr+sBDh/8PvMJnGZAUgaAdnXUyDJEek/ihuuuJj2ejptvvAwnn3wSFi3fZJ+KPvHEPujcuT3OOfMUtG+jPSs0W6C8XP+6Hj5QPzeVFt5r/MamOdTx3wPqsJbKUUB959WAXpvKl4cBdtV57cQtxg1wrKP5KvyjCBKA+S1iGHJaH7RuqY10K02hnzxkEFatWoUEh0Xai6dfry4ozKmi9Kym05PNHOTFcrFz+3a0LmqJE/t1RF64DHnpBNq2DNlof+2m3SiPRxDJAbp2yEd+pAb5UX2LnOVEYrCNcbRCOppGKpJAmte7dSnCVZedj9lvr0BFRQRT35qJbh1boxeFsLG1FgGaj5US55sEOFQMrwJ81xRkP28NcPjg95U3/W6PfEhvWnynlz5p3OoVvK4dW6Jz+0Lk8Xo0VYwO7XJRXFJGA7aa1/WthhRJkvno1b2UNoxiJqGoGcd6a8UfVZpTsY2CX7fGpjja4h9csOkagPpN9fH6z2JpHtLF1i6a7hPIYYkgg97ksdk1dxrgGEag8A8hnLCiuqVQSyapcOmiUWpmKXNei/Ncr76ZXc2RdSzqVvPrFTkt5tO7+GK6SEQr6rXAz73il4qkkIhEbSpez9tT2iObqbQaV9v1pihktSe+/zGRsAljbdbDPzJvXiyB66+/BKs2bMWS1dsxesxkXHTeEBQWKHLcZvDT2kRFVoj/KpU/XXEQoRy9J/sBjhmovzynKWDRq62yZ18aXUeRE84hzVJpp0mLpEfRqI3iU1T+JK4If0XLCSoc7QFviodZyXCw7XVJa1aCyE/Ocg9w8OHzNNvbbHz1qXvF17rXb3nrDOcNcGwjUPgHEabA6jMH/RJu1TUprFi1CWUVWvdeiJ07q7B82Qr07t0L+QX5truYRTbhqddjtAUmhWIiiZYtWqK8vAIrVm/kaD6MykQIO4qrsHLVWnTu1IpGRMri6kM8eiUvkYw7Y4HWulbeapTPYFshjZQMjgT69e2O3MJCjBk7BeWVSQwe1Jv11+wCxXBEcwJJGiQ1tsf2oVD2tajfYE2FtXrgDoprIphEW+TqqbtT1jRIEzVG8BZK2hP0KihtUzMItEeEHjNphG+jeds1joltSt8i0Su/SxvgUMHnO9fWkkpyCrKFfXYtQHNDoPAPIvzpR4kqT3wZtGVlNeWgVis/9r9xeOmVOXjgv6MRr4pj+IXnITdH29WSxRhPG49Ictrq+FQVhWYSXbt0xJAhffHE06/i2Rem4uXRM3H3vx5DQV4LnHFKD46oGJflaBsPCUzNHtj2pBx9Sdnn5dNqp2CdPHEmVq3cwbgxFObnYmDfEzD6ldG45prr0KF9a5ZPcsjJoZGhTVJYH55qxz1JATNkDjKUpcvW1d4/azr81g7ce3eNRW2aDJ1LoSdpKOpTzGHSDuLU8nH7lroWgiXTmgVw+z0k2M2x/BzalVWYMGEKtmzdzQyYkznmRude8WQ2AQ4BsnlNTg0tZa9+cwsm6z+vtz72XIBjG+r5AIJRel1Cf99gfsYottFNGmeefQo6d2mFTRsXomfXGL7y+RvRp2cR8mPAhWf3R99ebW2UpFF2UYsoLjirH9q3y0N+QRy33Hwhbr7+IpQUb8Ta9Ssw+KROuPOLt6JX947o1DqEW28YjDat8u075DGW27NzC5xzxokoyEmgU4cifOzD16Cmaiu27liLhKZaWbMTB56AE3q2wWXDhtrHd2wuPxWx9DRB3PSrtL4JYV0/WmGdF7j35RoLxRWRypEueKqp+x7d22PYhWcgPzdli0QvGXY6DVk9boLRVv9+nXDG0C7IiSXRvn0RLr3odGzfugHFxbuh77a7SXzlyHxtSln5BzgssKZ3fSknvwXyX0adOfr9AU2AYxfH/dfy3M2L2LVwhT6NLhoD4w7F1+haX8t7GT/X1/L+qK/lteBlsokxSQSVVTn49Z/+i6IOvfHFT1+GlnksL6l0SfdxvFSSOl4et8Oezb8znT5YF45pJKU/lpLKZX6aBUghh0I2xJGUtuzV5jqCtsrUjIAVrB33yKWaOdBz0kQyyiBaFtCCKQ7AQvl4bcIczH17Gr7/rS8jJ1qlm2FKpdX8v+pAoavP9nL0pmuW79EC1cdJJ514x6Oofs0arp3ti4W0UDVNn6LSDuu5PelanKRHSfZ1xbDolyGRqNGiIqeSmsFqyevViEVE2TUMJu1Kz1vOXj82lhcD7Af74g2GGw+JzzUnk4MRz8/CxGnr8bNfPYDe+lqei+VSUuaYdFASnQc4JnH8mtGkWrflJI/8ERFr8VxTqNmIXxzhQapVyS0vE1Y8pwLWZ2vDiUrEKOBywpVUoCUcOTNMrW8PNzX9zvNIDf2ewmb6sBbNSRBSSEYZHglX81iBvGSVTZ1q2j9m91BN4VtNQyBhVjgTMV/mF6riPTJPxo3EqumvYLYprFizGQ8+/AzGjpmEc04/lSP6Ko6yauy5fUKGitVJ1eePGsi7F+eONrh62a+qGrj35BoHRRTR6ugnJr1QsUdEjzQmzZEWI5GkjeyjjBKlOomlRLv6PDPIAynSXAlH+6TPEPmB4XoMZVPJRyOJHfPweZfta/3n96FAqcV2z+ypQL+xu+Lz38WmLLKwAMc61J9HBE5EHyFIuBihsxaOul1YZsT43mD3lHVbKkNGQIzC7/TT+uHkE7sgl1IwooV5KtdG8jyKm7TqziwAnbMe+lBOpnc0WyDDwV3yv6evxVGKHzarQ7MAGk15ZodJUEV2z+U0stKzUfviHkfwJbs24MIzB+C8s05mMfosrotnH9uR0lfZCtDo3qwiP+AohAw21c+ElS+weEpPnT4O8D7h6K3WObrwN2xxYd7BvArnyN++HUH6JlnZa3gaLYp+SVtpOflrEwU46BDfyvltXLedJaUEhToZ4rpK9peDJFvQN80BPqcefhxB+nFqmH9UmNXV1SgpKUFNjV4/438DSt9nEUf0vvPh1Lol9oKdgvHyoV9r3m+47hJcOvx0joQYO0KFT+Xu2CjJKO5ztCb3rHyvDCleHe3UD1M5POqhmoSoJ3ClzHU/WhGt9/6tfJ4rT22Hqk+Sunqm0LtnF3z7G1/Eh2+5HEVF+lKeygnb83+zHXwjROVpvlblKV8dM/Cu+87iKK4Xv5HwcxD2r5j9mC6OE0aeXz9mCdHv1TPTB36SwO3fNRrZCdzR+MlojbTuG5oyAswQ8EaO5hiu65q14kHJ1U1+btm+AAcLamivseu5TGvrsvvxwmp5Xb+SDhnlz6NL7VyAYwuHTeHbs2SPiMTtds4/jSiNqHiU2ws+odWDn9bSZ6dT/AOkqVUIGnAk8etf/RpTpkw2yq6Tl+DlZQRvfilwxqFi08jElCgvOmXqID9Vp/n1bFJT81qsFEEFk2k1LK9ZG0hZu3bQKnqlsuL1Y/E0GmI8jfztdT2v3JRb+ZyEnslHkU6kNY6yr/KFqajT3lSAQpGOMDumVx3NKQ/WJYdlaSMeezYnw4F50YiIsU6m6ym8ZXDotTy3hoDxWG3Fdu2uKGpHiQNBiZS3/Lp33aMzSNgACuQ1u0gd4EZ8WqAV0n2bcuC/l0zOZaMTpdd13g8NEdVBzj+32Qi1E2umdP5ngu02s+rifgO3L9c0uBSisBT5Rzxjn1Omc/yjvvD62iCqEa3RqPb6yT6ty6P6XnTg+tXrX/35tBLgIEBt6drT5x9xjd/CrqltXtD6VH77job5PNCjLrWrXh4Bjj1Qkh4eiIk9irKDHUVUHuHYJc9vyPY3BRkKrQsrn//2CVf75x+VohTEosWLsWPHTipnsQGv2ShFHi+eR/yC1dE7saIsP6dgFE9c4eK4SOGIr9DC9pqSspbSNphC1JSnBfKPgtEMCe+aKWy7RMc4Fs5/KrmwXsWzT4/yXApR70MntYBKCk+fIvXqxGtWvqCD0qsSmlrVYkH7Ip53QQmsDXTuO4KX9OOMEmXg8ggrb1PmjOeXoTzM0a/7slulItDRawdf6Ft70WNGg8XnNVPuqrPOFYkXlETnqrf1jfpOZfMCy9I0vqW3wtQ2Xt28/AMcCqjBXXtbO9OwtD0e0vr2Ao1T62svnvWn9paQ0erCTGGo+1yA11eC8uNByp8H/3qAgwDxktdnGVhb659/5CWLYlAc3whwLsCxD4nSwwMSUq3arPX7R2PubO72/dlhjUUDaXwdpOJq6+GOUrhulJIlgXS0NFIoTvgIVkfvhGrFeSwf7z4YISkF5hdhYDwGKdg2wqGz3ffiHOVoqEzpp3ylPMP+amaloU7WNCn0CEB1YDo989QQXN8ht2f3UtxKy1HzihXr8M47i6jEpZgF5c3yPENGsw0mfOVnOrWDzpwRxDrIAFAlwzm0H3J5H6qPMzpkGKVlHKgsy8EDzxMJ3S/DPIVs5fBCWu/zC0znlIKrjwwNzTJoRXcyod3YrABGpFNePNXrCq4+zINpkvTbqM9rK7VninHt+/06548zbpiH7pF+G6V4LsBBRqZNHU2sXrUeY8dOQSJOutVslNGl+i1Bb8LZkTIK2H/q7ppEyOhGK/tt0yl1IzOyrV21tkX0o0AWY90b4CDDb1X1o+e8ILOfjdcChd/c4GuswwejIykveVyQiMmEsztlsKaMvTgMbEhgm7JiuKWjsvDjZNLaWS3cKNLl6aak5ZfypYL2FJRVgM6UrOCVbdt9KohxfbjpeHokyOjCvKbdxax8i8C4ElwqVyG8rjThcIx1jlKH8+hefudlTeWrYDo9m2c8S0elLq+Va+VblZzHm67XNryKlIinMOfd5Xj11UkM1yYnrI+Xv43wNa2vvClQVTXVV6v/XX66zkNELwqmUVqZxJtvzUZxSbVdVfnWZ2pr5iUzQfHt1atQCpEYc7F6ss6afdBSbMIeH1jGbAeFafrdU+AKVtlqw7AWKCquZjVspKhznrLd3ZsKCWirVtkEtpI7KeNE57mIsi2lL6wY3ac1mEtveVideR7gIMIam/8asattw1i7fjPGjBlvazyNAdQN6jdejsg4NQOVJ6kIKipCmPX2CpSW6K0U12cyCDQrJeoSfRqN+n5mFeD9QC1IJ96pDwtTZ7lHbFLxtWo+QHODevrwIZuOfH92mAeyuSlZKU/B/TYeTZHvimoje0LP81VYw+V5dWGCOtctA8ox5qGPfpiCUbgUmDn5o9RRuUiEC6j68lGTiiHOUXhaU5/uxXuGx5DQ18Y09UnmS9EwiOucadKhfKbNQyqah3RM++zLsNDAmSXZDmb5TFfAfFtwgJxDfal8OEpnntq9XCaI9KBmD1Jaj0/FmmClE0zr6qA3+BnOkX2SbseeGrw6dhZ27mF4WrsAuhkD9YhBBypvbeOrrVXT4UKWy/ujoZEOFbGMFkyXQ1uEypvlJlm4hHnK7jEf8XQB65BHGcProRjT5KBG98zGTUdYf96r2icJzTKojoW0nXifMgbUxryPtGYAlNb2IOC9arqY3ecbimYs+vUNcJDhmEBNrN0c1SenDT0NX/jS5xHLJx2IhtkvyTD7TrNFok/SkXhEs0frN+zG2ImLUVHN/jOjlVmIlHndHtPoMZEINsBBhEmlLDiOruURGfTuTBLM/N55gOaDyM9++rOfe/4jBilJU+482mjPC9P0nj2LNcLcD3g5E8ey2TuFFIBC3WjPXZU3Hk/g6aefxtChQzFo0KC6aelx8V16I36dWpDqRQXDHzHGypUrMHHsy7j+qnPRuZ32qfNA4VVTE8bbHH3vLElg3bqNmDBhMrZs3Yl27ToiL4dKMBHHpBkLUFqewMyZs7B46RJ06NId1TQMFixYhQlvTsXCpStoN+ShVes2iEa0z30E5ZVpTJk6FxMnTeNoPI4tO5MoLd2NYcPOx7q16zB/wVJ06dqVIyu9sx/BqlXrsXjZOnTo1AlhfYVvTxpvTZ2ON8ZNwKZtu9GiqC1y81vh5dETMeqVySgpq0GXDoXo0L4N78exvrWObi6kjX8UGsOy1cWYO28JKquTmDRpNt55dxkiuUrXkjo4xbqGsHHLHtZzJqZOn40lK7YgEs1FUVEB5XoO3p6zCMvXbMOe0nLWZRLWrtuKVm062bfVp0ydgcmT55AOGL9ta0SjMYansGL1ZoybMAUzZ8+zOrRvz3uyGQ0NL6XwNZOhGQxX80x/BDgIUGvKuOXInG2cZP9u2bYTS1csR8/evbFs1Wq8u2A5DbN8TJw4GTPeXmhGaMvWLZGoSuGpZ17FhCnLUVG2HQP690BBHpW7x3fWV1L24jtHcgEOJjKM4Dx6NCikaKTNXbQBq9fvxiWX3oDWbYt01Zw4yPUNfzPp/asBjiUcMYVvijSLWuyVHgXZ9Lm7tm3bNuwu3o2S0hKUlpVi9+492LNnD5VaKfaUOL85+vVqnfwle0qw2w+v7xhPaUsZV66E/uJdu/DSSy/hhBNOQNcuXV1aXWd5JSUsZ/duF8Y6lDG8jMcSnutb9CUl5RZX8RYtXIDpU8biuivORac2mrb3bowjVyn8h0eMxoujp2Pb1k0My8Gs2UsxY/pcnDTwRA50U/jj3c/jnbkrEaFhUV6xB9179seTz46zzXHy81tj2/Y9GPXaDBpBMfTt2ZFKLw933zsCM99egRYt22D12u14Y8IctCnKwRWXDsPc2QupuMdi+CWXIjeqtQJ5GP3qVEyZsQznnHkmqioS+Nt9L2DpkrUobNEWC5ZvwIwZcymAB2P1mvVYuGgZTuh1Ak7s3xWdOlDhp2U0OMNMxo/WD8iISHMUPnHqKvz1r/ejopzj9FgOFi7fiNcnvsP0ndCxfQe8SwPgD39/FAmO0vUltRWrd+I1KvZuvXqgU8d2GPG/1zHi6TlUAFU2TT9j1iJMe2c5423Frl27sXlrJV4d8yZ69uyBtu3aYvr0d/Hwo2NQXFpJYysPb01fgt3sgz59e9EYkpKnptAcsUG05JRJgIOErNG3ptw1tS9D7smnX8SlV1yDN2mAPj5iDEfye2wEv2FbBUa9+ga6d+uCtq3a2DqT1Zt2o3uXVjjt1AEozJfx4AwzwWZn+B/02cGGeME7GsTD7vmLZsvepcJfs74Ywy+7Dq3btGG4+CZQ+M0JR2xrXV956F8C2bbWtKNG9VrZHsJPfvJjLFy40OJocU9mFX1G4NRW3fKToBBqgzPQVK+gRwXZ0DT+9OnTqUx6UiB1p/KNWJjKY66ZMp0NIkVnpxR0WnmuZ15JXaAi34BdW5fg8ft/jFP7F8All3IMoaoyit/+9RFs2F6NL3z6GvTs1REbNm7Ff/79DK645BwMv3gwvvvLh9G6VUt89bM3oRWV9jIqu8efGY9brroAQ08ZgJpEDSbNWI6XR76In33/C9hREsLf/3k3vvS5T2DQoH7Ysasc9zzwHArCFfjDb36ONydMxitvvI5f/er7aJFTwhsoxBNPvYbZCzfg+9/+IiaOH4txby3G5z71AfTq0QZbd+zBW29NwUUXXIREIoR/3vMgvvSlL2Fgn1ZokatHHXqNKrvt1J66yTz879UF+Pd99+GH3/4yBg/pja27anDPvf/DqQPb4TOf+ggF/GzMW7wKV19xBYpaFGDnnhD+9s9/4fwLzsCHbrgEf/3nI5g+bw9+9p2PoFf39hzVz8H3f3EPfvzDr+DS8/qiKpGPf/zjPgwZPBjXXHMp/vznv7KvBuDmGy9BQYGbIRj96mjW99M4aUB7jvc1ulf9HI2p2m6GJ8DBgxqVh7BWruRg5OjxeOq5V2j4/R1jXnsVDz36Ar77nbtw2sldUJmO4v/d+yB6d++DT9x6NRYvXYNHn52Or37+Sgzo3ZJGoD6hK14Kefzl9VQDfBzg/UFyzI5mVFGehbVqJ2yPBB99bhomvLUaP//Nfeh9Ql92g2bMtK7CGdGUzJn0QrC+4thDral+mOFb8YIjGvcrhesEdMqm2YcPvwQXDx+OYcMuxsUXX8zjMHMXm1PYcCrM4ea3ozkXN9sNZx5ydp1x/XwuvPBCdOAodDCVyUXDLjKn+FaeF6eOu4jlKs/hF+OSS4bjEuXN8NNOOQWxWNQZLnoO6SlHGxHzGItFcNYZp+DUwX3QsW0UpwzphiFMs3jJSlRV1TB6CgNP7I2uHPW0a9sKq1evRps27XDOWYMsfrdOebh02BnIiYaxbsMumzbv2asnTj+lKzq0jaBvn7Y495wBaNkiZowcitJY0TN2raLSinh9lxwcpTM8Tq59e+67OOnEXnSd0bYoQcFbhNspjPud0BmtCmOIUggXFkaRn0umt8WHekBO48cTFN7MuTeSTqFN2xYYMKAb2rYNU2m35uitLTZu3MKoYQw9/VR84vYPolXLHI7YtzN8DSrKy1FdlWI5qm8Knbq0wUkDu6B9mxBO6NUWlRXAiQPYHu1y0KNLC3Tp2h67SuLYsLmcCmM9uvfohliYd1Rdho4dixCPp7FkyRoTT1Y3HalEzIhk/oFkOthg56tNxas6aJ1HJEa/28CpffsWOH1oP3RuH0HPrgWkq+7Ytr3SZvDy8mN0uaSvCKIx0hXDbA5GGYm2BO/QvHE03KSTT7VN74zlgF2aJw6rwrcFVfsjcl6SgDbmJ265+Rbceef/mfvanXfirq/dha/f9XUev4av+Y7hd37tTvPfKf//MW72dc/93/991a5Zfjy/804X/uUvf5mKsxdHjtfgm9/8Ju666y6Xhnl9lWn8spS3hd/l/Mrvq3d+GXd+k2HfuAs33XQzCvP0tToqSL1aZgqH96FbCUfMGGjRIo/3qG1sgdxQ1IReWUWp3bc+dFNYUEgFqLUBESrEauTGCqjU3GdFNfNWkB9BYct8lFenUVJWhVYtWiIvkkQ4qeVwMRQVtUIkqoV5bGXmEzFlKiud6bV4KsUjz1McwWtfn0IKXm21q412tC5AirK6KmlvLUgwSwKkaCQgRKdnfboXza7I2bM/pnFzuohFI8iJscyEthJm3q1ydRUJGhf6jv/v/vI4vvWj+/Hnf72IcZPmobRCeYom3Ot2thNgguUmqhhcYTMkufaKIuvIWkRCcSSTFUxXiZXrSvHYU6/ge7/4F77/y/vwh38+jlVrt6GytAKxhNpPdWfpJsGkghgib4CDCm2Uo6bW6vsIW9m96qnV+CKLEHLYf3obJEJSyY3moKKyRqlIPmlUJ2jkanSpmaP/z953AGhVnGs/+9XtjWVh6b1XEbtYwBq7xt5iSTflJrl/kpvE9JjeNGosICIooKiAFClKk957bwtbgGX77tf2f553zreg0USjJvHefXfnO+fMmfLOzDtvmZkzw1gSMbYmgCmp2YxTqBnlLLf/beBo819bOq9C3waqeSfgzVFBl9LsMOPvO4O3wCcayFb/deAZvScgSWW62D1JL+E+mWt+wWtSAfgwIEWiOS97dnfyT67SN0hmreB8d7J7G/DROoXrGXZjnwnyVlMSDoxt0aKOoK6xEYcPH0U0EaAQDKCyugH79u+l5dqGykCQDNFn3UzatUYJ2hQWoLqqAhXVNXzWivUQDpVU4dDhI8jNT0fnzm2xe/ceVFRqRX8qIlQYDhw4jtq6RhuJS/HHUF3bgIaI3meQwQZw8FA56zeOAK38/FZ5KD5YTibMPP2ZqKwCxo2filVrtjTL9BQtoFS5k/VjdaAS6VtpFprlFIOWX0LL86SVMKwsvICsauJdXZPApMmzEG2sx603XoG777oW1113GS3AVohGyOCp+CifoOIyea3U16eL9qh6TURMKRAN+Cn8Cwuy0btnPkaOPAufu+9Wc3ffdhOuuPxi9OvXx9IwzUWKhO1WSHhn27XARwBsHNKA+qv1AfMSXejrEZgCaO3AqrcpMlNA2YrSBhhXFKX9IqgKMIx2XvRozOjLkrb293QKD3R3snsnvPP9u7mT4d3evZvfxwn/ijyS4FWo1XASVO/ku6pwz9v4L/uM/enWebfA/wJI9rJ/CXgk5D05SD6f/EbXk++bHz4UnJyq7k7k7DYGEeMSs3FUb+9N6vFfjEodQILD+kIyJsGC68dpyuZ5koAx4ZgSRwMF/uw5C/D6/CXYua8c02a8SYG9HWeecSrC4RAFXNSGqI0f0qru178nhfcxvDJ9JrbtOYz1W/ZizLOTkZ2Th44d8zBsaC80NjZg+uxl2Lm3BEtXrMMb85cznxgZbiPyC9Jx9NhRvD5vMbbtLqNVvRzrNm6meJbAj+O888/Cnr0HMXfeW4x/FG8u2oglyzYwXiGZcxPq62qwY8dOVFHhEAPXKIHKJQNBXyaYFwsb1RIQ1puUFPnFvHryR2OMQXsv7kNx8RH4Eg3o2C4T2RlRbN20Atu2bkJtTSOaqDRo+sYP3hM3sxETVBiYVoBmvmSCGJCfWoysyKLCbJx+am8cLd2NnPQmdCjMRN3xUmzZtAqhMNtSTaE6FLquMgnWSC3wkYGrT6N3CXmb6pFlr3ZinbOtNIWkXR1EM8k1N35a9NqIJ0R6jzbWUkEtQ10tX2jkiWFM6BgVvUd7Ke23gWHw0Y0C/I31+6+Ck+n0ne6jgvdKm21j5Sb/kmLPPiMe6Iwgtp2FsbfeXQt8ksH1xH8hiJjEwG14/yR3MiTDJOEE2b0HMGgyjb+xxD1o3qRHfwpzUjA969F2fCMkLX4JIsNP/ibY5MsOYTzJJXDyr8PBK09ySJlhJazUYdq0K8LW7fvx698+idVr9+POO27GwP7daQ0FkJcZQlpI8WkNMW7Hdvm45cZLUFp6DA/99gn87i/jkZGZjm9943NoV5iBbh2y8ZUv3oX9B/fgoYcexfRpi9CzRye0L2rFRm1A186t8OlPX4o5r8/Eb375JLZs3oVLLh6J7CwJ03oMHtAD115/MRYuWYnvPfgHKiLLcP2NV6F7z9ZolZ+O4UNPxbgxL2De3IVk0sKfElT1YSVRmazG7AuDrLQgWmXn0EoPsI5ltTUhI0tztDHk5ERx111Xoqa2Ab986DGMGT0VNVUNOO/sM5iijkaNISM9SOGt9NxxvppeKMgVcSYQ08YsrMeMND8y0xPITI3jzluuRZv8XDw1eiIe/MkfsXLdBlx19UXo0bOdUyAMt5Pc32Hk1mJekGbnXr0rfCTh6d4LPmh4wccd/u1gGJqzeGYCJhBKDSI3K51tFqcCG0BOdioFPN+p/UhxqalhpKerbRIoaJ2NdkVpePSRv2LDhl0kKw3tMxjbSn1Oabt+TGdKt8emvHf6s2ZVOPqYs/AOr7/vTgbPz/q5aNtdT4R9e3jjBZ47OYyLk4QkRrrwKqXTFE+VzXmbv8Hb03fw9rSbQXGa4xHs2bv/h5DE0ZufZ8NpLNKOxPWMGiFnYbx8TJXyynUCC77zCMa+pGqBTxz8y1fpk6y8OwdO1L4dkmHe7d1HAslkmU1dfR1uvPFG3H3X3bjhhhvsnTEPvnNKh5jKO/A4KX7ydu6safjhd7+Ah3/9FQzsmUWlQZ2nCarehpgPP/zFU8gp6IlrLzuVAu8oMrNy0Kl9K6TTKk2JRbFr/2Hk5WYjPydsXwg0+fS9uY8CvwKHS4/SaPKjXdvWaFOQRUZaSx4SooXfhEOHj6GsrALZ2XnIyM6kEG1A+3atiHsjauoS2LPnMBrrY2jbphWystPsk8IO7QvZz1NQ3dCEgwdLUHGsEvn5eejcsRBpYQpzlrvsCC2wg6Vo0yaTzLk181M9iCVasZmPfgnEs+xII8rKS9Gje0cEQ7TrYkBZyVHEovXo2KUjahsacPjgcRw7Vk2lJRNt2rZCNBqhlRdBh44FKC4mjo0p6NEt34RETU0Um7fsQ5++vRBOjSHgCzNMGeszhKK2ecQlBUeP1aKk5Aiqa2rRqnU+y9SKQsVt05qINzp8m7QLoZBMYn3ikoT34luSY+8GHzi8ft4lzr8rvODdyvD3wv8tsId6aSiePuk6erwO5eUV6NSpC44fr8Cxo6Xo3asbQn7SjC+VNFyBhsYEOhRlkWZIdyWVKCs+hJ5dO6FVXroJRbelbpT9L8AiScgzE/VFlVLvvH5p/MH8Xf6u/Hqnh38CJOy8W4FTHnRD97YknQB04IXhVQpAMgoLQqdIdCboPdCwmLzlJdesWPCXlfm3CksSvAi6GPCm+fXJ4QTNgd4BLB/rz+Ho1Suvip3iNbxWFo19cTneWLof3//JX9Cze3dWOfFif7JeryjaZMtCu1T+Nv8W+E+Hf9tnef8pUFdXh1tvuw23334brr/+es9XHZDk7DEQE/jWWQhebYlFyMtpuk2YO3saHvzO5ynwv0qBn23DlwogFqatan/2m9HIK+yFB+6+CKnhqPUYDVFrURMSNgNu4SXMjIHoj9q3YwuOoWg5jf41N20auC+AREyduYlKAn3UeWNklQHtYEaryYvt+I7LRxq9Wlz79gt1DcULtIIgqfkr6IlJ9BCFc4LpawtbndKnOAkEGcyYBRlXnMqFX+sWGF9pylLQ4i13sE4T4vEo3yfnaVNotcuK573mCiwvRtKoiu6tznkfYFrUHFQ2LWhU+iYQVFYL7404sDApNl+scPq8yyXhl9BIaBc41YHawjLiO2vNZpDv2zw88Pjg38C7hqfnuyRh8JGkT3iv8AKV+Z3wUYZ/JyioaFJto2UeWnchxU8bVeqzV51/EKCg19kLdha+/IzoRF2OHrSW1E9aNFT4Tm2mNHWUtBZqGg0I1NYmHNWGjkZkiyfBLFaFYUzrN5ag/bx/YDyl+LZYLqETIAS9Pup+lJ+C8Wr9yt0L7yT9N1nH0wv+Jzz6Jth7FY+VrjoSpGjHQstDiXpXRTR3MpzslwwneLewyXe88/bRcPWaDEtnUfT9ThBjJi/H/KX78ODPH0XPLt1YXI8HGS9QsBaB/0kH127/R0HdXPOJ3/nOt+3zPOsQRsP80b9Hz7ro3lzyWR06KRQZL6G4XnzrFsnIhEAggMy0VGSHAwiTEfrJ8AJayJQiJkZHZiYB5Q+GGU3DbkzX9pyntaN02PEkkF2vc0JZewBIYGqveduhlkzX1xQ2YS9rSMJY6VgDi6koG+YhQWkpKTw1eOHhV17GdOkYL87urz+KacxZuB5f/MavcN8Dv8ZnHvgd7v/K7/HZB36L+7/6e9z/wC/x+JipiDalMq6ErhOmZl3bo5iZ6oH5SiirrpiXXwJC3jZ1whvVmzE+OjFPgUklDTvqSj/WU4pXV7IQlbaOW23yRZh3xJ7FnJKrjCVgEmojJaUSy8Ly8DsZzFfJKeD7gJPDNzv36l3hw6RvyL8P+LjDvxPUJu4YYrapp9T5WP8kX15J26RJE3ikP1PSEhEG02bOaicpuozPdk4kD49yFGlp2gI+u3q1ajjyWfRlNEFoxlv0SlWZ+dgUoflQACuTv3HCUytD9D4J3jvm5dYZiEalJAaItxPocdERb0RJLl2Fk1DnvRIyctUaBCkpiqdn5UEFVft0KJz6qnm7+M34MazRrFf+ZNouHW2hLXzpWHY74lppMlyyrA68tP4GFOJkdzKc/Ky+5WrNeTs8xAuSYFi9M4kW+ETC/1kLX13GaFo/pHFjYhq+Svp5Yd4GfJSPWTEmQcnoTNABr9PC/5GG9B96AEN6a1vKiAk91a467t4DRymYM9ClKJN5UcAa11VWEvDChV3O9TV5kvnZS+VgToFlSahj2uZBxhTpbaeV6EZ+YhCO0abIgjamJDylPCTDeGUScmIiEvb0a3ISmnH53pKmrRX34dDhGmzdvpeMj4xJVr7SEB6KSkHbtjAHfXt3sgWHDmUJXl4TEtAMRFyVo36bLTAXmfWisvNRzy5TS1vvJEiS9W+ChWFhgl0eCqsbrcQXs9LQvZ5V14wjR18NDSsDvXH4KIQL925gVeRBspo+SrAkvTzeT/ofd3hBsswfqLwWmBGt3ZiGRomYkL62MGuXoCkj5y/FQH5yjOMphu6zToVRWgxjyh/BknYCx0PNu+cL5UtPtXFSETTL1fqHE6Ty118SkoJLHw5aZOu3Dkf37Dn+i8RO+CmeR4FSJqWsGB5MR8KdgY3WxTMURGc7UKk0erT6kUXt4iuWKTNKV3hbRnyjbCzPJD3Tj3kIZYunIF4UvXVx9a88vADvCSe/U5rql4rk1bNSVP/XSCQhgTAt/BWYt3QvfvDzx2jhd2V1J3F29SXzIZmqS+Xv5d8C/4mQbP3/c5AU8O54TmnoFOJJYeOBYx3enzqL+osHzbfejTqUGJLJUCkE1kloxbPjB8gsunfMRed2YQZXB2MkMkjLznyUJy0g619SJpy/hLIYnSxmUwDkZ46g/IxZipExIi17s0I89G2o0Poy3yldU9Fdys4i0j2dISwLwr2zbHQlfn6m36koB6NGDMTIc3rh4nO745IR3XHxiB4YxftRI/pgYL92CPmkUEjxYBpMwIx1G8rVoTZKj4iwDMbzLB8dj8pS0yMhpzAWTgFUbj7w1kPF+SuyKsjC8scqj+2iqQJjwK4emttL0ZSnK5B3dffvCZbXSddPGPyD0n2E4HJyNO+erX5FSxoGNkEhQU9Ha19Kn7UhnYSV6MTogj9KQyNlsqGNNsw5OrYgdPZr/UlPTIt5KTvXN+zRw0hRHX07OnMHPMVMKRYkQ4l83NHMitycF1/bgk/RmSnAUjwczYn8rCxKQoGZtvYTcCMMUdJ8lEUn7ZMOU/RZqcJaGIpJOikmTrnWVfnyLTNUeE3N6UjthH1GSpolT/IFAy591Qvp2BkYKpOiOpzsx8qph3e6k+FEuU/AyX7ePSvCFKtk/KS35/SYdC3wyQT1wv+b0EzTTtCLUajj2/Cd594JYmo2xy4JJWFDZuCs0/fqBMkew45EBuP4HjuoGICGqNWJPQbnrFgGYNIpSSvBhkOFlNLQp2tOx7ZuqXieZeVcALFYGI2RJkQpTDXCkNTe7UQ8Y2R88BiZWRwmacWwiJsYtSwUqw+Vn37GqBptJX44LQi/mK43tC6eqEEE0/mZdNJKt6kEL5wQN+VCeKoQVqcqZ5DMNoD6BsYhPoa+jUQoLSWmkQpdLQXei0nyvW6NAWvIXnjqnn56r/piBP0pDfNmfmqrpJX3j4AxLRldFcNrjvcFzeFPdu5VM9DLpf8+E/2g4QUfR/iTyyP6cNJPbS0MeasfEzyyhHVlWxld898iJQWn11+MBgOkDT5riknpWPvLOYFoc/mWDoWjRnbsagRgubghddf+yiLOR6kN9se0JCDlL4tcJ/olKFhra2OIKAs+C2f1J+VrljhptFlpV1r8aYgqReZhNEvFUsdO+8KoJ4pu3YKrgyZNAVDprI/EUNeQgtp6vWf4gKboRIvqR0pbiBoCpH8fahu0H4cfNXWMDx24pZGqIPtwDA2NWo+iumG2Nmriyqarc/IjWBu8070T3i2MnGsTJWdrIZimrrIN9NayOQmSsVrgkwui5v+7IIEgQvcYl0C3SddM4XInkfrJ4ZN9wikISX/1GDE1Phtj4K1WNxmDkXN5euLJLUjjnUtLIw+Ma/35pPQEjKM7O5deElfpSrBSMGtzkwVLVuH5ia/CH0inf/K9sUfL04FWA2heMJm2B3okblJiYhTGWqXfqI/gVVYxY1lDSkPJKKzVgax5+TEjE/iOMZmBJMZpw63e6ITqg0La5iTJ1F6cMgNTp7/JLPV9vcrDkB7DtUy0AE/MOMnYLF/Gt3JrZEaLCKUYJPOlY3hLg4EtPd4JV2svc/J4n5AMy6ul84/g3dL+IPl9AkAkY0735rwC6qL6lWDi1RQsozfRntqE9KPXEuCSYE7zZXz1AyUgocsbUwYYT7fyJm2pFe3eEbM511sEDguXn964P7e+QEKUeTCgz+9HSXklvvXdH2O/tntmXvrqBSFt+qOUmJ4JPpeqRgQOlx/FtBlvoLqmxsLEqVBHE+lYs6kUT4+bh4pqlYuC28gzDWvX7cNfn5qG3/35afz50XGYNnMNqmulrjq6d1MBtOTjPioFfvbVDXjsiRcYdgz++MgYvPjqIhw53sgi++zrmHlvLkV1PeOrLMTVFAyBd3F4/z2XBHd/oibfJYzqQ87+XE0b8CHZ3ifDSTFb4BMGzW37fx48qk6SvSP9k0GMxQvGV8n3NjKgZxN4J+Lo23uzDKyje/6esDKZJMEnS8NjNLJ0ZL9LftrmMT6n7SuMCUtZvTZUqGfh4YlCWvFiK5o8OFxaid17S/g+lemIuci69qxfY6aMKwNDglfpK22laVeHWwrxqiIze3namzh8pIEpKz/hLItJadAZ2TgG4g49IXMV0owf51XWtypKQlfCPsVPxkrBbmVmfUiMZ+cXIie/Pf29NImD1aUqQCCcKSjcIUZ0qiddpQwpiAVjPhIyLKdW9JtiQoxtdMSwUwj9CuSXvP+AoOJ47j3B8PnfDxLS+tPITVKwS9m0drF2JA2LllVZ5sd2kOOtHV8s4jeL1aWmofBm+mxuZwvsnEcbOqRJU0TqICmiaTmjWVnGASrNQTqGY9K2dkM7+NE/RtqIEUdfKB0du/ZBMJzGJLz8jE5Jv3SyrqUKqzwx0vrKtRtQ15iCtPRUG26vaYhjyYrt+P3Dk/HanK3uLH/G0chBQ4MPk1+ch6MVQVww6lNoXdQN02etxfpN+xiGuFj/1lVKSAjbd5fhqWdeQkZWAUZcOBKde/S2g7EWLdvAvhGw0y937y3FyjVb3T4UjOuoWSBCk6N/s9D/+2B02xwsGV91wEvSn1clZ4Jfrz2wkPQ/yeskSEZugU8KkGpa4D3B6xcnqP0E2Yvp2VW8i07Mwgks52fvFYSMRcN9ETKgSFMmO3AW6uNpqI8FeU+hLAbJYPVRPyKJkG2BG6VwlPCPM73GeAi1jSHUR8JoYJiEWcoa4mSeFOz10TQyn1Q08H2M8ZW3bfSTCCMaDyJqq30pZHltZPxGWhgxRdYwe0oa/bMYN51pK2wIDXxfTktj1brdqKyRBSPGwqs6vTZFN4rRj0Qp/+xdiGULIRYT/hnMJ405ZJAna0iUeTak0J9p0xKqJH/XXOaoC87EiHNPoQ4iPCRAUhCJBFHfQLwTrCfi3+QLM38JjVSWJYzahlTU1WtrYio0Gv40ZUpKkme98F74OOaoZ/kzOzF43bifDw5v55jvChaCyZ/MLP93guoyOfJCoctn0WqUzahPuyKkuQhpqSGaSnpIZVNT0PnTSaN+E5IJ2xtB9KnRbc1dU6AynmhbNBJHNuobwwyrfsB0KejromHUkL5Fx1bBjKyh8gTjN0YySL+iCyAa4zspGcQnQtRiMebD/hOPhJCbnYEvf+kOtG9TSIWB/SjBuIkgavmuLpLGvscy0ZLWts4R0timddswoF8vpIaJM8NPnvw6/vtbv0K0MYr8rCDFNkstVFgW7QlRXnYY11x1Bs46rTuuv+Y89O7ZHsuWrLT8TS5LOREdskxbt+1A27YFuOmaC3DuaT1wzRVnY/iw3ti0fjMrJYi83CwM7D8YU16cgcqKBhbXKc6iQzdFxcqTcqv0DP4+beq9fXJrwfXjxTvp2fnwt7ltk34eKHvv9u1glH+Sa4H/ZPi3nYf/nwo2tPhuQG8n4t4OzicFe3ZtxxvzpuHyi05H21Zhyh51GgI19PpoEya+NA8rVu3H+rXrMXPOfCxdtR41NRF07NiJjCqKR598Cbv3lOCtpUuwfMUKdOnaG9t3HsK01+Zj7vzFWLJ0BbbtKkZeQWtkZ5PdNKVhxcoteOmlOVi46C1s274f23eVS03AiPPOsW10p8+Yg0GDBtscvBjtgoXLsGjxavTu29ssh0VvbcWUl1/DvPlvErd1qKltRGFhB0x/bQ7mzFuC0tJStC1MRVHbVuzstPCTdWACkMCLPj16a8VOjBk7GSUlxzB37kLLQ1MCnTp3MOt+5pzFmL9gDTZu2YkFixegdUE+5r9BnHcUo1+f7qhmPcyZvxqvzXgTbyxYhjVktnVkrO06dEFNXYTlW4cpr7KcS5Zi1drNVpbWhW0Q9BMXcl3KeDrTRAzUhs28kJi7FpKHh/ffBS/iyXRg987/b1N4dzaY9D0R/v3k/R8KJ1eF/fFqFSzBo/8g2285prxCK/dYHebNW0C3BDt37WcbdkJ6Rh5mzJyPHXsOo2uXDmw3HyqravDIoxMQSs1GQasMjH1+Jlas2YldO3dj6vS5WLRkNRXjMPbsLWZai+k3H4dLy9GzZ2+EAgGUVcTwAml/5iz2peWkrc07kZNbSNpqZdtL/3X0VOzcuQ9LFi/Cli1bkJqZh5/+/Lfo36cXw7XCgUMVxHc2Zr2+AMuXr8WmrXtocWexb2Viw8ZibN26DReNOhMZGdpfIIZDh0swZMgAnHba6Sg+eBjnntnXTpPUaEFDQwILFi1Fh07d0KlTe9ZBJVau3Ii8vFScMrQvhTUVdI0mUEFVteUX5GDo4N7kE5p6i1LRSWD9pv2oqTyOs84YBn8whljczzTWsW4K0K59kfETZxqInplWM31aa7jbdwUvLDO2UM1BdaOO4/GplADWbdF5+Mdx/sirms/Dl7M1OVIYTkRugU8onOCSLfCP4SR6d13B3f1NN/DMPFmbmpOLUcvfvv0IBelqWgthWrYjkZXTBs9NmIFNmw/QQgE2bivH3DfXoWvXXhg0+FRa10144cU3UX6kDueccz5OGXYaNmw9hMefftHm+kqORvDYk5OYXjrOPfd8E4Cbtu5CdUMMETLgsso67Nx9mP1cQ5tkNb4Aig8dwa69R2jFB7B9zyHLPzO7AJ+64gp06NAVM2fMR/GBUvTp2QudyGTOG3EO2ncoIpvRHGuypHZDJyaQsKHUkvIIZry+EsUl1TibuPboORivzVqJGXNXoLEp3XZVe2HibKSmtsIZp52B3IJ2ZP7l2LuvmlZcKpav2o5ps9agVbseOP/iK5CR3cbOU9ce/+s378fTz05FZl5HnDXiPLQq7ITnJ72GdRt20/r3cEniZaBRBUmhk5xB8v37AcVJxhN49yd7nQQnZ9Wcpeean98r8icIkrVs1iJZh48CTNagaPxwaQ3bfDlp7hgGDhyOYaeeRSV1HZau2W2jR/sPHsG+g0dpdasmUtAYjWHLjjIcOUbqikQZrwIvT38LUVrxF4y8BP5QHh4fPYOC/CD7w3D06z8Uk195EzsP1NpowcvTl+LVmSvRq+8AnMn+VFXnwzPPzUBxaRWV2SBWrD2EJcu3ov/AoVR6B5DTZWLJymIcraxnWGDMc1Oxmriddtq5OOPMs9mf4pj62gJUVFZTgdiEVgVtkJmeQnwjCAQSGHXhEFx39dkoapNOBZqlZh/X1wV+XgtaZWLw0CGYMestPDnmJTwz7mWWOQVnnHMa5agKnCQChg+koB2V6O5dcpmOFuY1YX9xGdau34luPXsiEJZqGqVSkoa27QqxYfMeS0t17IDpJEnZOqUeTqatd6Mz+SneO95ZOvpR2prW0L1znnpw0lPSpwU+ydAi8D2QVWjDZu8FXp9JgoSKe2RHYDzXHeTjtHD1b/s8iN6ygLQqf9hpPXH9defjvLN6455bL0Ofvv2weOkq1DdG4As2oVfvTjj79CG48LzzsG3bbhsm/+xnb8Y5Z/fEqItOwVe+fA+2b9lOy+kImdk2aPvdW2+5iOn1xTVXnIORF56KUFh5isnQSkhEbf5RyKg7+/2aWoBNJcyYMRtFRXm4+YZLcergLrjh+pH48pdvR5s2aejStQD5rdIwYGAfFLZuTaFOMlEazczFlVGgBVB6ateuNW789BU4/czeuPrac3DBqFPw7POv4niNBEIC2bkBXDzqLJxzxqnIzUqFz59AhJaTtmNZvHQ5+vfvQ1wuwpnDOuHOm87Ft75+FzLSQpj35mr06NUNd991Hcs5GDfdcBl6dO+E2bMXIEJB4RjpCTI2rBxqBN5YkzZ7vE8g6/OGQN/mvLdvB4ZjHZzsVE9Jl/R7r9ifBHhnPdiQipXHc6wrO945M4hP33g5RpwzGJdecpZZxLv3lNFCVl9QUCkIDJ7QOgve2ciTDlmif6IRfXt2wFWXjcCZp/ViP7kQedlpuGjkcJx5eldcdslgWu+52Lmj2LaTnjvndXz583fjhivPx9nDu+KrD9xmI2krVq/TWBQVBj+GDRuEs886BcNPGYg00pL2pNKnuLv3HKZyvB9f+MKtGHnBQJxzZnd84yvX4qorz2bMFGzZvptWdXuEpSs3aVMsH9LDaUhlmrK046oEVoGKoJpoiPpQWl6B8mOHUN9Qj7LSUpQdLpY+zLIzkG0mxIBevyFF8OpDlFb13sON+POj45GTFcb55w+HLxDh2wTCwQDaty2iIrQf9fX1DK+hduXppg4NeGm+J0h5cE735EnmvJdaKGl0+E7w/JiO0pK6bIMRHoiznUjkRF7u/uTnFvgkwAlO2QL/PKgvuQvBdQTbgINXMQh14PT0EDp2aIOs9LAxt1TygII2hSg+XIqG+kbGiaNDuwJkpdJySsRwpLzcTsYLBjQLTiuDWn/bgmy0LypE5fFa7DtwCJ27dkZ2prEcCuUounRm+llp7LgJMjZ9x6u1AMSFfzGaVurv6ruxWArKSirQsWMR8dICpwhCgTh69eiKVq00lKe52TgSsUbiTkZDRmArn+l7ooy80wiG9Anetm6dh+ysEMNqH/tGtG2Ti127KmxffK1Q7tyxPbIyQixbo52XrzrRRi0aeaivq0XrVjmMW4ewvwEZqU0YPKAPwqFU7N9/BEcqqvD8i6/g+cmv4aVXZ9EiIkM9chwNVJRsLYKHmTE/FlLD+1rsp0WDKvO78rn3BJdWC/wdMAEgiec5ghbmZWdlkL6DbO061mA9whSyx6oaEdOCTsZpouCTwLK2d5HMmZ/fj+zsDKT6Ywg01SIjlEAG+0paOIgALelUWsrpfK5lm1dWNqCuIY61G7fihRdnYPLLs0gXs0kT1VQGypmfO8CnqKjA9vLXSZTajjpm8jaBqqoappuOQtKcr6kBAfadjDQf+vToxrz8qKyqRGZ2FnFM4TuWTwqKFqBSQdGeGJaMBCT/osxr+cqN2H/wAO77zDW445bL8MAX78SgQT0x8YUXUUv6Z2DjB1ZXFo803xjAmk1lGPvsi2idl4NbqXC3ySNvYJ8LUBHQ1tPhNK3DSbG1CScfdOMUSCalHykfdmdPJ4HCeM579fYQLg0DvtBTMhX1KGtigb1zf+8Ob0+1Bf6zwfXWFvjAkOwCYgRJmrdnc/RgxxYT1Pa5/hR2ejIcbZ+LuASRLfmhpU37NuAjU2FnpuBKpwUR8jbm0FChLaBhz/M3+RGQ2q2z4eMNdta4Fq9Ho9L8Y44BMb2meJTZKL4EsXbKYxTDjT/EUyqI4ZVgPoF0htFgvWbnFSQFGzZspZA+YMxFxVIeKVocZMqLLAtF1w/DCx8bZiT7pp8sNR3BIeaoZVM6/15KjRYQKm4ahbcYt9/mM2NkgPr+n4yUzi8FhaWw8wd4bYoksGrlOuzcpVXOfhuG3bS9GFt2VmDzjsNIzWiFwUOHISCTzZmOxEVMWcLE4fQ2+GASvwX+EZg0kHO0YJ9Aam8G+gfpre11pfhJoYvQLxGXgPeTHjUfTlpiO4mOGhsicFvXiorpR4EWJI2kkP5DmjISLaUE0RRju5I0YqJFnbFAutMC0z2HqrBuRzk27qzEtl2VtMq7okP7TozDPsWuFg6RFmyBqwS1owHRtc2FUwnQORY2MUGls64uZjRXS2VA3TEaixjtGa1bVJXVTW0ld9QTxJj2pq270a5dO5w6pBNa58bRtXM2+g/ohu3bdqOuVr2TNM2+L+VY6cQTAWzaVoLxExcjMy0LX7r3Rgzolss+rrOCma7S1x95gLbs9dEZ75DQP4m2T9wxTrPgfwfolXcrsKZr9nGcozkevXVnrMb5EBQ26d4N3su/Bf4TQdyxBT4MJPuYOhadbSzGXmUMxnoPyMR8tGIjWLNhOyobEmRuqTheHcWaZSsxqE8vdnp26miCHZ7NYXGiGNC3F46WlOJwWQXqySAiVBI2bj2EHTuLUdQmEwP79cZbb63A3uLjiDdloLouBes3HURtbSOtGiCXaVYcrUJ1tQR2ANUNQby1cgc5WQipVCr69e6E1Rt24HhlhIw4jMNHm2zh4P6DVVQIAmSwTCTp9GkRndgjubW7miMzZzn1p7PND5fXkcH7oFP+tmzcgxFn9ENBbhrLREEQSJDxS0GRxcNKoRLjAzUCMtGCNkUU6CWoj6Wigbhs3luCn/36MVTXRjCof0f07dYR3/na5/H9/74T3/vm5zC0fzf4EvXws7LFcK3SxAxVd3L6kRcZui0u85hzC3xUoDr3HJVH7aWgT+FiMqG1kp60or0eRCFaMOrzRZCVkYrDB8spqCVuwygti2D//kOkC6VCZZF0Fec7DfDrPmLKqPyYJhNKaHEmFYg4BXjbwgzSVSYuOv8cfO879+D7374H/+9rd6Jzmyxkp+szPdI8lV874Mk0V/ZHSnF6mXBvR8u/tuYINmzbiZgvFRGkY/mGUox9/jWSShPakR5rq2qJiTJO9mOVLcyy6hNAiWN5K4MAigqLsHfXIRw5KsUn3RSb/QcqkBpORXpaKgOmI8p4cdKolJYdfPfXZyajQ+cC3HnX9WjVKptVlkH9mWFVrVLcI3EcP1aNvIxMGgJSY6UoCxfmaeQsQevRt92/ByjKSa9NL/Cwd+koQ7vx3rn+rChSO+y918dcKPdrCZt7JyT93+1dC/y7gdTTAh8W1AXUqcw5L5K7R/TskPoWPkrLe/XaDXj2+RfxwovT8djjz6AwPxPnnDEEaWEyEVq+2sFOXUvz7xqe79IpH888OxETX5qNJ8dMwnMTJuDqqy9Fx3a5GD6kG847+1RMnDwVL0x+DePGT8HGjRuZoyykRlocucjNScdjjz3B/OZgwvMvoaG+TrwPwWACo0adhazMANMdh4kvz8Ez419EZk42+vbtgfTUAK2jIKZPew1bab2QTQop/ssCl9WhstFq4XOSDRwqqcHEF6diyqvz8cRT41FSdhi33/IppIc1pC8rS4ufGI/MXGSnEQx/iqYMIjjvnNNQX12Gp56cgOdemIUXiE+P7t1xyqCeGHFWf9QcL8GYp57AlMlT8OwzT2PRgjksX45ZcYGQvt9PMi3h5d3+I0bYAv8EWMWyWlXfXp17VZygkJJg17HM1hFMEYyRZCg4/XH069sNNRWH8MxY0vPLs/HanLkI6bP6OGnAhs0bSRVaxMbENMLkl2BVHm5XR7fttUaQGtCaAv/qK0dg6ivj8OzY8XjpxVfwl0cewZ5da9GmMIv0H7NRhnhMuDCe4jOuRpx0yE/7onxcdul5mPzSVDw5ehKeGvMSXnllKs44fThat85FvwFdceDgHtTVMz+BlVEjC0pOoxdUNqWA8C8cDOLcswagbetMjBs3GRMnzsbYsS9i4/q1uO7ay5CRHsC+vcX4xjcfxOIl61DX2Ii585ZgyVtbsHfPATw7YQoeefJ5PPL4RMyYvZh8QllpsWATysrK0K1rIfui+h37kOMODoy+5QTJ69+Ht/eGd4uTDJG8ennY4/vLowX+s6Hls7wPDeQm7BC7d+3A/LlTcdlFp6Ftq5BjYuok7JhRcrH5i9aiY7cB6NmjEy2bA+jcsQuuvfI8dGqfS4YWR2VNPbr37Iy2bfPMKtH8Z5ceHZl2JvbuO2LfFZ959lBcfumZyM8AhTLQu1d31DUA23ftR35BIU4/7RR069wKvXt3QFqGH527dEV5eSXKj8XQh2mffeYQZGVnolevdsjMDqFrl444UtmAbXtK0L59EfG5AF06ZJs1npmVi337itEqNxudOrYhTm6rU6fICBwziFMZ2LKzFPsP7qIScb7NuaelpuLSS87BkEEdyWBjaGhooPKRQby6eww9aJ9ltaGl1bd7W7Sl4tOJ9yXlDThYUoUu3Xvi9usvRofCVDLgTHTp1hMlpRUoPVyNYMiPCy48E6edPsgsH8PJFBCBx5T0nPQyeNtDC3wIsGFmd+eqVSROq7khEkUGaW7I4D42wpQS8KG2vh5ZuXno1b0IhQU5aJ2fRzo5ijpar0NP64vOnTqiVw/SfJscW+vRsag1encvRCCYilikCfXRBAb260yl0Q2h6xPNHj26oFO7LNJ2EQpa5+PQ4UaUllaTTgqpDI9A926FFMZAVW2U+bZH64JMCvsEGhM+VFcfx1nD+qGgVRa6duuErJy2tMSPor4hjhFnDsaF55+C9IwU+NPCWLlyGQb0728LEX364N4bQdKcvRTd/r07UYGw3TeQkdZE2qZCUxcnHyhFOJyO888byv42gMp8CupqGrBk2Va0LeqEbl1aYd+BaiqrGQgF01FVFyOuTWioA3LzsqxPa+pr98FyzH1jAa741AgUFWUQBynOGtY/icYJbtjf82umc12T9yfg7T7iT/SxuLoGsG5zMfM9jhGjrkJeXo69Uw9TCBcqmcLfpt0Cnwz4P38e/j8PyW4g7ga8Pms6fvjd+/HwL7+EIb2zKOjYocgYNESozT1+8svRKCjqg8/eMQpBv+Y3tRCJDEPMJB5DNKphUY0+uk91fH6t7PcjEqEFy86oOVLNdGokIEhHXsg+GyIGYUTJbO0gIOYZSNQhEJZFzo7K940xisSY1kHr2NIElY8YBTpZBzNriiWIGxlaMI1WGC1w4mtH5RInfT7YSAMnSEZjC5fUxzVfoSXXKjeZkj4ViqZkYMr01XjxxRfx21/9kIwiRBxBZhhk2ArDIxELIJ6gpUa0dG6/3++34foUMryMIPPTfCk1gfqmMCIsl777zQ7QSiMuqr+UYCaFhwZ4w2C1MD7xZ901xarJk2SFqa6ZqZwYmCqy2QKSn6wz3f8t8G0LvG9I1qFqTfca5VG1a1MpLcjTvLgc6cgfQgObJpaSijDbUjTh1pWQHtmu+lytiVZsKOC3kxYbSAYS6mmy6gNMrzEGfU2SzvbWFJd2mxMF6JwIKaQ6MVJrAPQFjNstUsP2jJuotwVvkZQsBImLH42kPdIRBWw9jeR0KqCBoN9IpYHEpgWFWuCqLX+CQSmwcVQ1+vDUk+MwfOipOPOMPuwrLBPLHBcd8RqJRpHGvpaiISb1Q95HWREN9jmC5tt9tjBVC24FddW1GPf86xg0eDCGD+9MfFOpZLCfaypDUx8a0WBCWhCo9TmR+jq8OmuJfS3wta/ejXBQfV6THaqMdwLzEM07Tdp5/UPwwlp/sQLwP4xnJi/F62/twfd/8QS6devMdmTdsI9b0gql6QR3513/Ebjyt8B/DiRbsAU+JNgiG13Vj5yX9QvrU2QUJpgi1Ujza3GePrsha0loFy12eobRt74BMhzNU0q+NmmxEV2YykGqr47xGumiblETJWeAjEHWc8BXT4s6TqYaJfOkcJaw1/AnXVOsnuHrmV8DUoMS3GQcDKMpA4ceLXnikso0gqhn526gL5kWGbaGZ/WJX1V1HdZt2oM1Gw9i9bpDWL2xhPclWLvxENZvPow9e4+aMNWXBwEyV+ER9DWSR9cSP1eWgPAOsnzkj6bgUPnISvebIFBeVma+SwvFkRkmMw02MBzxYFwxdg2hZoRjSOW7ABUTsnrEojSJkkOcNtzr1frf8Bh66J141Lu5FvgA8M5Kc/eyeANSSOMRCnq2GdtTizjDlE8ZnuImoe0nTaWGImxfKp2Mk0p619B7gu9C/hj91eZsy3ijna0vuraDc4xLSYkgrYbYz2ix65yG1FQfLWjSS5jpGn0nSN/uCOcAaTlF60VIg372lUBKI9IZLqCdHUmriLNPkJaywnHi6PUL5cHwWjw7bOggbNu+g3QmhUDb6Cbt2zgtcyYrndq+EBENanoqQTwSSE+NIswyBlhulUsLVKORerQpSEfPHu0YOs6+XYOMVOITqEcWw2aoTkLsP+wnEsDlR46jvLwUn/rURQiHiT/7gBYqehzGVbs5717eHxgY0QpkPwbJZJI+KnOSn/1TWbTAfxy0CPyPAKxDsPM1dw71GHVSCXo6CbphQ/pgSN8uxui0Yln7aiu0rB1t4hHX/L2EvGn9tIDYMozKHzEVCX8yKTIPYzu0+G11Md/4+V7zkrZSWgumEvJl2grDRGjLkC845UGCUQvylLftdy8py7iaOxU7sZ6u8VDTUtwc/c495Zg05U1MeuUtjH9lOd0qjH95NcZPWY3nX1qKZSt2okOHTrjgvDORnUasmIesG1lF7oQ0pcv0vfTsjHStnoqRqbPs4lm2EImWn48WUkDx5SfSVHnMqQysNypNVhY6CQr5iym5ypLz7lvgXwCib9mlosgmClgKeAlb0o6+8jAll8IthUptkkat7SkERWvBlBCvEs1qNgl+3mi+Xf3BF2NMWcAML3I2IuE93zkFscn6jBw9vHh09uzoxq++klQE+c7wSEhJVH8SPdFpcFPOCyN//WssYdiQAWhXVIiILHHrqyxTgvjyvknbAzMcI3t5qg+xn9O6l1WschM7U1b1LicnC5defDZyc7U1NvNnHEXz06p29K2+S8yFOssYjSUwZHBf9O9HK9vH+rJ0RNuOpyhHy74ZvPf/DHjRTk7TVevfS/PtubfAJwdahvT/aUh2EXZY9ovZs6biR//zOfz5IQ3pZ9uws9vzWkLJj2hcjCJAYdYIf4gsj4xLi/mMOVLw6vhcA4+BNKdvQpNO3MD8PSYjPzE3E3JkSGRuJv6SzE+vBeIkzULQMRZbuWzpK6zXqZNeMl0Un9aUjsmNNdJub5Cwto+ZjOEoPX9Ap+rRMguxTOEQIvW1yEyVAkGGTCtem6soOcvKYWZp6M9BEn+V2ykDDheGZfl8KpOeDSdddaN7d9W8rIZA3XtJBd646Lwy3WR4gSVz4jkZTf5eci3wT4CJNrazhrBNETVlUTTlalvNYW2nxXte/adIwFnby59Km0Z8jL75qO/1TcI3h3bpWluKJnmvfmJeXp4KqfY2GvHCGktjeBGfghidi870IPNc7/ksgtazcEqhQu2FlRKjdSZR4hMmnVseUh6Yh32Cyvd2wK7hpXR5NRzolI+NYtHpIsXaFHCHj0td/VTxlQ9fWz8IMbmI6zusloZoHOG0VGbbyGwZiGWyDbCS6Vq9evf/AKxbEdyKfoJ5KE9erf+p1Kk2pD/3rb148OdPoEu3boanFBjtKMiAvFf+fw+8jJrhfSDXAv9S+Ect2AL/AJJ9yEid944JiTFIiJE56CQ3WjVBfwyhYAx+fagsK4UdW3PZmnt3cU5uCj6LeZi/Ek1m4tJ2/UhMymOeEq7Mzy3e8RzzaF69bvFoXYhJGtOQt8LJX+ClKSfGpou+naa3VlJn5QSRneOnhZKCvOwmugSyMxPIz0lBZhrL5atDVgbTNmEv3iQmwVIl8bWy6VkX/ghvw133Yu5kOrpNhhceBs035m3PHp5WZye9dnXkldd7YWLj5Do5yYn1ngjfAv8snFDoWI9eZxDdWy2rPe3eArkwRn4K6+rfhVU43vNPNConPy8V1/aWBCNLEaRL9jPnz7QYP0FlQP3O2pz+UiI1f2+f9llc0RxByVpc0SH91SdMWAsv3tpVfVaWuix8XpUP/XVxmLk74dLk05qAJL70SwpzhbT0lU8AOkxKowoUnS6crgwn5dh9hUAXpxEQSCAtVQI2YsqUcYjmvsHwysZw9Pz+kTN8eJsE8z7pvTkH7ilZu8mra41/DO8nTAv8O0GU1wIfBtQjrAc6Aems5yTps9OSqei8e1uUo+F6TwCJMZltYMHpJ6ahuGoRs0x0Q+vDnsXEFIqM0JgU/WU12He5ZGi0ApoYRmdnW75iYDpGV1djZvSzd0rXYSZDqUnf2Jt1Q+cT41L6ykcR+JzgswWXVaNBVtlkmoYQc3LpGJPSMKymHFJ4pbdw1Kl+doqdJaj0yA7JOBM2JK84utfWv3JSTpzlJDxVZIW3OCyXLVg0C4l+tCIdnh7eVk8ubJLRu2fVmZzYMK/JMMl3za4F/mlg/Wq+Xk1gAkmO7agRGkdzqmFSk7WRvtdX7bMtjZ4dXeq9aEqkbNtQyAqma1K6tqkF75Us09SpdXGkIZ6SymdZ6spDtMF3TNy6A2kjrjhKR/joXunTGW6kNQMpFkrAaESULbpQgqQpUqCmw1wIF1eLSakDG7gUibXoUZtoEZ+4FtBqAYPKpYJAC2pDxDWIKP0TvnTinMa4hiTfB5mu8pLyIsVfeDgskn3KWd/CW7EU5wQk++X7AeEr9+5glc4qZB6sL/tjUOdcPNWKXAt88uHtVNQCHxDYHYyBkCWok5qP1zWss/CZDEdMQMPjbohf4SS61YXZq8SE6ON83ciAhvq1aK8JFOQWx+tyDGgjBwotL8aVkE8JBE15MKYmJqdXFoX4GROmI/NIIGInf1luGjoks9MrCVv5aYTAOjipwvQERROFyJ8PATJh7QqoXb9MeOtP+ZN5+ZpCDBji1RKk0xymRXaP/DHUeG2ScmDf5kcZXnVhWdBfeLCuTGHQsbvODrcasrh0vHFMSRE0j59k1qon+SmMakhtokhkqE1yWs1AvMVk5U2XTNKtv1Cd8skcPV1CLfB3wIalTcPTg3m4uuStWdoeyILV+hMtPtNguJPsah+1PNtDV7aP/nwWTwqg5uvVppr2Eu1I+Gqb3hheenUJxj0/lS3MuKRHJ7i1ZoWXZhwoRils/fqygwLZZ8ozadVWFSpfoUwqIR1HmaZW+9c3+vHK1PkoL9XXJRLGOpXSj2MVcbw6dQXqKPWtK7GAvkAaahpDmDF3PR747z/hez96BitXltNA1xQB6Y/aR8XxFPzlsVfxrf9+BE8+PdUOxNKYQVO8CRs3bMeiJVsQiRIX0rrjI+p7Xn1YPfmZl/qXcFU9q2ZVRtajdSa5jwJcnYlXKVmlKgySOTt8BGobOYfHO0G+zV2wBf4jIdmSLfCBwesMdusJM0fy/BcL4p84kOfthJ+AfrJMyVBcZ1YYsSd6MxHXp+3J/N3iPjn5JOfxxEDJIGiV7ys+inlvLqUfha2ks8cI3Bwh73g1ZYP+2szEBDhfKBk5YyR0TslQmnzUXKl1fjFOMWYxXpaJjKrJpigYjgxKQtz2SRd+xrQdzlJk7OAYJWblcXjovUY8VC8afrVzBoiE8DZGzCDuWVaPQPXCtJhPkz55ElP08k6qAqp7F1SIK5YS8Zzee1MU5u/h0Byumfxd/Vv4ZtcC7wmqc6t3Ogo222qWFRjXN+qsSa1J0VckCROkDMp3RndW7SfFNXrV1yZsfzarmlTtmqJhbablgvHH6M/1FK152ba9DOvWbzfa0yhSsonVm7SuQ5s6Jbtec5vrWekpTz3TQyMPZslLwWQ/27BpF8qO1CE3r4CvdbZ/iM/AmHGz8PK0xai1T+lYQtJqJObHlJdnY/pr89CzZy+EUzMxbvw0bNm+j9Z+GCVHKvH4E+Oxb18pOndqj5279+Cp0eNQfqzW0tY3+Ju27UMpw2nvf7dglwXxlF7nmgvhXT9KeGeab39O5uzu6JJ1aC/eG5+PA9MW+OhAVNUCHwKMWfGqxXKuPzghZYLbmJVnqUiASsJah6Zw0/ijJyjNwtYCPobTZ0E+WaQ6aERWSSKV4VIZXGkxHc2tS8jyWd/iL1y2BcuWbeNjOl/Tw5iZmJqzau2eAlzn32vrUocXwykYhaftHMZgIgSzsBUgGiHa+jY+KexZJmOUKivf+9xcvSsvIwsfcdgUjR7wHfGQYmDzkhZPFwp6hnVWnYZjmZZuBUKAuEopctYg3zFP22Pf6oZBLDBvNLGgOrUxDflJGRJWSltWnCx5hjQpYHf0d8qJFBFbHKkTzFQX5uMFM8cfuRb4O6D6YZ3aiAhvA1pYJrKUsNdbtSHbRTSguma7uTl0viWN62sRLU6LNUVJ02w3vlKLmcVqba/P9+hHpcGUXdGLmjqudtbXKdrUKoMuSJJjX0lQuZBVrLy0ta+UDH0ForyMTkjf1Cbs81dD1KFi6cpZ/n7U1EbsDP4+/YbBH0pjUj4sXbEZ3//hM5g+awsqGoLWhxRZikxZWS0WLVqByy8Zic/cNhL33vUptO3QHlNnv4laWvmrN+7Ejj0H8dnP3o7P3Hk27vnMdSgpLcXKVTtZ/gDaMWxmVg7eWr7CTV9I+TXE3gnv5vdRgWuxk+/EluIa+TPfJKih5Vrgkw4tO+19SJB41++unduwcN5MXD7qdBS1CtPHWRliejosJ0bBvWFLMZ6b9DomTpmDw0frUdSpK5X9LMyctRBbtu5Gr159yH/iZCwhvPTKbDRGQmhd1A5HKxvx3MR5eHrcq3Y+fGZ2W7QqyMPGrXvxlyenY/W67dixcxcG9etMJlKI7buP4clnZ+H5l+Zg/6HjZC6d7ajZWCSO6TNX42BpDdas3YNnx8/Flh0l6NZzCMNV4YnRL2Pm6yvhS22Ftu07eow8hCWr9lh6L74yH41ksB06dzamXHy4HpNeWkQhm40xY160Hc/69enKkkvAUnkRE+PVLH0y5TgF/cIl67CECkp1XSpGPzcNM15fivT0PLQpLLCvBBtpOa3aWILxrKdxz8/Euo37kRJIR6cuXdDQWIuZczZg0/YK7DlIfJ+ZhvVbDiG/oAiVNT489uREzJ6zCoFwOjp27GgMNJpIw6Yd5XjqOVpp05fQwmpEhw4dkJqaSkGgaQcKCHI37QXvWF4SWpjcuwNrVcI5WTek75IjxzF+4gxkZGShdevWppzFYiG8NnMBjhyppyDsil37KzFh0iK26WwsfGsb2yUXRR2KKGB8eGvpZmzeXsz+cQjPPf86snJyUdi2PTZsLsYT46bjmYmvo6IGKGxfBH9qOhYyfFVNHbLz2+HRpyYzvc3Ia9UBRYWt2M8S1n+WrTmIsc/PYX+bYzSUnp6NgtZ5iEajmDp9MY5VpeG12Ysx/81l6Ny9N4rL6rBi2Upcccl5yMqmBd8Qwfz5C5GbFcLZ555GuinFxRcMQUYq1RMqjMtW7UIJzf9PX38pcnNasX9loH27bHRun4fMjGzMe3Mt2rbOxagLTkNmuIn552Ibrf99ByswfPgApKXpxLwo5jGPIacMQ2aaFBDV6r+Y7mRIWJZup709B6pw3shrkJ+X62FBJpDsF29D671w1MjJe79tgX8vSGVtgQ8D7AtmoctaIZnbPcG+nRXVy6qnwF9DofyXx5/D0ePV6NytB5auXIM//PkxlB2pwaYtB7GVzCBqQ6P6CjiAjZt343BpHarrmyjInsWuvWXoN2gojd8gxo5/CXv2H0R6ZhaKijqTkbXBgEGDEKRlsnj5Zjz40z9QANaiR+/e2LRtN/7453E4eLCcAjyA5at24/GnJmLnvkNo36kzlq/eht/8fjRemjIDeXmtiXMYjz01CTt2l7Crh/DGog146plJNIaC6N6zFwXqYrw0dQEaYj4coSLy8rQ38cKLryInvwBp6Rksq+vwVn4tavIYithGJO7D1p0HMebZKXht1ptUWtoS5xwb+ly7YRfD+FlPGzHh+SmW34Ahp+BYZR1+8ZvHsHLdLjREm7Bq3W48Q0Vh2dotaN+lF8u3F7/94xirk3ymp8+bRo+ZhD37jkK7uq1etxO/+v0TKKPEKGzXCSvWbMazz8/AkWN1bhGWtu5L0eiAGotOIwkm0FrgH4PaGAhSwdrGdl22fB1pTKMmTaS/BObMXc469lExrMSfHn4aFVUN6NN/CJXcbDw19hUqf6sRp+V+sPg4Bf1UrNu00ynBoWysXr8Tjz89ATHSYN+BQ7Fo2WrSzQtGI2qiFew/M2fOQwfScFV1FN9/8NdUGvbxfZh4rMVjj49BKDUDg4YOo7CuwaNPPoeDJTWIkG6Xrd6Oh5+cjIZIE1q3aatBAVreVBry8mybXI0yhAIp+NSlF+K+e65Br56FCIWltuoMiACikRjpbhf84QyWYRm+94Of4n++92Ns2bQdvXtSaSedFx88SgWgEOGgiAy2gU5GVhpKy6vRGKVCnBJHQX6WHfO7ecs+1pNG45J053jIxw/KxzmnaHiP7yYWWrrE/wp4l5ZtgQ8MJuzdcJjJDXUgciXdy6+uPoF585ZgyKAh+PLnr8c9t4/Cl+6/Ae1pAUTqGikTQ2SUGn50zEHNohPIYrR2Kytj2LhxK844rT9uvm4E7rrtEgwa2B1VVcfIUFpjQL+OGNS3Na676jwqCj6Me2EamdxQPPDZS3Df7efjG1+5G/GmLMx/YxWFay7qoj4KxnzcedfVuPPOM3Hppedi2tSFOOf0gbj9xvPx9S/fiNa5rXDgwCFU1UXw0quLcNZpw/D1z12FzzG9m66/CtNoIW3csRcR5ldypByDBnXG7bdfhFEXDmDRtUGQN25qzINgQp+kJiuflVJbG8Gnr7sYd950Dv6L+BXQKly1di/qI3pXZfua33fnZbj1xnNw992XIjMzG7t3lzIhLcwK0ToP4uprzsMtt5yHGz89inGaMPzUAbj5plGGR2ZWNjZvPYjyikq8On0eOnbqji9/+Qbc+5lLcO89N2BvcQ2WrNjItgkgEpVlHyY/87qCDeu72xb4W9DiLo2Lu7UdkgM6xz4Hp54+jJb6ahyvoiLVFKVito3004iu3drgeMVx9O/bA3fcNhK33HQ2Pv+569CpS3vs2L6T7Rmm0PexH9Szva/A7beeh04di/DCC1PQp08vfPGe6/DFOy7FF+65Hm1b5aOh1m1E04F953N3XoPP3HIOHvj8TbS8g1i3fjOVPB+OHjmG6648H/cyvztuPAP33nuVjSQcOFRPGsyiEp1AXkEh7rjlEtxy7fnIS/dhx5bt6NK5PdIz1P46troJbdtkkvakwOrTPvVJdXBdEzhYXo4V67dh+54KnH3hKPTqfypen7vd5vojsQASkQTSw1ozwz7NaA3xauS2zkAGadk+eWXl5eZkIi+/NbbvOmBrEZyi+W8kvuTUi9pWz5q2aYH/VdAi8D8QqBu8s0O6Dq3+euKN89CiPM1ZNzYmUEOLe+CA3ijIzUF2ehi9enTEXWRYbYuyJQfJxHzs9NrJO26b2ti2nIiiVatUdO/WEeOenYwf/fgJvD5nE0459Vz06jWIzDJgJ4CFA0FaJKmoIGMtKdmHC84/k9aDrJVUFLXJR+8+7bB33x4qEEySzKpTh0LkZYWRmZaOzh07IS/Hj26d2yEzPYhWeblIy2xFq6kRxcXl2LhlP7JbdcfBsjh2FdfT0ikgWn5s27yP+QeRn5eFAQN6ICcrFWEho1qQla+RDc3NW11oTQP9KSx8/gQKCtMphNuS+aUiOytAgZGFsmMNfJ2CM087DRddNIpKkg/btlVgyYI9OHiYVhGrWZu8xFgn7dq3Qte22chOTUG7wtYsTzf07NIJGbSm8rJTkcs6LjtSiYpjssT2oHvvAag9noLDhxoQiWewDNnYt7+YjJc4eY0m9NyPIHltgXeC2ujEVw8E/gQp1M46pR+qaxqwafMu1FTX4fV58zGMSkB+XhgDehXh1k9fi0AwD4cOR7Fg4VZs31GO+jqtwAeFdBSdOnVAxw4UuCFa0I2N2LVzJ/r36Y78nDTSeAKDenfEjddehHTbbjeK9h3bok3bAqQxfNvWeejetROOV+rI5DDp52KMGnUZjtf6sGHbMSq7m1FWXo8YBbaOU47FG9C7d2fkt8pBMNWP+lgtBXgZ6bzAqTKiA01FUeAlYlJevYLK0V9TGunpmcjKDOPKy8/EqHOH4Jorzsapp3XBlKmvopIKrYSl/mLsdCZG40HU1yRsKkJ0pikxok6FIpN0WYJ41CkBLp+PGljJ7+bEtCw/XXUrQ0WKHBmFXTVW44IZVnajsF74Zkj6vdO/Bf7ToEXgf2D4207pfJLE7hG+F0xPjY3avMMtEbODaMg0dEhGNJZimr3EWGNEzM+tTpcRpfB2SIw/jvvvvR233HgNUoOpmPLSNPzoJ7/GwkUryDRCSCGzjDOuFi5Fo41MN4WMKM3ykqWtNQQZGWmIx5hnkJYsLZ1Q0Me4xFir96lk6JP9oHYUU3jipll3oR9pjGD//mMYM/oZPPjgD/Gjn/4Mv/v9b1ByeB+ttiOUwHHkZmUgJyOVDIvWE9MyilIZdaPFW7bQSaUSPtqLoAlhWj5B4qBctDeB7u1QlbgfO2nt/PSh3+Cb//0dPPHE09i9R3P4QSoKWs2tdMQofUjXvuqsH33qFbMFj0yHTCqgZ43RspyNDVEcO3YMEyY8h5/98Cd48Ps/wA8f/D5WLF+Eupoqost6S9Fq8OToilW85dECfw80AOxaT+s8dVhOh7atcMqw4Vi2chN27i6n240R555BYe3DkaMVeOTRv+Kb3/wOfv+7P2LN6rVsHrapT/ROWmTbpmekI0wJKDLUgs9IQxxZ6alGz33PmccAAIkESURBVNpWWf0l5glfLfDTbpXaDVLtJeGpjaxi1peCVCYO4MEf/gzf+fYPMGbMeBQfLGGYoOFtZ1CQxvOpZMbYX7RmRovU7BQ80kyKn3hpb2gblSJ2pDGNKDRTMfPTVyZZmekobJWNgjziiAamF0SXLlKUq9iXI2jVOgdHKipZOVKCGT8lFZXHqpEeTEEq6V/pa61LkLQdEX+w+SWvn3wsYJzl7c76k8opPuDKpmfX+4Uf/xjEPQlOitsCn0gQHbfAh4Dk97AmLrzOYWBCT2/YwdNCFNx+HKXVGZeQpeVbfOgIvv/Dx7Bm435K2yY7+jNByznYFERjbQMqySzEhOrr6lFRtg8XndsD3/vW7fj1L76Dbt17Y/GSFcyM4akkKCsdVpKTk2mHfezYttNbZS9sQti76yjfFdhJY3HGEd9M4mmLoX1x+unAHKVFhkglI0C/woJsDBvaFZ+/93r84Zf/hV//8ltkpF/GF750E847bzB0WI6+cNahYOSLzE/noStx1oYqxFbjy2n2U+voeUvBrlPSVFnks+Q1mpXlDa02nz8LEybNQii7Db774H/ju9//Am659ULikWZb9wYYJ0DrMqDV+FQeFE3b+zYRXyVmowqmc2iVf5zWfhg9u7XBzddfgl/97L/x+1/9P/yOZfjm127HZaPOhnYC9vnq2UINbEcnTIwJWpu2wHuDox4pj6pzbUCjHSRHXXwxNmzZj+mvb0KP7l3QrVMbWsgpmPDyQuwvj+DrX/8yvvft+/HFz16LHt0KTeCqtdRHJHE0qqXP00LBIFq3ykd5STkFoSxuKoJ7juDXv38axaW01CXYtd++zt9nfCmoccaPs/kPHa3FTx56xKZxfvLgd/GDb30Bd9/2KSqmfiqljUih4sveiCCVUfsKRApwKB252dmoq62nYixcqACKjo0kaOlSqSapUGlgBnwdIH6nDOlLAV6C6uPHjdYS7D/lJUdQmJ+L1vlZ6NChABs27kBNrbDzo6E+zvAVGN6/M8Ls75oS0YkBNbU1LGsr0qIUkn8TeILe8SxrDXt0Ir8F/jeBWrgFPhSIQfAiAeb1DrP2pTXz4qNFkZnhx4ABfTBt5ly8PGsd3lpdhkefeAWRSD26dW6NHl3b26KhqbOX4a11B/Do6Fex/1AlGU2clmgEf31yEia+shJ7D9fhQMlxlJYdQ+eOhWRC2tI2BcWHq7BlRynCqWm4/FOX4emxEzFp+jqs3VKNMWOnYcvG9Th1WD8yrHqEUrQVLoW0Fj9JYpJZ0WBx9zSV4mSwsrs0YCvGdeEFg/HGwsXYdSCK8soMvD5/LWbNftOYprb9jFLw2hAoLSh9jSCTT4qGbSRiB9yIa4qFyDHPlLAGEqy+NLSgOX37GlCoUOiLAZaUVqG2Nh0HDkQw5eUFtBZLUVtXh4i3m5/PL0bE+AkpAGTYxCFkn/ZJrSDuvBf+baiwXHDumZgz9w2s2lyCssoQFi3biWnT3sDx4zUMzyTI4O3QIXWFpMVjDPDfBcm6+kfwfsN9tKCaUdPpszydRqfREWEhsd2tcyGys1Mxb8FSnH3GMBuKtxGYaAOKS8pQXg2UHU/Ba7PfwrLlq1BRUcsqp6DTPDfFn0ajpHTm5Kfj4isuwbQ5K/HqnHVYvfkoRj/3GvP20aLOtLYNJPykQR3Jq1EsCWgpjhoFakJdfR1KjkVR3RDC7v0VmPjiTGzaUmzn82u7KA06aehehC9hTX2cimE7lB4+4JpetKROYXhp3QhxVHA+aa2NTtw7pX8XtC9sg/EvzMe6bVWYOmsV+8kqXHrp+cjLbcLggZ1RUn4MY56biUUrSjBu4jwcrajDKcN624iWDsjRFMiR8lJ06dSBfEKf3zqB+3GBo+p3S1/9yRvCtwrQM3/V0Azvft8JSd+/fdMC/7nQIvA/JDjZQKKX1DLQgJiEmDoP38f1LXmUgvMsnHH6UEyd9hp+89s/knEk8IXP3YG2rdNx1mmDcMtN12DSpBfwyGN/RXZuHk47/VTbT1tz5Ndccw3Wb9qM7/7P9/Ds2NEYOrAHrrr8QjKeKAYM7I70jBB++pMfoby0BNdedTGuvfpSzJm3ED/56UPYuGEdbr3xMpw2rC8bu47MrQ7pYWeRy0r2U4Cmkdf4tY0pMdcWn2khHXEbI8NOwfVXn4fuVEhGjx6LH/7wp9i9cwfuvO1G9OrRjcyccdNVTkpwRdeipqTVp/QlxW3okn/ShigkgmSuebmpFPoNtKZ0JKgPqWEfsjNoJTbV4+YbriA3rsGPH/wBJr8wEZ06tMNVnzoXVccPIRGl9RdoRHpakjlR0Ad0nKkEC9NnvpqaCIfExBPISAvgsotH4FOXnI9Zs2bgF794CEvfWoLzzj0DpwwdRL7uM0arjWKEtwOVQcj/u8G1x9vh3fz+xcCq8VqUt5oCYtvb1FECuZkpOOPUPlRgW2MIaVS0pTq+4drL0LVjAR7+8+/wpz/9if5xXHHZWewbsqg17x4lDbD5pERQ2EqgXnLJCJx+xqmYMuUV/PKXv7G8br7pOmSms72DERsa97PP+UkHAX8CmZkBtnkTWmUH8d/f/CJKDu/FT3/2I0yaPIH02wHnntUfR8v203hvIP3Ajlq2zZ9YnlTSzOmnDkTxgX22oDSuUSgVlIJZBdZUUUY4jhjpVcP7KnNOuh/33HWz3f/05w9h6mszcOrwobho5DlGjz26tsX999yGLVs24vd//Au2b91E/K9GNyoWpgRT6zhGBUC7Tg4a2JP5sF2taT9O2vPK9TZwzybo6ZJvT3QBZ8jInYCPE8cW+Dih5bS8DwSqKjkRvNdReBXzmzXzVfzsB1/Gw79wp+XpkzQ7uU5GQooNCKI+EkVV1XEylJgtcMvJzWHHkkWq1el1qKistpXj2Vk5LkwwQKEVRGOkAZXVVWio1wrlIHL4PjuN+VNqR2mdVjJeAy3g1nnZCKeloaGR+VTX2dqBNOaTm5WOQFAD502oqKq26YWcrEwT+NUR4FhVDTrQmvdTeIoJllfVI43hNYeq0tbV0VpieppDTc8IIys7zRSESNSdl5+XkYmQN++pY34diFlS8JvQ114Emu/1oaa6gbg22DfKKT6t6A+xbA203hNonZVhQ7NHmWZdTa19K5+dmYFInMw5FkV+ZhYqa2tNmcrNTmfl+1DfmEBdox95mbTvKCi0AuFYVS0VgAD9wsw/BTX1DazfWgqXJlpXrHeWXfWfiLHwQpuY2tSMuJoxPuF/oo0/DhCDtdSZr90bh3VKh4SIFk+5Z/pLezKOS2c4Ko6ivhM/PSf9vPAfMbhV+ifS1fSU7aIooU986hsa0dAQRW5ODkOxDBp4IY1WkcYa6uptvj9T7cz+EYlopXo+6tk+kcZ6FOSzPzAdW+5GttRIeq+pqWe4GAV6Kuku00bMKti+JHy0ylE/0+53KThaWUXlL4gs0ktjpBFVjNfQWMd2Dtri1JgtivOTntJxvLISgXAIGaRvO3CKaB46EsPoMc/iumuuRK9e2sNBUz0RxgmyaE04Xl2DHPYvt4Mk619TDcz5eG016Zd9KhBGTnY+FQNt56tpiAT7cJx5VaG2IYLs1ADyiW/Cz/esk8ZICqbOXoFDh/fg/rtvRpqmpajUOIaRVD4/avAEvmhLwxwqiUZImKc+f3xu8nLMf2sfvvfTx9CzZw/D320sJpzU6kTc4J1058Aogz8iSxfiBJ20wH8GtAj8DwRG0nQi5yRJO+qeTYH/0+9/GX9+6IsY2iuLfZZqAIWY49sMoJVxqmr1CD7bMDg7tu0TLqGotOhlW8wyQdtxjqmbJWVZaWg0bgJLHdQWmsmSllBlUPEtDU/acKSsVR/ZDjusLCzN5yfztQM/eK/tRMVfYmSgEVrO6Tq0n/koX+1lz95OxsR0JMANF+ElJiHBzWcfGRqZs4RPkExMIxbaulffXSc0x04GIsStmIplIwhaV0ArSZaZT8OwDXQMG0ylMI4xB6ZHvGNavJjgswk31gDxaaKyYd/2q26UKHGQZa61Tk3+sJ2/j7hWR1MWaA9yxgmIUQnt5gpiGW1lPh3LrREDySqbm6WX9+PAQ1y/qn+FS4Ib5HR3BhbIu2lO4uQw8kwG8sJYo9KpfHbnwruQwpflkz/bUtXvFizqrQOh1+xjUS20OacIMF2vDIZ/c1TRGy8W5qSrBWgO9DYwGvd+lb6+IfdS5j/bgMqY6toGSUS/xFdD4RKICdKbXwqKRroUS23I5wTfN+/MSBxsWZwq2axfCXz6s/Hc3vKMxzCaRtAaGLW7P4X0JSTiVBqZpw7NsaJoeF952Cd0qjj6GbI6DEplEI2p/xFfCTOvIhuiKXh16hxGD+LGGz7FIJo+In2oPyi6tqUmfkaCjKvyWD9kH1FfliKuBbia5hIkSIs6qc9POlOuWi9ArVuLTqw8pUdqMHHKQpxxxgAMHdIT/jgVDKVNUJ8+GTzvDwnJVNSfdFEeTuDLT5tiPffSSsxdvAff+wkFfu+ebFfyAPECVwMEa8F3hyTuLNtHg28LfBzwdspqgQ8MIm45t8d9ku5dt7AObBKfzhiZOjuvYmZ6mewcdi8Gr3cUWnTqiDZkavOTDMckghTK+mTGwhnT0T3zsrgMoHSUILmSE/KMa1vnaphdnVtB1cEJJsz53xSldS4PpiPmJkHPtJJD/sKVPwzItJQvw4k9C3/Nz5Kf2Xsf01u9Zi1uvumzuPWWe3D7bffh1lvvws23yN2LT99wB77/vR+h5JBWTCtxi2aKAjmLoWO4W1mkEEhgaRc8lZV5Gj76VFGMms8SLIykak9QiRDLsiXevAvwqtX6JoHEYFkGKT+uTnhVvTBPfQopC0aJiwkKF2ZlIDFsgpfOGORJoDeGK52Cu+kKu/PcO8EL6IG7dYm+M/SJd6oFYSAc5Ct3Uqb29sSf5Z/EgVcL0pxOsnKTzyfum50u7won3rt4AufnUYIJOZvGUeWxnlWJoiP6EpUmxGhxmzIqrKyCKTgpcEx8kP4Ql+LH90brvGplPIVjiohLCqo3x++OlFYczfcznsIbUat9NRQfN+GrZHnDK2uP7S+at36k+lH6dE555DOvbmooihHnDEfJ4QM4dHCfiIGvpXA4Wrdtp82PF5WRaVkfpp+mFRBnPyNOyfUEPtKg5uo1TaEdJ63cUUe/LD727N6N/NxM9OrZlelFqJ8k25rgqveE+6iBqLwTHD+yO6tSu28mfNGP3HtDMuTHgW4LfHTQYuF/ILBeQCeydqRtHYUwZ9Y0/Ph7X6SF/wUM7pWpF/T1mJwsSwvGe2N4YnVJ60Iv5KfOrve8eELI7hXRrrrVPR/ErMhUbATBLHkJKlntEvv0k4C3eF5Ek4oeM2HcuFlbDKF0TEjYCxee6RqD1Sd1Zh4TFEZhVRwDMSc9OEEvxqDTwWpqG3FgXwnT1X7n9Ncqar5rSugTrIR9jtSubQHCZIYpEs4UulY+zypSvmK+2h5V2QkXs/B8Yd5SQIOCw/BU2tRSLIxEgTAlzsKdYNvkmgQnjl5dOVAED1SXzFdC3m71Sl2hOYgXh3XitpJ9B8jPY4juV/nbjVWj4ZksF1+oXM2p2A1/kh4WT88Kr8isTw1dyJI23PUZJetBCXvlsbZnOENBjq/cIitF9/Lls4XRrfKnv9GcnEBlkDNQPnrnnk6A4iuc3vOqPOzegT6vM9oyYSqn9Ji/VYLKLeVVz55/shyiH6FpCqXCMh3zl1BkGD1bHTJtCVGFFzkqC7Y/VU1rViuPhvVlqaakWxzl5AS+/LWXPp9FE0zAKcn00KgA4ypH9YMmKgb6QkXTYzmZOfRUGDplonCkbxdP9aH19bxnuc1+VyJKj3+mwCpNeioJ9RS1awr7k9GEjbABjQ1xROIB231PR0trnY+6jFWBVcwJsPT/aSAS5k6AS875aVMhKwpCGDtpOeYt2Ysf/vyv6Natu2tWoqISKbSw+seofChkW+BjhrdTVgv888Ceqo7pOieZgjEy3bKrGMNwwkwd2i3oc8+OoTCcGKI3zGY9zRiWnHqduhvBYybJPmUMiPdi6l4Ih4PpcF4ggb7D07OEBd9ZoyuMfScvRkinrT2TQl6r1uWan6mgaChcaRAnx9SUI/11q1csb3ZmGvr07YqevTqgZ88O6E3rpV/PznTt0KdHR9vcJzUkq0npqFxkkuQoim7PZh3F4Q96nwf6NLRPNsnyKYobppVyQRwkEPmsKpKFZew4WQ+GlIeY1aGL53C2EPZKdeDEmdqDzupZZU46F882m1EoS05XOi9vOVWl24VNdUXL1OqU8Y0YXCClbEcbKx/zEv56zzfJ9lVYZcurldkfYilYBxpWNfy9dpGfBG3yWW3ntZkOrknixZz4pzw9WrS85edBc0AL7Nx7gfI3HORO1I0iibatbUxICw/d88ow2nzK3fNqeSis2lkPSsN5OXqkizs/0YGNUBlunh/DiXqbSBtqK6tPq2PRoYbcWc+y/DW1owgStMJHuHnpS1FI4ujWHjAY39vBTUwvkzSsw6FM6TXEWD4GM+Fvw17KgxelRxz0lYnwcUNUGpnS9ruOXiTg+cSkhAfjWtmFRwLh9DCyMkN8L+Wb2akvGA3x4WMGlSLpLEPlqXIQryQpWvMQVL0aVBGO/xi8SC3wHwvvrx1b4D3B+JGc7s25HiPhY7dihmJE/HNhxXSNY7Dvy4JTLIJUaYtAZ34WmE6MzxPYeu0xIZsrteBiNhQy9ux1WP7YEKSSUv5mFfJZ9+zBfOvCiZNRkJswT+Khi5zhT5wM/5OcGBTTE4M069GLapY+/7VUIRDQ0KsYmfJReFkvKocYMcssLmIjAMSZYCJIz2aFhZlDJn1C0CeCeouYrEShxPfCiQ8ayTDFifiZcmX4MayVQ/eqM0Xns4qvdPR7UlkkCDVyYMe46lk14zJSUJeMl6Y7SVBJsewSJAzj7p1zIxHET87aUuGVANP2rFlXZ0req3/LxKVreTC85q41NK2cGiJa1aCFZX4rK71YLOJs9aK6U3q8qh0pWIWXKUr0M5yYsFdddm8FMgGpq7JVnnomWP7e/buCIWxgtK1npaE6TKbj/l3QZD5J2hNYtXj3AqNHlsHqTZEIljb9VWdqV6/eVUaNFkWoEDRGQ7ZOQ4JW+9jpu3yrD+srGg2QUxpJf2Zs2fInWSEeHoam3aqGhAcFvtGhXIjZplOPymGKmewqYWahhvSTvrUZVBp1HPqnZCASDTJ+mHHZViqWl0YizvylOIs+RA8EqyuNbmkaItpgbarKMQXEnAX7GKG50A6Ij3ASfQqEpdAwMjagT5IH/V3XAv/p0NykLfAhwPopGRKvmotzc7rJqlVn4gtWtZsvljAUQxBXoJChIExoONKsGQkg+SuerhKO7moM0ASInGfFkEnWNURRfqRCCTJMHa8uPwkvWR8mgZUg3ztLL+mYn6wYfTqlBW9aRKdn8+OzCWdetXqYwtsW98hffoYv8SZDZm5WZjNc7HhS3ug1bx0wX+HGdN3GKlHxF0a3CC5f1YMsu0QGRj8zEz/+2ThU11GQ0tJPYd4Jy1MJOivM6kQKhOGkOjTxz/eqd7pk+Swcb/nORhXkzM85lclHP003aK7VCUniIQao1BjXlc0JaK9WLW2tfUgxwaLCau42wrdk4DpLgFdb82Dt5tWd1mao3SyOrvQTrqooU1iYJ69mpfJtTXUjfvKLR/Dk6JdQ36g2UtAG1geVH5VDdGJl1noQxVFamuemn5QMbxjc5q+Fqw1tazjbC6M4Kq8pWkyctOQE+T8C0ZfK5BwToFMSLk3RvqN/0WdyqJ3vDC/em2B3VrqrA68ehL+8pDjqWe1mHUXPumohZoByMwNjxs7Eb37/NNNIZXB9J8/XlqeLZ7Sg/mT50oN5NTGQfUFi9KYvAeKsCdaFR98aNSopr8Nfx0zF0WONaIwEseitLfjeDx/D/Z//Bb7yjb/gkcdeQelRrTfQtFMA6zbuw88fegr33v9DfOd/HsX0WavtPAgEQlizYSvGjX8RdY2iz6DhYfWiulPZ1O6s72bc1Sn4wqZd+FrV8fHBuyROHJK6htEaHTG0q0OIIBS92xb4ZIJIrwU+JJzcCdRhHMumsyE6MVYJLL0h0/JCG2+lc8d5kuHwtetseqFmEfej5e6FF8NT54vzvU7UM6ugyY+lq7bh5amvm+WDAC0M5UHrQ2ElGLRS2Dqz674uaXIZrWpmCo4RMQ+l6awaOq2cJyPVfKfr8cTFG0q2YUfhRDzcGgC+JUM1ZUaJMz0Xwg29W33YT3JkgAxabxXIFdjC8Q0ffKiorCFTrWZ6yp/4myLg5a+0U4LML4QAr0kBrZi2jsGKaIk6Z/mqnlRSPktwmLXn4WqOfsJdYSVEGdaGwc2Dr5SHkNXVCyZs1Q4x5WXBWH+8lxBpMsXJ+Vk+Zr2yPtV+ela5tEER28hxe+ZJ5aVJwlhVrCASUExXJylWVEcQiTWwHSnY/frygfH5LqbFaGpTKx/zpBJhC9nkxzA2x20WaojZKC86AfG20QKCBLdTNpSO83s3IJbvcPz1JIF9YWLEJtwc3vTgvd77ibfwVYXQ6Z1FZf0qoIS+aYpMg/Wk8+ZtPETP1haqS13VfhqyZ/uTDo4dj+Ho8Tqrf1WhRpccWbq6Fi1TrPIq9UyfnDENgnofE3f42DoTffHCeiF9RYnnwiXL7eCl9OwcbNt9GONffN2mqD53/3W45orTsW3nTrwweSqqahuohPnw0pTpyMxIx1e/chfOOWco3liwHOvWb7M9+wvbtsH+g8ewevV2PpOaYlK4hKwQFbDcf1PnenZ+VhzeGtv4UJBM0zlH2+7O+VlOvGV9eX/6t7URXgiDZDBe1Nzm7EULfJJAPbEFPgKwjiDHTm0C33gMr2Jq7OTiq0A677PJANLIrFJ5n8bX2vgljfFS6TQsyFT8FNxNZKDQd/AaJkyzYcPGpnRE5Rg/heHj8RD2HDiO3XSJlExEo5oRDFMYkOExfFz5+dPNz+Z8KTBiSGMaTA8Mz3Qa46l8zjAXQxb5bBbx4jUqRUVMWgyReBBv+FoRjyziruF2ije+izI+4umUGS4fJ7VYCgkoMThjHHS813f4+u4+kWA4XybxyUZjTOXPYBgnLDQRgIDwCzNWJsuRRzmfY/WhNBNNAebN+AkNo7Kswo3l9NHaS6GDP5f4ZZCHaxiWV+UTUPoqCwWGL8y09b2/hmizGFeO6YXoaFFq1EKIEHMPd7thfrKWhZ/qL93yaPLloimQbeXWZ1lKO8qy6cMApxhJ0DIc21ECMZaSTts/ky4LDawz1T9IBwm2b8KfaXWcYFkkpLVOIp7Qp15sa6XBeoemOhg+RZ8hpop+KCApqBJMN06cdOysoxsJu7DzJ76aIgHpwQ6PYRk0hJ6cujB6M/d+wAurejGOz7bmrc2LE0+bwyfNaCRJZyPE2NbK12gyznZTexCnqE+0wjZJKiJsNw2Xx0l3EZUzoLqgH8PJPyH6SMlhXQTZ9gzuJ32wblSvjVHSIGlA/UmfhGoNg9pBQ/CNpMlG1mcikGN1KFpukhIifJqyXfuz36if1dphTbtxytCBVsZde3cjIycT1107CsNP6YgLz+uH2267FZu37qLCUYdtOw5h5859uOqKkRgyuDNGjTwdPXr2xJy5i2wxfl5eNkacNwozZ79pJwim6AsbSW9VoXiC9S31MU+htBdJ91HDSWkrK0+TcG3v0YGcR+8naOJvqSMp6E/2a4FPDvgf/MGDP/TuW+B9g/Uad2edBez82/Dm/Ndw2ajhaFsgAaAOLetEHDYVx6pS8NK0xRjz3HSMnzwXy9bsQlpaOnJz2uLZca9gyZKVGH7qKUyxkXFS8ee/PIOqiA/tO3TFWyu24PEx0zD2+ZlYsHg96uuAbu07YMfOQ3j4qVexYs0ObNlKZjWwN5lZOl59bRGeHDsDL7w0B0uXb4afTLd1mzzEaVX+9q/TsHz5Dixftg3jnpuJ2XOXI791N9sD/cnRU/DM+Kk4XH4cfXp2sZ32ysrqDd9HnnoFE6Yswq79JWhb1AYFuRnYvusYfv37SThW6cMToyfh4KEjGDKol+SQeAgFk7iDPs+ioGTeDRQKE16ej3GT52DbnuN47OkXMW3WUpYniu7t2yBEobt09Ras3H6EFlQjnh47BS+9soI4HEPv3t3hD0RRWdeE6TOX4qkxr+G5F+dgxfpdZPQhtKVFVdcA/Onx17BoxTYsX78HT4+fYdu4JigEO7VrQx6bwJHjtXj+1RV47EmmPeVN7NpVjrxWucjK0rfd5MXCm+zMFuqxELK2NVIi/a348DH84dFpWLe5GHPnLce4CXOxau1O5Oa1QpuCPNb1Vvzh4cmsg77IztK5BimYMnUh5i9Yio6dO2Hq7JWY9MoC7Nh11Ojg1WmLcLwaKD0WxYRJc/HkM7Oxd38pCgoKkJGWgllvbERdPZU6CpfnXpiB+YtWsw1DzCsfATLsoxXVmPjqEjzOeC+8vBhbtxcjNzsPbfLSsL+sCj/5zV+wfdtB4vAGcduEPn06Iy09g+WikDUFSNMZIuKT3N/AyS/E5lUTAo0GSblI4Oixevz810/aHvgdO7Zl8CiFcDr+9PAY1LC9CoraYtbcZRj3/JsYPW4qXpm+CDtZ70Xt85CZnYVXWUcz5q7A0lW7MHbC68jJy0F6Zj4mvbqcdD+d8eZg7ca9SMtMo+VchGXLN2LP3v12ouLTz7yCSS8vwLGKRvTr1R5BWvvHiM/YyUswbtIcpjcTr89dg8qKGvTs1oWKgA+P/nUy1m0sw/TX3sT8uQvRuVM3bN99DHt278LFFwxHetiHjh3ycfppvZCbxvZvilFhiRHno1i7dj3OPft0rN5wEPW1Vbj0goFIS/UjHEolfZRj0YIluHjkBXaufkZGARYuXorc/Hy0b5dPfZIC1EazvDqV0Bet8dd1mKQoTdb3xwBvy0MjZrr1UbnyY/3mA9hXXIkRI69Afn6eBU2uBREIU/E6gd59jFi2wMcEorgW+LDg9aHmTmC9wnvQaVi0lufNW4hVK1bTUhiOL95/I7q0z8H4sWNRcvgIjlMIaSc4sdIErS/tnnf0eA1qa6I4WhWhMJiC3j0746tfuANXXnYeFr+1BGs2rkWHTkU4a/hgnHlqX3z+vlsoZNIxdfo8vDbjdVw0oh+++vlP2xank155HavW7aA1HsThQ0exbNkS9O3TEfd95lMoaJ2D7/3gRyjetwM3XX8RbrrhUixaug5bdh2mRZqByVMXYOOWLbjxhpH4+hdvgK8pgqeemoiKCjes+dbK9di6dR1uvelSnH9OP4oBDWWQMVhhVDESCe5Zn+5VVtZjzpwVSMQacd/d1zLPUZg/fy6mzVlF64/WVzyK8sOHkObn+zuuwuUXDafQn45V63cgFolh9uxlmPX6Qpw3YjC++uU70LdHZ0ybOh+r125GhOkXlx7H6hUr0bUoH/fcehnL3w/PPjeJFtk+Cp8gJk+ZixUrluGyi8/Blz5/K4I07F+cMgNl5Zrb5oNGIZq7hRrQWY0JWpRamLVu007s2bULZ5/WF/fedQXSwimYSoFaWxdjfTSh7GgtLXyW15o/geraCKqqGqHTCqvrEtiyZQcQq8FdN17GNIayvd7AqlWrcMbp/Vn352L9uk2Y/8YqU3hUfzu2bkRhQSruvOVSnDqkB2bMmI+tO3ajgThNe30VrdJtuHTkMNLUNUhN9WH0sxOxq/gIGmMB7NxxANt37sElF52Lay4/GxmpOkEhTh1MO8gRQTm1kZpJ7u/COwLZVIKU04i3+2ImFixaxnJqR/sADhZXYe2GHWjdNhfbtu/F9GnTcdapvfCtr96B2266Apu27sTiJWuorKWipjaON99YgvZtWuNzt1+B7p27s50XY+3qNcT7XHzzK7ehfWEaXn1lIuuw2nZelHDWuRD3kEauuPRCPP/8JCxfvZl9J4zp02dj1+Y1uPGqC/Dtr92NC847FbPnvYmteyvsqOp9+w9h4ZKluPD803ET2yE7N4QVq9agqF1b1iGtoEATstLCKMjUqIBWGqRi574KjB4zFsOGDkR+djrKyw6hgIpiWpjKkxZ+elv2Hq+soCLSYMpjTnYYeRScm3eUkHZIE/G40YR6hDkTvsln3lv1Ggf5GEHpvz0PWfYneJeupH/yMBPwFsLByfcfN5Yt8PFAi8D/kCCembxxHUYase7cbJkOhtPCug0bNmLUBSNwyQWnYtiADriVgu5rD3weha1b08oKmKZtc6u8D1AKaUWyelg0nqAwKuPLCHp374izzxyOL335AfTs2xtpGToLPB2t83zo16cDlYYaWq2v4dM3fBqXXTgYpw4swvXXjET7zl2xdNlaMqF0NMV86ENr+YLzT8Fpp3TEOWcNQ11tAy445xQMH9wRl188HEUdOmE/FYPDFF7zl2zAyEsuwzlnn4JTBnfBdddegz37yrFq9SabU66tr8WFFw7HqUO70ILKI84SVFrQJdJydeGGLLUjn99cx3a5uP7qi3D60A4Ydd4AnHHmMKzZchB10TgFRiP69+yO6644H6cO6oiLzx+AwacMppDbh5KSckyf8SbOO+9CXDJqKIb2a4frrhyJvr37UAlaTlkdRCAUwqB+PXD1xWfjzCEdMXLEqcigVXuopAJ7D1bR2l6Lc889BxePOgdDB/XCJZdfROEKrF6zkzjKaiWuwl04q22tXf1sozCbNoTUtAxafoMx4qz+OH1YFwzo1w179hxCZXU9rVrNGWveWvH40xSFjj22I5CZjr7abte+LS44dyjOPKUblbW+aN+xs528du5Z/XDuGd3QoX07Wqg1iESiZq327d0Fl10yHGec2gWXXnQmhVIn7NyzHwdLK7F83QGcddYIKpGnYfgpvXDVVZ9CTUMMqzbsZHw/GqhsDBo0wBSFgf07UCFMgzY0CqRIBSOp0bxPkq/B2x7eCe94qQVwWpzIEodDPpx15lCsWLkWxaSbOGls6VtrUdS2HTrRUu7WtQu+8fWv2bD34P7dMeLsM9ClW09UUhFqooDWXHqrvDxa12fh1AHtkBoMUImbifPPPR0XnT8IwwYW4vYbR1GpvRXpqZoC8LPee+Haq0YazV50wWno368Ptu06wDoO4Zxzz8U3vvo5jDhjMAb174bzzzsd6Tm5OELlWeflR6JR9OjZjZb6ANZLR9ZDBFt2bENhURuEqcDZglhNSVHxbvKloeRoA0aPewUhWvLXX3cZcdDag6jb4MkWGcpSbkJaWohpa0EflSq2v98XR2Z2BturjIqsx2pV8cYZ3Fy6E/p0xkj00gJ8zPD2fJJ3JvTFvzT1ZaIhKfD/VXi1wMcNHhW2wD8N7+wHfNb0rXi+dZi49pwnA6BPfl6G7WoXDqUgNyuVTKc9BYjmpLUIy0+mEbTFPYm4GGEU8ZQocrKacOnFF+C1mUtw653fxvcffIzCdjstOJ1VlmBeDdBRoVrAdJwMNJgaQncKdO1UpiNzg4GEnchXXXGUmchSTUNWVg7xYNOzN2emZSKVVopO9PP5GikMGu34zniiESVlZdi0Yy9WbyrGhJeXYtyUZZi9YAOOVjdi1/79iMUb0IEMvW2bDDLSGNxXCCyMVqgbv3BzlUmrRjvc+RiuS5fWyM+lHZhSC19THYVgIQVVPQVvxHYTzEyjYkArS3uZB8iMxYQbIo0MQ4uXTL1v3x4IBeKMT+ePUkFJR3VNtQkaDdtns261u5m+h87JCCEnM0TLMIrS8jps21lGwVCKya+8iQmT52LOG2tQUl5DQVVq+EmA2dcDAs8Cc5+exSnQG5GWHqIlF2LaCVv0n05lQrjH1NYURFLwtLJfGwsJB9WzrRqnYIiwvlLTA7SItbiskQJESweakJ3po5DT8Lof6Zlhq0PVmizxosI8hmfwYIrN2wdCYRRTedlfXIEdu8uxYn0xJk1bhbET38Lrb65H2bF6HKDQjercgEAK2lAhDEmIqSy2GM6V0cpkwzAfBETscrLuJbDUsrTogxTAvTuhbdv2WLlmq+GwdNlSnHPGMBSw/nMztKgugTlL12PcpMX44yNTsGDxOtTV6WsGKrVUZtu2yWWfYL2yf9TV16OClnJBodZlUEj7oqDcRFfSSTrbNMBAOdmp7Ef68qGO9EGlg2WkkU204sgvyELp0Sq8PHMpnh4/F3967AUb4VEbih6FeftObVkXdYygQ3FAxTXCvqi1KKwnNbt93eLD3uJq/Okv4xjGh//5/peQk88ym2SkQtXQIKqwtR9aP1BV3YBgyG9TU6qXSKyefS2dSl+CfdwpjgxsOJhRoHxsRClZr/9ucDi4/noCK2Eu1wKffGgR+B8SpJibct4M1oubmalbva6O7oMOhtG39+K7dbQq585bgX37yxiWrIjRdCa9lsnoWYwnSIs1NZCK666+HA8++ADu++x1aNcxG6+8+hJefnkau6AWtklRUPrsnBQq9TRXdRiJ23o2SAHkQ029W6ccl1VCxhvXFrPyMcbFf8lpJWALnkK0UPiOr3R4T5gCq7biEI6X7EBZ8RZUVezB+ecMRq+ePVgiv+GXGgwxPvMjvqoLfddugkWrxvncpFX2Vi6yWpaxoZFsMi6rl97+EBobqZgQ94D2KxcyQkuMUI5WaHJbYI2EhCkP6+tr6Ecmq7LwhepSdRBjuQK0ymzVvxZKMnkJYAtLQaCtzHUUak1FOcpK9lCh2YG6mv3o26c9evXqaoeuWP1bTNUPL0LG2lJigvnRyTKW0NFrazteZTXqKwTb0tcqVfUdp2KmWLQU6RtQO7Gh9UWBWwXNK7UGWVWqS+Wlbyd89tkYg7L4cT/TZ7nEcEUfyjsrI5NWpqz1GBU5tk3Zbhwv38Vy7cWwQV0xkAqR9DltThSgAmWffZmw83ATNvSTr2Pkcu8FLtTbw/DeiEYjBJYRsrPTMWrUSCxZugrL1+xAbW01Tjt1EMvShLeWb8Qf/vhXrF66FLXVpXYWfp9enUieaiOVl9TD4tsOdqQbKSohP9tcmrMWBtLKrq73Y87C1SitrEc0Svpm20u4CxUZ2Tp3QZ/oNUZ8mPDCdDz1zBhs2bqOr2swdGB3dChqTTz1NYxKnEKaDRtuEvgqWYA42FcpKqvRSwirNh/Aj3/+W1PwPn/vp9G+MNfaV23Qq1c3HCwuRmUt20qkjiBqahIoalOIjAwtJNWeCKmIRpgf0za6llN9JZ3ytNzlPm54Rx5q0iSwHoSJ4SJcT3rpYrn35lR/J8dtgU8UiPJa4MOAEb+sM3YHdgY5x0Tox94il5VJKzo1nRbZfjRqLhhp2LKjGI8+9ixqquuRl5uJMlrTdRTM2uij/Gg19uw5oP1mUHygFE898STSUhNkqKfjrrs/jYGD+uHgwUNMO0BBqZ3d6FKCtGzy0KlTByxcsNis4TjTaogGsHHLDioK7W1uUguQNAzp02E5xFNyRoJJCobkfIwM1g4oIf6tW+ViYL+uOPv0gfjCfbfhy1+4E5++9iJUHj1AwqEwIYP1kSknKNRMfplFT4ZoHFj8VQxUXspLAZRHClav3Y3SI3Vk9ZlojKZiw4ZtyM/JoHKhUQblbOyS5XPpicnIJsrPzcWQgX2xfNkKKjE+2lZpLCewfsNOtG/fjsKc8VkGWfZaZCXG7ZPSQyHrpwBp0zobA/p1xtABfXH/fXfgC1/8DK679mLbR10jFAEqLrbegBxNf/qXM6EsP+Jhe8YzjIZxzAq398SVEiszI81ONyw/VmXrJWjwYev2fajU6W4MF6ZyI/zU6VKo3Li9+1U2KimqQ+auE/xUA1Jg4kx32569qK6JmgDSWoBDBw+gfVEbtG+Tj74929OKHozP3nsbvqS2ue4SNmA1mqK1bBuXj2hEQk5pM1erTwkeXRxYbnZ9b1BFCJJhkuFZF0zIVBrW/WmnDcaxY8fx8qvzcdrwU1jfuTY1MWP2YrQu7IrP3/853HHbDTj//OGIRWtw7PhRw0pKiSrScGQ960z9nt27YMf2A1Sk2F/iadi66yienzILdVQUdaqjlDCbkiBqukppUJuXlFbiiadm49zzR+GLX7wft99yDQV+L1Qzr0hj1PKQSJMyrb6p/HRqXpvWBeyL1dYHpITuO1yJv46djvad++Lee+9Dl05F7DfpjJPK/IMY0L8HFddG7Np7jH0mA5XVCSoYezH81KFIC7PmiZd2/1P/Fm0H7NAJa3llcNK96E2Otx87nJyJy/tE2/LqEYV9TXASqIX1/v1QSgv8Z4OorgU+DJD6xfjVR9QhfGLgdK7PqIPEaQXHMOrC87Bw4Ur86veT8PS4+Xj48Rcw/PRT0LtXWwwe2IkCvhiPPDoJ419Ygt//eYJ9/ibGk53fCodLa/DYo9PxwqQlmDR5PrZv3Y0zTx+OYEoE7SnEDh86jhdfnImGhipcf+1lWPDmIvz6j5Mw+rkF+P6PHkZ9XRVGnH8WZRSFoOaTydQaIhHaU26+MbkxSor20OR9mIIySAGZn5fG9M7HK9Nm4Knxs/HCKwvx50cn0MIKoEfPzhR6WpzUhIgsYK1SamqkLOFV6WmTGfmJifPe++qfTDkFR48BD/9lIsY/z7L+8SXs2V+OkRcPRygk5YFhGd/2+CaG4jWGFv1zM0K48YarqTBswkO/nYTnnl+K3/x2LJnqMZx7zmnMjkK7KcKiRMmcKZBVUCovsvwCFHydivJwyw1XYPGSVXjiyRcxceKbeOKJ16hsVaFzxyIkosJRVqda0ikbzron8CLFSszasT0iZYqALn7m4UPbNjlUPLLwxJgX8fjYORQY87B73xEEg2lGDzqdT6vrnfJAgUWhTrFD5YDlVHasdykp+p483iRhGkQxBc/o8a9j9LNz8OdHJtgisYF9uqF9QQYuO38Y5i9chj8+OQVjJr2B3z/yPA6X1aBjp/bMk+Unbn4KtgSR1EiIGcymRGm4Wlanc+8PWABzCu85lkOKhSpHGw8VFqZS4WyD/fvKMWxQf9Z/hJZ6Ovr1748VazfimUmvY+Irb+I3f3oKO3fvQXU1FS1a7zptT1ssa/8IpRkMJ3DdTddh4Vtb8MfHJuOZCXPw9DOvYiDTadMqw+hB9ee21tU0FdvLmikFuXk5OOvsvpg5YwleeGEunh03A3/5y1gcPFSF41XVVr2GrykYKgfzo7LSf0BvHDxwmLhojj+OOW+swOIVB1BRE8ATo6fhN394BT/93RSMJi7HK6vRrk0mBvXvh6dHv4axzy/CHx+ZiNqaRlw0cgT7jqa3hJOPisZx9O7Wxo38qO7Fck26ewKffvqs0Ubp3ndbfPQgxUlKv1pYVamr+006gfD79+HYAh8eWj7L+6fgBOHLWhDs2rkNC+ZNx6dGDUdRK632ltDiC/UkMqVWBVq81B6N9ZWoqSrFOWcNxpWXX4icrCAKKbT79euHyuPl7G21GHneaWZZd+tUiA5FuejlCdfiQzuQzqQvu2gEzjm9Ny3iGPLzs024HS7ehT69OqJfn94YRObVUFuNiiOHaAV2pFV+MdPKpyBPINpYi+5dWqNrZ1osRE9nfWeE/ThlSB+EU7VJShyxSAJdOxWgqE0uiopaoUP7IhwtL6E7iAF9u+HG6z+FjsRLC+wCZG6DB/cgXkxNq5BlrUmyiIEbU1P5yUjIafV53Lr1O1BVXYlbb74G5Ye30moP44ZrL0G/3p2JT4xWWAMK27bic3vGpwAmc9RQdhfWRdfOrdCufXsqSd0RoXJzrLyY5e2Ea666EN27tqHMjFC3qEenjvkUvAVkXFIa4mS2cfTo3h5FbfNoHbdCx3a05o6X0ZWjd/cOuOySEejYobUpORrmNYWNuDv8WRYKTTfFEEOIafViXoWtqZAxB01fZKYFMLBvJxTkZ6Jbl3YUSLTIG6vRq1s7XMC27NG1FTq1yzMh0JoCq2fXtkijVam4Gpru3b0IubQCNTasY4A7tm+NLh3aMOs4Tj+1P7oRt6Nlh9CT6V1z5UgKmxwKqRQqGFo/kUuF7hiqj5ZgIOvwuitHsS4KKUg1dVOPgQN6ojVpRIMubjGW2kaESefx8SQNf1CQWqREbA92/gVo+WayXN2J5xmkT61P0Il3nTp1REFeFo6VHaQuWIvzzxlOBe0UFOansS7asZj1xDHT2kjjNsK1dX4+unfuSIFZhuMVJRhx9hBcPHI4sjP8iDZU28JPfbliAlwjJYlG0kch67oNBXEPYhNDxdED7F8+XHLx2Rg8oCvaFWahM9s/2liHXr06oG1rfaJImmV9BALpWLVyBZXvgWybIEoPlyIjFERWuAGBRDX88VriTms9O4h+vTohLehj/t2Qxrbft387y1iAK684l/0ml1WiQ6N8KCupw5tUvi+77GwUFWaav/iCQDXXzB8MWFfJ248NTmp7z9kOiQQpuBu2FGPPQX2WdyXy8vL11mg2iaOUqxb4ZEPLaXkfCFRVcskOo76gaxPmzJqKn9ppeV/C4N7a6EQmIV9puDwlREWenIn3Wrzjdr+jHKEg0VCzGLuEYUzzwBRQWslui4cYSEO/EjSReISOwiuQiiCtIr+vge9lo5MBRpxlGgq6TVdk2Gq0XnPZSl/bx7rtVCn+YmSOvAkEGFYLB5hXY309/EGtcGdcCqEYrRxtN6tVxtr6V3PwNMKEDeMmEKD1KLvEbYQjKwsUqmIGGuinPz1kVfOWYbRKXduYamg9hHHPvYyZry/Ek4/9Ftlp1YxHbGTZ2VwtRXxUJ5FpjtzZ2cozFqMQZvI+29pXXzDIqtPcqeblqUjQspfVbMxJ9auqY1ryD9Jy0ud8dl46cQqqPmlpyypM0ALTcLCEklnBzEdrCZwFTvT5TvPt2gzIzuanxap5ZjvpzwrHcMpMYYNSdNTWqmOV29W5O01Q+GvRngQuiBMbR9H5E2W4kApniSgJWa5sFlr3al1rK+ItK9gs9oCrFWPcrPuY7a5HSJCWlA/bW22mtoixrW0OXzhoZZqNHvCVnAqYdM1w8v17gcIknUC4sJ5EXqRnTQ+pbTR9pOkZrcNIxCVYSKe0nCVc7Yx4Rk/ENZWiuMLXtbEt7FTZ/KRPtkfM9q5n2mx7dSEmbm2i3fJ8pFmrFMaNs01VM1bfxKXRNnhSe8RYB35LU7XvIx3q00+NziisdgrU1Eo0no6/PDoGp59+NoYP72mDUxqkSuiH9OvOuRcijEeas0yYXyQWMRy1cNFHmvWr4xE37QkxfeoyHD9egTvvvsy+qKGmoYJYOtpNUDRBD1d39NcbpfnxgUc73r39Wp9SacJ4dvIKzH1rL77/88dpnHQ3VFQPhiAfWgT+Jx9aWvCjAHYKMXp1C9tLXz3FmCs9xSPEgMkIJDh8ZIQhWtISVGadkPPZ7mAUJuFgAkGtkEcjmgJk0EExQnZIJhMkc8tI1QI5MhefmJDmL7VIzm876obT9KwOTabK94FwgvmQATENy1+4sMPqJLpAiMyH4aRo6BzvcDhkzFaSRnIt6NfnS8lZXyoNKcQtROs2nEIcybAtLf6TYSo9DeNrCLq2NoYt20qwZccxbN55nNdqbN1Vh227G7Brdw0OFlciEhFjFpPRinziTMVIw8GybrXIT4fuBH1aVKgFXLwSR+kmPs3bagdCY4wSZD774kGH8ugIFQlb+/SNBfFTqGsRljZO1X8gRCWJiUiYq9yUPzaqHTALlLiwviKRRpSVNmAH8dy6px6bdh/Hxh0V2La3Ftv3VdCVo7qeSogyVSUZY1fd0k/VabXF9Ji2LN1gWphtrLllMXa9ZnuwTYMhxlV8heVvSIqRVSYvTEMju34qXrGURsbTKn+9i1l7SIiClqzqxJqAP35GCPhYNpZPZ7Bbm1q3Zj2aAkfJY0oB8fNwVl0pf9GKOQ+f9w9eGZSNECHd2ToNKTi8mP6mttC2fqQpKWpabR8Ksvykce3loNEY0brPL+WAgphOGzX5NNfNdpIy0EShHGAYDRqZYqxOpjUrgTT4tDMi85a+ZVvxEhcpO4Yb64EkjdTUIK9UXulHdYt4qO6oUEgBkCLEumNNwhcOIxiO4ZRhQ7B23Tab7tLXJP6QvnqhikDnY3/yhamKBlRnrq3lgmzrNPZlCXontLVlbxiHy8uxYs1buPjiEfZeCpdqXApyjGWz9rMpIUcfenbQfPMvBQ3KqV/oKtBFTqVMPnivWuATDC0W/gcC18mbe4CejNkBs2nh//h7X8DDD30RQ3plOatKQtU+9WIAWj9aBe8+6aE3mZTdKrLMHTICF4csWAzMkidDpyB1HEHPCqf83a38pXzrwBYJOS0S0gszeiwAneLS5NSQXXKUQZFsExDT2Omnq8LRX5akrC5i4/ChANHqZfIm3pOLklzEFNzXB/RkIWJkZn4yuW3b9mDcC1PJFDWloX8ip3IxvCz+1q0L0LFjOxw6fBh33HId0vVZlRI27kfcdSVemp8V84/RgjcLnGW2E9WEK4PrNDmndCgTslHeu139iL+e2SZ2RKmUCWP3vLds+GNYi9ESf6+eFb78aBWmTX0D+w6UsNUUR3lTIJiV7ENebjouveQ8dO9aZJ/aMYDlZ/nz1n1dwGfT4oSrrFApZiyL/NROVGr8VBg0bG9zthZR8SwxK49kmtISDYg29Irixu6doHaKo+rLK47Ft/Sk+EigS+IqrOpEipTqTaA0LC9lIivbCXxn+9LPnCCZ8LuB3nlOwaV4kiA0D42ARieYnvKw9F041aZ9taI2USQrM1+RUGXdW/sIN7uziylvyUWbLiNHt3ZvQyBsG4YxWuSja2W1hfKiB/PQVx2iTcXTwI6ErWhYGGn0SyMQiqOKFH1WVkWxbPk6DB7czXZOtHwUgnWYHPo23OXYl60B1L/ZaOovGowIMG9hosWWx4/W4dQhQ2ytDdVM9otmDK2MamdNH1mjW/9TOQXK9+MA5Z/Mw12TFn4sJYxnJq/EfFr4P/zZY80WvlW/iNdwIo4t8ImGFoH/gUBVJade4DqMhIVuX/cEvob0h1Lgq6c4JkGGYEHF9H2IkolpeFFDic2fZiXTFCOxJ2MJjG/sUTfunRiWMT1dyQDNj8zLmEwSL1q4ls5JYSXo6WfZkUFZvvaO4aVQmLDgrefvFA+LyXcWiRfhonl4+jqkPMVCUWiN2R73AejTauVF9ke0JUzcEK8EklLQFwLCNU1z/rJGrRyK4+FiSCpHCQ+Xd3I4VYJO6Fh96Z2iEB3aWZSzErAShm5IXPlJKXFCXvjrSlBa8pMQtlf6kSUM2yQnqikBoWR5ssRkxFqBr9EG7WQnSzuFwtiGnS0BXnkvwWUHyeiZ9WS82xQOYa1yeaGtnAonPOiUMcG949X96IkXhROLVrmVhuo+GdcThopodeHCOlBYe0Gn9L1wajALwvesM9GmTiI0wdosbBwkV2p7l3cBvfBwMUVM+DA9lketn2D9Gk0SL5+XdrP6pahWvwJHuUn6VVzXVC6Oawd6SLCqWPxTW9piPeXDt36mbwqpwKKp1qUwKILKzCcqP/JzAYgrr+bDd/Lx2XhQHDEqaXoOSEGXEiOlSEoMM1BeSls42oFOlp6m1rTIkhdqFTakzwJGpExSGwlJ+VJ4/usrAh/px5Qf+YpGqfxZMqovr06Mvj8WUMoqnbu3X7aZEJDAH0OB/wYF/o88ge91DeIlfFXvSfxa4JMKrgVb4J8G8VxBkpk4S4V30ti9d+o4ZlWk6PM5vdR7fT9vrIOMgh3KhLJesGPxasJK78iUNa9pK2itwzGc6Wi6l9PxoH6zaH0+MhSd1qb01EmVABmOdnqTVew2lpEnnT5KF5e0sGQ6snaIgwl7s7rFMOVNcSVr0mOAWuWt+W7HoBWO/2R0Ql3T2NkZCeRkJpCZlrA9yTPCQWSlhWwznfS0FFuBHU4VCsTFBJjKLcbqlY11JKchYp3CpyFrV04xaNaNrFbVrUPOnpW3iRJjmFIqFM/Vt7FzMWHDV/dKhVY2mbHNBcejNII1zRBDONSEzNQUlsGH7HQfcnjNykhBemoUmelqlxgtfipMyt/S4oXAUpil6XByV7PqbdSCdaawhp+EoMIwkIhCQkFCRQVgfXty0ULLSxQgYWnnpMtTaVoGjGuWpcolAaN6VBi+szpQu+hZOFCQWcIesnpvde05CWolblJY+Ojqhf2HkEyX8WzaSMmznEbbLgdL/W24sbyewE2CtauCmJfaOfmO1ySuuvBR7Rm3NKTYkp6Yll65Okjir3qTr8rvBKnm6RMa1ZKyRqWEVMxmkmWvWlY+UoTjCLJd1GI2gW9HHRM3j9703kYkpEAwfpzPUaYUt/ZmbqpD9hPNoGj2JaRpKCm8qh/G0zoXa1PiLVKxKSvrb4qsMin8vxpY+8TH1ZqoU3dyfwtJ+myBTy6oV7TAPwUndwxeTR12z2JK7ltugpiuL0Shq923Um0o0TFrWcW6VwSGSfIqS0sPZBOJGCKa+zOhwfg6GU2CSsH0a9ahGzZW/uI3ZCX2lgH5QxzM9JCAI0PRCWNKQ4xQCoQ6sMuKwAelZ5aJ0iUoqt5RMJozCFE3yeKVTFSmsIX3WDQFos6JF8cTlibeyExMufEYK0WxMWM37KoMlC8vSWSSOOiVnPsxsODCw8pGsPpjbZtVRsZqUxdOeChdlVXbo+pLBMeo6RjOrHGmoWBKUjg2W3rkxE55ktDi20Qjs5PSRZWCjwFydsU1PIUz/exTTEtJeMtfVy893hreuld4C+LeuzTkXACzV4XjSX66avpHOCe05asEvPm7vE35UztopaDVG8N7+Ztjqs5KpjNFUSB/KX8SXEm/JJzso7v3ciqdo0WLYXnJS+2td8m3zEPl4b3Rp7wU164Cd+PeOX+lp7hWHzbk7Ghcims07qMVnsa3Oj1R4VVXKquS8tK1YrO8hhNpkh6mHLBNpRwbdh5OJ+pCTn013V0ZX3io3d1nf2H6h1iL7EdxUpvqWWcv+HSKXzbDZzJJ+mndgvLQAsa49nXIJL4Mk0KcSffq/03shyna5ppWtSk0IljxBCneprT8a8H1XuHgXQlWdu9JdGuKp71pgU8yeNKhBd43WJ9gVzDOpU6hDsp796iX7lYMQX/sKI2RJkx4/lVMf22hGy4WIzIhok5O5tKkzVEcE1GnMwtCFgdbR5vBVFY14Kkxk7Bpy076yZp24sWYlQSs4WBd0zl75LM6KdPfvbsYj//1WdTWiXn5DAdZixpstrUFZokqvleI5ovSo7/e0RJpqK/HX58YiyVvbaB/wIa6XUDlxUyNYcmHZWAcxzLcr/By8/DKS6MF7uxzi2rvVVdKQ+mpXLrK6R0DNZdPV4LeJe9tWFLDpbylxa/v2nfu2oNxz07CsaNVRN3VmeaXbXjSFC5VkoBpEFdTSFTh9syrEFNF+lkLWijGOtKQptQWh5P9uLrmrUcOnq9u5PhSQr1Z0CofKRKqdznlxbbms32NQXDCmuEVhs6+1tB7hZXGIRQNB90IxySwbRnPBJH3Jz9n3XthzUvpCWnVPpUSta3nrC0UXM5AYV06JyB57wIrfeWpTYIsHaVPMMGme12tkuJEX2XjbbPzymrgMjaaNOA7w1PCXk7Jq+5S8crUBRg3/mV6UIFlOMl97SgpurN0dLF0lb6IXekQVDhPKbI2sXZRHSivJtTVRzFp0msoO1JpwdQnY+wf5VVRO3myqlqKpXaVlAIewLHKBkyYMB333vtf+O3vnsSO3Yfob0TI0moDpggefnQCHvjKg3jsiedRUaVFqIzbFMLatduxaPFaKvQOZ22D7ZQO4Sq8/oXAckrZUls6g8HRQhLcdJ7C6E0LfJIh2bta4J+F5r5JwUCGl9z1y7qxOpEsbDKjTdv2Y8f+CnZsbYcryyDVVgo7IamNR8T4AzaX1kQBY8O/jKc50cZoE9ZsLMbh8grZpxRCYnRkcBo+ZDqK53oi0zLmyCuFXJM/THYZRHVtFOs27UaUjMb2eA9on29takorRAxIwl/b+ikNY9zarIV5U3iq44sFaetYFWXDxp22j7s+KbQIJiwYRwJLEpf+EmD6DC5BJSFOLmGjHfqyQEf/ylFw2UYwTM+24SWjS9BfJwXGxMSZTpOUCc1/6tAalYV4aojehKQJPtUD/VjGJr/OTg8hzmfVWyCQgeqaJmzaegg1te7zRcWTUI2xQDGim1B81oBQV5ltQxp1BxVYr1SXvJWfBKnOKogycIR1prrRELbazC3CVHz5p9Fl8p2HJwWalAzDVWACjk7vNJSrOgvQUmXcCJGKU5g10ZlCFGMcxk0JsVwa3bE5ZtGEwxuaulHarEfVl8qveXOlrdXtTVRU4my/RsYh+bh4alsrHJWilBAiTVr4JpRcWmZRu8ITrPAe6D75rKvScbeqCvc5nkax5M/8mZYJX+Kk8rj2U0ANr7OOtNmOTc0wuDnhzNwZTrtDiq71rKbQ0dLafTJBfA1D1s2u/XXYsLXYTgy0OKJfFt3NTrAMUrJUFpZX9RJtSkVMVrop2MpPfUPpsd3MelfJ07B2/W4K9QRyclsxf8Zl4KqqIJ56eiaVjFUso2je1WNjLIgXJs/AoiUrcOmlFzNcA554aiZKS7W5TxoOl9Xid488ix17SjB82ABs2VmG3/x5PJWJGlaDH2kZmdi+9TAOlx5nmcgziJMKbDxDfepfClLKyFGMTjWy6EZEmrH4V6PTAh8bqLu1wAcBEwhy3rMHNizMq7NS3VX9RAqAvBLkRjEK3ERC35FTQJkTgxancsxJ3x7rKM5EIoMxdWJKmHKBgkRxyfB8FA6K0xALMy0ysaY0irIcMrUsXjXkyBzFWJmOtnZtjOmszxwyPKdAROxjeglgWZRkvMhEJKE0wlQExMx0kEiE/rJQMhBNZFEwZDDPIPGQwJFVLmGc5k6GExOmAiPQqn8iSl4rZisPlV71oFh81dhojFXhI4lUxk9j0bPIWGg5m6AKOsbMMkm4xVlXUV6lAMT1TMYfI1NO2AiBODvLk9BRwl490EXjqhcKdEo4W0Ro0yjMnXVr3+5r2BW5zknoiOEzvCk+VJwcY1PjCWPmY05WpUYIpHhkML0MZq9hX7aLzEAxZwn4lCy+y7Y8JJxslENll2B/GwNnHbEdYtrpkEI9QZw1tCvBGGW9xFlG7R0P+1ad5ZBEZnqJpgzDO07akIJgazB4lfIYY7wmtlMT0q1Ore5iwkFh06hXiIbY9qYkqT4d3cSQRZrKIk6iQeGWZPJGyfbcbDUbqF7kBC6MRh5s5Eb1J0Gq92yXQJh0Y23HvOMawVJbMl+WM67y0t/WpFBSx+OkeeJktM8wpuRJwVO7k0ZtyJzlD7BetKuhG8rXHoWk0SbSP99p33qHE4GKVJxho02ZrFPGZ7vpUz4dv6y2jTNPoxvlxzxSGLa6IQVvrViFfgN7MTrpnNW1aOEafO3r38WMmfNQ06jv7anIsM11wFVJWRVWrFqL2+/4NK6/7nJ84Qv3Iic/B9NnvYH6aBCr121HeXkpvvGNL+K2W6/Bf335c2ioqcPSFdsRiaegQ8cOyMvNYxobra8KdVf7rFOvGB8bWJO69kuCtaz4EGvE6DX56uPGpQX+pdCy094HAuspnvPAmHkTdu/ajjfmTsNlo4ajTSsNAbPjWsfxkfkCby5ZD384D401xzB6zBgsJ7MoKChAfn6uhY1QuKxetw1/fWIcXnnpNVoa9WjXoQPSU8Ooa0zB3EXr0K9XB7Rq1RoTJs1AlEJt7vzFeGrMZOzdfxjde/QEg5I5pqCBRvTMOUvw6OPP0mrZbkJw1+6dGDXqPKSRL8bJkOfNX44nn34e02fMYRkC6NSxnX3vrKHt7fuP4pmxU/DkUxOwbe8+FLVpg1Y5VBxiCcyetxQduvZC/76dcbyyllbNOBQf2Is+vXuYziJDUjP1chpu1QI6SkYacWS0ZGxz3lyDR/86FjNnzkcwkIouzJcyA3v2l+Db3/stitp1xbSpL+Op0ePRQKbbqrAIy5atwiOPPEGLfZ/hmc5CHNhfjNHjXkYwNQ8Tn5+M5ye+Qo4VRLt2bRGm1V9WWon1Ww7g9NP6Iis7hPJj9Xh16pus3wlYsWIjQqmpaFNUiOrKKkx97Q0cPV6Prp3aqAIpiFMwe+4i7Ny5C+07tkd1TQyz5yzC48R75cqN9u11m9atKRikqAVQVl6DiS++jrHjJmHFyjVMtw1ycrJZLk3NSPFjAU1JcSAhqemQhoYmvLlgDbbv3GtntD87biIWLVqBcDgNhYU5rE8/auoimPX6Ajw9eiKtzNdx4GCZ7dqo8xkOHDqCmbMXoro2jqnTZmPS5Kk4WlHL/DtiyeLV+POfn8TGzbvQrm0+WuVnkA6aUFGlve3fwhNPvoClb60iPaTbjn2y6BxyJ3i8E0DC3T15N/xVCDknHEpKK/Dscy8hK4t4F7SmLNFX9n68+PJUHDlylPTTAQcPHsHY51/Gk6PHYcGCRRa1fds2VCTDWPTWJmzYvBMbNu3As89OQHYOcWpbhPUbdpEOJuI5pl11rBoditohLS0Lby3biPqaKmRmZOGRx5/Bm28uYb9oxbxzHXZUkBau2IIxz0zGuHGTWQfbkJqWhqK2hYhGopgydQ6OHI9i2vTXMG/OfHTt2hP7Dtdi1eqVuPjiM5GdGWa4FLzx5koUtmmPESNHovRYOS46dygy0qigkJ4Xr9iJ/Qf249qrRiAvO9WOxi09dgQLFi7H6WddiAWLlqJ9m2xceO4w29ciKxzCnl37sH3fMZw2vD9SQ2Ae7E+ks0FDhiJbOqS1wYl6/mjhpPZLjjgRbJ2KDADygPWb92PPweM4b+RVyM/VTntejI8DnRb4t0BSXW+BDwE2lM9e4Yby9RkZ+4jxRHUmDf1S9PH+5VenYc7cOejbbyAthGr84McPY8++47Qc/Ni06Qh+9KOHmUYYZ551Fua/uRzjJy5ERSWlHpWGIKWp+qmE5tLVe/HzXz6OvfvKMHRof1oJ2y2t4rIaWjHZePGVeXjmuVfRu39f5LbKxsSJr1EoVZFRURmob8S4STPxo4f+ija5OejfewAee3w8xr+wEHX1qRQYMfz69y/YCXuXfeoC1Dck8Ie/PI2SY7W0JGU5N9m+9JWVDRg/YToOHqrD8NPOIONmoYmfNn+xhXr8Mz8TDClopEU/4eU38PjTL9mZ7/169yMjn4lJU+ejkdZxdS0wZ95hPP7EJAqmIIacci7GPT8LP/nlM1i8dAMGDT2TAv8AnnjmJTQ2ZeHosQimvyZFYCLrLIj+/QdQWEzEpEkLUFen9Q/unADN7R6tiOAvf32VSs5inHXmMORSoPzl0fGYMWs9FZIcO/jkdSpA1bURtpWPAr4eK9bsorBtQkNdHGPGzcQrr76JPr36IzMzFxNfnoMFq3ZTIGfg0OEGPPzX1zBj7hJ07NyV6YXx2z+9gMXLd9jOiD59kqBRFxOOvHj1QaRtLcX2naV4/PEXbe/3bt26M08/Hn/qRWzYchCVNSEK8bkUPCvQp19vDBk2BIuXrccLL87F4fIYqG9h7pub8OdHJ9JiBQo6dMbo8S/jZ798Eus27sbpZ56LbTvKMOUV0lFVEFW1AYxlnT/3/Ez07tYFrfML8adHxmLu4rWopxLopoaIqzWl+2sGEwwqg/x077xVrMz0bOzfV4yFC5eyvqnk+GM4frwRb8xfhnAwFYfLGvHDH/8RNccbcOklF1GJ64iHn5qFNxZvosmRgeJSKZgvY93aHRg0qDcyMvOxau0+/O5P43V+MM4ZeQ7mL12NPz06htZwCA2k42lzV+KZ51/E8CF9WZep+PzXfokNOw8h5s/FzHkr8avfPoaC1oW47NKLiEsMv//9GOzeW4XGeIBK8H786c+TSMsB9O7Tj/SaSgV8MzKzpUixvUg3aRTsN954Ge6770oqBK2oDIdIz6wb/ms/hX1UsttSGdVWv9rOWcclZ6aF2QePsK9UYn/xYXTsoO2ro/DFGtzsDTXy4rJjbPdGhEI6nCrLjuXdtGWPqpHVqkr9V7NktqUse/ZrdVf3yS6vjgzsx2vxFvhfAP9q6vpfBzaUz05iQ/nsFtZJ2HGTzw6cEDx9+Cn41je+jFtuuhJf/cr9FEh+Wt6HcJxW2R8ffgoXjLwYD3z5c7jmuivwla9/jRb/VqzbsJkMRlvyRshv49DuZTU1EfTt3Qv/9ZXP4c6br8QP/uebqKw4jlVrdpB5NtLaegV33nkz7r71Wnzmtmtx06evsCM+dfjLwQMVmPrKbPy/b30DD3zps7jn7pvwg+9/G/MWrsaOXQdpGR+lEnIEIy+6Gld86nrcf/fdOP2UwXYwj58aR5xMksYWJry4AIdKKvDFL95Nq7qN41XGGUhSVnYN8ZP5a0U6BcmxygTmzl+KW2+/DZ///P245zN34I5bb8bjT07E1p3FTFdKEXD++SNw72duwt133YR+ffugqiqO++79DMtwJW676TrsIo5V1Zrz9xGnRlw88nx88bO3467br8MXPn8f1m/ci2Javhp61e5s2i533fotOFxyFF994HP49LWj8Ll7b8LVV19JC/Q1lB85hu7demALrcADxWUUKH7sOVBCwduA7j37UmAesOHZT998K+6++1bcd/9tGH766Xhl2htMsxqrV2/F7j0H8Z1vfwOf++wd+Nz9d6Br915YuGQ1Ko7XI96g+XEWTI4V5CiE1n5c4x9+1Dc2oU27trjjrltwM8v4pS/chw7tOmDX9mJUVR6nghFkXd2IW265FrfedjPr7zMUEk04VlHPJLUgNILzRpxj5b+PdXYmaczHdK+7+lO4/upLcfutN6C2th7Hadlv31mGrdv34isPfBl33X0zPv+5u2mhXomXXp5Hxa2a6WlBmj5z05/H8N8JSZImKH85jbicfupQLKcyUlnZaIqWTjCsqYnaRkuVxw7hvHNOwefuuxXXXHk52/8L6DfoVGynxaupIZtfZ3qf/ezduPGGi6kQdqAyOAkjzj0XD3zxHnz6uovx39/8LDp3asM0q4lhiApjB/z4wW/ZOQoPfPF+dOnUFuvYXyKNEdRUHcHn77sZ99z5aZbvcnzpiw8gJ6/IlGzRjUbPunbthXvvuYN0cBnSKeS3bt+Orl3cHvma0W+iUM7KCCAc0CQWFUGWSescpAywM9vJe6FAEAESrX0lkoggOysDMebfRO1Lx+KagsB+kKKdBP1NKChshdzcPNcn4lHkZKWiTWFb0vR+pqvpo2Qn+lcC82SWbmGe8PWcI1fvncOsBT75oNZtgQ8D7AzGyw2ab0zAC6QMqLuooju3b4PcrCBC/jrk5aagTVFbWl61OEABs3LNHhS0aU1htRe79myjwNERq1ptvsv1OOjzIs06J5CXnYOzzxiMnPQE0gKN6NIukwpAF1r8R8nUjzBeAAP7dEJ2ahMyg1EM7N8erXIzGTeA4uIapIUyUZCXi70H9mLP7o1IDccQTs9E8eESWi2F6N6lMx76xe/wrW8+iIXz5uGCc04n7gWWN1LC+OszU/DIk1PQvnMXhg/TetGe5wnYQjzJehVd36Ox7BJwOoRu/4EjOEZNITWcQoViN/bu3Ym0sIRyGHv2HmYcKjOM0qFdPv0bEUiptoNmCgsKWd4Qwr5a5GUCjRTyWsSoRWlti7Jx2vBetMYiFqd7t/YIpmWgrPyYIaGRFn2St3f3frRqlYtOHZh2oA5ZaXH06dNFo/E4XFqMHt07o0/PHlhLgaEh77U6rrd1LvJatcKW7XtQ16jtfQO0ELdh/8FtLFMMR45UUeAf57USrViX8Wg19u3ZjNLSvWTi+RSydTYK4ja1ITqiA1WJhFuTFsupNv3Qgq1WbbIpDFKRGmpEQa4f7VrnIBFJYdmzcfVV56NTpzwcPLgLS5Ysxrw3FuDoseO0wPTVQMKERudOBchNjSMvNYEOrbPQsV1rFOSEWdYG1h1lS7wBDZEEhdohRKNaSFiPPUxv954tKMjPwrGjjSgvq6MgYoWwrYTv2xi8aXMCa1h3VZl4FWVr6uK0Yf0Qi2qkag+qaxowe84CjDjvQtZ7Fgb374Tbb76UfaIG27duwqwZM6jIriFOWsDJOmD6nTu3RVHbTITZN+pqWZd796Jvr3bISUsgI1CPnl2zcfNNlyMnJ912n+zajsIzQ1v1NtoBTJ2LWqOhupECOgXXXHEhRp47GMfK9mHtmpWYMWMaDpG2tf5DaGshZY/uXUiLFMr+RjREq1BWVoK8nCw7zVCFU1+TIHefXBJNltGOXPZr3QfD0AWIu4S+659x1NfWIpV+Wl0gpUsL8Vw1SbmLkR6OWtm0bkX1rM2i0tLSUHKIiiYVPxdYHehfCWpT175WUtKmpmSEi6GTBD4kqaAFPrnQIvA/NLieIJ6oDuJ2KCPDEKO3oVzXhfUttyxk28hG+3hTINJYZv9KIcNppIAHfv3bp2hB/oTW10/w+S88iLeWbCaj38/k/YzrVuNTXjB+E0IZqbaK3p5plYRCQTufu76xAeHUEEJB7TAft9XQIVpggbAWQAG1zGvrjkP4wgPfx/V3/BC33PUL3P2ZH2P1spUoLy9BRk4qHvzurbj/M5cS5xr85YkJuO8rP8SqLaW2klzr1Pt2a4WvfvlGrFq5lIxS34ankfGGTQDptDP3HTm9yST1yZP+ahprsWpdBb793T/gM/f+gPl+H1/7f7/Bnl2NqCw/bAJO26i7dFgoKg92uAgZq+1KyAS1S5+sLC0s1NCxziSQUz273fbIfJl/NCocdFiN9uN3Ckcg1S2E0z7rrHmEWV86sjQajVAopWHQoB5YtXYHtsoK3rEfp5zSG+G0JlTV1tBy3Ydvf/sh3H3vT1lXD1EZehYH9u5A6ZFDKDt6BHPnrsBnv8B2u/fnuOf+h/Cn347Bzs0bUF1ZYeWQkDDH/NxBRhEqSVqURkGgKR+WV9MSMWo8KT4qdoE4azmOKlryU2csw213fRf3fPYnePqZ51BDoaI1ANFYA+mB9c10AgEddqR6CLKeAgh6aasabeU16ypOhaySSshbK3fia//9S9x57w9x1/0P4jvf+wMO7jqAuqpDDEwiZJoCNZ/7pTOaPhmYsJzSVhv74mjbNh+DThmChUvXYOeeY9ixfRvOPWsYBSJwpMaPb/34CVxy/Xfw9f/+Gd4iraWmprMN9O26lB8gPYPtQzxtUV2cbRehEhpU27MNGUCLE/3BLMTYryLEs0lNTeGq/qZ+lR4O0qpm2KZ0bNpegbs++zPccMsP8avfPoF9+/dBZ1fYdAP7knpkVmaAdx6dsu4irB87jIfv1E7SFn2mhKp8FNwUgqqZ5GeShSxv6ZESVNZTadFXM1RcGyM+5GRnUQFJR1GbPBw5WmnTU1rsx0BotFEB0XiIdBiy1fpB9tVG0qCrZ17+HcB8RSuOZsS7dOf8WuB/FziJ1ALvA6wLvMM5SPaLZl95yFFYWSeikLLpPzImWRf6FE0Lv2gSG38paF2Arp1TKUgexPQZEzBn7nhMnzYWT/3157jllpuVAuNpGFvMB9Dxsnv2HCTD0Ar6kA1x791XjC6d2tA6L0T18Wpa1BVojJHJ0GorLW1AdRUFBOMX0Ho8ZWg/TBj/LOa/MQlz50/CrFkv4I9/+BlGjrrYFuIdPXIcIy84D7/+1Y8x+tkn0aFrDyxaupb5UaiSCV5+ybm4/opz0LYgH8+OewW1dSwlGbX4pASc1QfLbucFUNDpEJh2tMguuqgbnnj8N5gz+0UKyRcwafJTeOThr2HUyAsotCSwWCX6RIx4anW7LXhT3UlosmKVngS+6QEk3dLS47TcjpMpaxV4kM/HEIs0oHVhK+ZL0UdGrXMBWhcWMlw5KqsaGS7MPEIoPljOeqpFAa14LaAaNrSv1eUbC5ejqqYefXp1QxaVqm7dOuPii4bgr0/8GTNnjcPs2ePw8kuP42c//QmGnjIYXfn+6msux+TJfPf6ZNbl85j0/GP4/ne/i969elp7O0Emx0KoKLyPy1pkKWRJ2oI5+ukMe6MfFjDKeMtWbcTr85dR+fsKXnzxGfz5zw/j8ssvR0Z6OoNIoWRNMZzqzEZYKFjcITNawyCqYYvTX9/968z3Th0LcNGoMzB2zBOYPWs8Xp/9PCYS19/95n8wdOgAE9wmxAleK74LuPd67cLoOc70fbjkslFYt3E7XnltGfr264XOHVuzueKkoRfREAti9Og/YeKkCfje9x5E7+790KBVmSyrULaS81/CNTUtgNzcbBwuqUQ0IUUojL17K6ks/gy79xxgFClJzFOCU9FYRglVfe1RdqQa3/vBz3HuiIswddoLeHq0lOj7bQW9DkhyO0fKsmd7iJ7owuyLuVm5qDpew0fVH4tk79ywvL48MR2ANGq6KOlPxw6XlJaitJyqWUoGahtScLC4DAMG9kRuTgBdWPaNG7eyb6ibp6GypgklJUcwZHB30rZrl0g0gerqGhS2YT1JqRJ9vGe9fxSgClYecicD8ZGQt6LzzxP49kboJJ0H74zdAp8caBH47wu8TqLO0uzcG8GJjtIc0piFQMFk3IkJy7Y0C09CkYyFNov2dUFR29a4585bMHH8aCxZOp8WyRZMmfICnn1mLAV1FSNrk55GY3JKMBKJ4plnXsFLU2Zj9aptePgvz5pVNGxgd3TrmIPrrx6FCS/MYFobsWTJBowbO9U2oJHg7dG9Hbp0boOHfvZ9rF65ENu3rcHoMY9j3LPjUUtBd7yiHr/+7TN4ecoM7NuzHRs3L6WgLEOPHj0sb33eFQzEUJDpw43XXo3167dh1uw3mL9K6lWAdzVriowzyDK3a5OLXt07YuKE57B+zQrs2LoJzz07FmPGjKaV7U6G0/So6kcMWeC2PtVUhtK2SrQ6lMUvfnzsWAJ/+tMYzKNQXLJkNQXKWHRsX4T2HdowpOZeUxCiSSXBHPSH8ORT47Fi9Xa8PmcZJr3wKoYMHIouXToTvwQKW+VQyORj8ZK3aO0PsvPYw7QKB/bvg/y8VLz04gRs3LAOG9auwthnnqLCMpMCx8966YqqqiMYz3Jt2LAay5a9iYf/9CcsWriIdRKV/mMCvpmZ22r9FBPUboqG5SNtBAPyo6VHoRUnIdm4CC32yuo6Knfb6HbgjXlzSCPPofjAQdRJkjCc0QTTsW+3WXfxhD5/1GFKokfRmlMMdCLhgH4dkZnqw+QJL2DLho1Yt2o5Hv7zb/HazGk2vC6SdVNQumGtU4mz0RZB8mpto/e6qDweC6GQ6NypiMKrHRYs3owzTj+FFjwVEApwfUp64OABFO/fhF07t2HCuPFYsuAtHK2ggiblRHPgzNdPi1cjEdnZIVx33RWYPmsxpk5/Exs27cNTo19BWkYBFcf2CEixYXjlrCF34WzdTZog8ZGCs3//duzevZH9YzGeHP0EVq3agdpa9gG2hTvBUHTEPBkvPRTGwN79UEalUMojq15VqkLxTwqJRhp0NLLru8EgBXoXTUG0wbPPTsPK1bvxwuTXsHHTdiq159oU06CBXVFWWo7Rz0zEW8u34elnXkL50eM4/dSeCIUlYFNQVx9HxdGjVIyKjE6NWD428NrNCpe8J4g2WD4T+Mnn5Lt3ATW5Oe+5BT5Z4PXWFvgwIOJPGgbqDOpSJuXlJ8uNjDiEBgRiVbxXIDGlEAWSFiDVMGgTrrp8GC4dOQzjxzyHe+74CVYsW4GbbrkIvXp2JlOKIDWljlYwrTgmnoj7ceklF2L5Wyvwve//BhXHivH1r91FCy4bGaEGfOb2q8jcu1Co/xF/+t0f0LtrPtq3zSJPrkOrHD/u+8yVGDKoM377q7/gm//1c+zdvROfu+cydOuQyzQKceMtl2HGrNm4666fYezTY3H1JSMwgozKF48gLAEclyUURT8KkAvO64/HqXDoMzljWCyLbSYuhkyBpTlBWa85qU24+5ZPoVO7dPzsoYfwwH/9GEcqD+N//t+X0LEoh3EiVjeqE6WT0LeM8QbmeYTxJcCYNrlwPF7HvOtMMdAI7Pnnj8SECVPxi4ceRr8+vXDLjaOQlUVRmqhl8OMIpDSgW+fW+Pw9l1OxqMUDX/89Hn3iWQqkfvjSZ69Edhrxi8WRk5mFU4f0Ro8uhTjjtAF2RK2mXYra5OAzd12MVNbrQz/7NX76098jLZzCfC6mVRhC/77tcC/rrqxkO378w5/jj797HP0HdMDlnzoTOblpLIqseNECGbpGaaL1xD/BNqcgYRkCPpaNOMYaa1mvGpBn/f7/9s49SLOjLOM932Vm9pIEsgRjiaS4bEIQJJBCURKFRRIUytsfUHIxkQJJAiTeKEtUFEErCREtFZQqC6wUBVgVlT+kuChScrXKVIEgGEDIxQVEyO5m75mrz+95u8853zff7OxMsrPZ3X6+eeec0/322/f37e5zTh/lb5juT0+/5LHp5396V/rnD/9T+q3XvTl95pOfTC94/uXpvB0z6cB9/6d2pjKaOqKZJ8vK5Pmo0qywgyOKa863LPg0bU/xyuymR33PWemqlzw3Dfr3pje/6ab0B29+azr7YVvTy172U+n887aJByNPo6WsoUlQ/TZag8FE38vv7HOwfcsw/cilO9OFj55OT33SBZp58/R6Sr/4C1emix7/Pel33/iO9Fuv//20fVs/vfiFz1T1ficNllXHGqBg9Bn4seHScLCYrnzuD6ddz3pKes+735de+5o/1Kx/Pl119c+mmZkjSpkGwQrHZ2ZJap9P7KYj6mNz6byH99PvvP6adM//fC299lfelN5167vT0y7Zma54zhPSd751l8JpcLmkPrd0n/KhdiYaytj+4A88Pn3zGxpIHVUHY/WE2z/sr0Aulb7Z5YNqo2yzLMOoken2rUvp6qt+Ns0v7k2vuuZNGgD+a/qZn77CM/ye6vSind+bfu1Xfjnd8aX/TK//zT9NX/vql9MrX/GStHPn96vW5qQvemnf/rl0/+EDftOAIV6MMopB3iyU+MLM858BQAwCwncSqtE/NVG/lndciK4wogN1iSrHkSWw+Dzuq9Nf8LW8i85Wp6dH0IEJK3W7yEYjAysD7sFqjiE3ZlAsUWsGLxls7jI3Py2FgoHQ9UCzaW8bK2XOTUvx7pGeeu3r/iz91K5L0otf9AIpICnM3qL0k5S6DMfSglLFpjK9bb6nzzPHKH7N/fxwneOXOZmb12xqaatnmgMp2Ok+H5CRylEvX5JxWpzntbphWlT8fdGAZVTNrHizoD89qxxhVKaStwZVvgbKQ68fu+iJSW4YA2YtOucjIShRGYU5yZ/35jrykly2muHzs5TSgaPzmhX20/SUFP/UFhkSpbc/9HfUvSMfm/ZoxNMbzqTbP/v5dMOv/nH6q7e/PT35QvYz1yxRcU8PpaxsPOCf1TW3G1ghIV42I+KJiEHaIpn9ngyGlDcPz7Gxzwc+/O/pzq/9V7r6F38unXM2G7yg3FHDyJhR/rlHzgxPhlplRn3wdgH7HCxqEMaNZR7K600dEg8zeNKAcZcfVpLZqGQuStnzmmaPDWZyvbLEvLysWXuacbugTPmcKg+0LSlef4UOMZSnJHOrYsFfKeTZBoYUKmPPXpXe+fikr7xcjovzDI5YjsZIKjzPCyxvMz9lQLvxeIoAjYq3g8+aL/jJCIQbgmlZtNPk5yD84SXlh62bub0z6KldekCiUtDg9qjyxEZIU4p/hsGw6ojbQxEtGxuJVYZ7SgNjx6D2Q5nzPjwzdp5t6LHvAUlZZGjCHg9cq80tcf9eqVEB8RgHbwmwoRQpZBWF1THLEDGQIgJ/qY6ldfv30p59vfSOd/y1jPbz0pOf8H1i0KDVUBtWqAVWsBQXaabMvQTPLn4LA+WZDbI0gFMfnNIAzKt5rDao/bGf/vwCmzcprPqz06uwiwvT6YMfvD1999v3pJdf9UINctgR0ssKgsKeIMSqj47UJ+WgQa1y4w2u3n3bZ9NHP31n+j2+lvfYx8LsEozeCamoHUz/BIogzipOFZy4lnXag6aOsY8u4Y9LSP+UD03QP/zakvlYQpQR42EjGTk+G9uTYhv2NRsbSgHwrq46ey8dTjODvWnr9H1p6/CgZizMfOakZJityU8Kri8lzWxtSjOOYf9A2jJ9SLPPA/anOv3NeynHfu+A3A+nafkPh4fS9OCwFbssiBSmZuoyzluJa7hH7vuUFWZp3HZgf7tDacvggAYBe9PM8n6pO82oUZo9zcKHkrO8R5mTLM22p6XEpqfZlx3jhkWaVvxsHSzNy45nkmhLxaxfg4Rh/0jaJhlnSf42pXHQRwmyR/lc2j675G+Huzx1PT1U3jXjX1I8UUY8ha28qUz4JCorAr2kchjsT7MqrxkZ2inFIx0mP/kPuJbhwaAqJbP9o2m7ZohbZw7JwEkxqx7YjOYrd30j/cMHPpr+9ZP/lh732Ef7K3l9ZsWqUGhGA4ktSufW6SMaKByUm9IjuTZa4pvRYIi3JZwG1d2s8uj3r5WGnsrAQ2oZG+/O5/KZVhvgQywyxKqTocqQ8mVJu694hqqb6YHqXHUyrfKYGR6Q3IOuz1n5zapc+kuHlF+dq10NNFDoKS3kkbx6sKFwPRnQ3pLqaMiS+RHFx07wrDZRjnsljxUnzcKVMkNtOdQ6KGe05VG17h3y8GY0JJBubrX0FcdQdTDd2++4MWAMvnpqq1tV39sH96ZtysdA9c7T+EPyofz0VS89VipU55QS6aHc++ojW2aVZ7Vv6o6y6KvcB1PI4JaG6pCBEG2WwbHKjBUNVkm2Kl9b1c629A+lrRrMblGdTPcOKjcqJw1yevQFpX9KlcMS/zlnLaUnPWln+vwXvqIEqI5UXzbsVB4rMdSHjtSnv+KogdtgcV5yF9yeZwdqh0oT202xSsIALS0fUvven7bM0BfVNpTXgeJkbe++e/emb//vt9OPPuOpaTgdZRVAp+TTEwrlywO4MOrxWl7oLtqJ9RlZN6srO1PFqQzXZ8UGoE7pjXbUB+if3NtjVM8sgmLl4yGcoxN5qAgeNs/payStibKNAA9b+X1xuctHjMx02C5V4ZAvQ8JSNoYhZkuaDcvoDtI+G0buR/IKzbJmT0uegTCTEDdPp7Pc6ZmGxBI5U78cD3NcZpjLzKhQZvJjJsRAhAGJH9qROzPbnmbcPADHXMiWlE6PEeM73ppO8Yzd3nsPp+te/fr07Odcl3581zXp8udcK7omPfNZr0yX77o27frJ69NXvvpdhWRrVVYQJIey4/6y4vEzCjYOyo/SSLzEQ779SVGxkHKUMN8CYBA0JSOHYZhWecRX7ZCJLAYQcuPWgyunEP4YkRjUeAan8mUTlLu+/vX0znfcmi44f0t6xtMvVraUX5Wd95hHEcuIhkKO2ZBlyc2DHAZK3DdXmuDBGPDw2P6Dc+k97/tguuw516fLfuKG9GPPfXX6sStULldcl56pMvrxn7g23XTL29LefRpsUReqJG7VWLwf+lAcSpu/QChHlDB+ToPce7hTr1S74uMpfeo1lqGZlUIqY25SM/snvzK+FKPDIEx5iN0AlVeVvZ81QOZaIL0cOM/t3jNa6lZ+rEpQVxCcPMvB9tAcqWfKiRk800XaKzNzDKmhtEQ90n9ok/QdhdE5xLMJzMxpt34WhjxTELp2G6UNkSaXn8LQLjBYGDC5Op0QZUz7H1D2aheS+fQfenK6e/cdaffuu133Uxpg4+9yQ7rlSB5poz+VdkU7cBvRpYg+6yoUH4MGpxN++rJobn4uffmrX05nP2yQHvO473N9uuyVZt7m8eY3DxjIiLQ2cLWwctJxU7zEzQDFAxycHpT4Kx6KqEv6x4W2iNAt7hCcWHuCZS/pv/F3rktvu/G16ZIL2Vc9FA+K1R0YfhSgZkd0q2UZHe6D84R2fDgD81Vigh8eGVwrTzmh8Ajr/fPP8qyOJWMe2poailNGPu6ZY5RESlrpuP7KmM49GFF160yOoWAcla8dSmGUK9KpdOXgeblXvM6uLkiHl9gjP73htnTwwHyaW+C9ct49RkkjmNsWsby8fVazKs1w2IUtPjHrKC3OeXU6WPb1ifJdyg1/IiYuBisofpl1dLnKYcjscvk+XaBwxQ8raeccGeEg4iA33PN/xFv21La0ME89MEPEkCJLCnBRxkUKsoHk0ltKvZLPguhFSqMMELNs9mvnAys8iL4oz7g3rvohr4qH5M4OFtM521j9kTTx2Chy750CJ17PEnGXaKXTr43JbXGBdHqIpviUFp3L15myu3hc/kofdibeloiVBnj9iWaKhQJwGAwxZQQRLq4K2iv8Ctxq5IKMHEYOYTTkp4j9SpvccmsIHtLET2XBYGTJBgdJ5AMW+gVl4iGO3Uk/bZLM+GHGqDiHY8CL/W7rggsPA8RC2mjVnJMGZOZ6w09EvSxrsEwaeVWOnRl77pc8cEk74JU82p6FOHykVkfSg6GXp9sE5Qiv2xkDRhhJDzKQJ3eF4baZvyXQm0n95aMiVoMcAQFEnTZ3DETZK4QLrqDIAV2ZxFlcqJdwI+eUx4LS+O6/+1z6l8/cnd7wh3+ZHuclfUqThlI6a65L8sqFnLoxVzz0QW1WrAkaePziXHDvic7PP+tzejgzErQsHapLYkLPEiKu6PtSQPa3MBHu9CKUoI6+H4qX/nHv1RqEe/D7FaQoGh2l4ImbjssvFA7xKLy8ucR48dGWJWa3PZSP0mnZUlLEw0wIkkxHbaVE+DLyVzrJADfxOEe+BLAKkZYPpm3b5tI558ync88+kh5x9v06zqWHn304PfJh96cd249Il2q2yhKzs+uIRdbUImTRFHWkIOXelAuXZooj960901O83Cdmqdr+4iP/GM4y0HFGCsHTHMkn8TGAUGzL96fp/lHJYxDF0+pS1pLl5zDM4UQIKEpkIEXlw6m8Iq3cly91K4Mjoz07m9K525fTI88WnbMgmhPN63oqnffwmXTWWTMqD+qUmSwzV6nX/owEMNtVuQLJJR0uHipTMXP/3p/zlbtvGyh+x6wj0nD3zNkrKOJj9qxr3PkKnATYD2J1iVlfkSdm81INzpaItyVitQTheEd63M7sRnycSIbj1SklZHfFITcGeQNdezXL4ckL+aac1S48Y0e20qX0OQ7nk2tug7ByoWsR6fY9ePnxrQaXAeknPPGTR+SL2KCJZoYf+XA/NYX5D3k8cwAbbUoDZw+4KCvCkQdHneOhvHGnnDhRur3iIB4uqUPSTL7lxvbSyPCgXu2NWLkF4ucu1M4w7ch0OTZQ+a8gpUc8XXL8hB0hB8/UddPRGenAQkopcE0sgv5Zl0VT7yDzUu256itOLbieK9YJdZxQehhxmVgZyjC4UjBSuTYYvPaDEqOE6UD0Hhsf+OhYKIXYKMVautN9MHpSG/IPpWLD4iVaDBQhUWY4Wqr9UTJ0QrokRjl2dBO3ZNB3cS4K2AaemQjylED0gNPjHzyOFvHBH9pF15qpWHbICkZlkHgUMtQZkTEPkCLP4cgteWKHtB4DBuTa4OJPWsQtQ814w+mRq/PlwhPlxDCnRTmS38gLS+4stwJds6ztpWGR0irNHXKyPxQp5IjxFrlOqDcMkHgUpw2KclOMn9MAKZ0e/FCHToP8PSsPvzC8IZ1bMDw5znMHfnjPoGyYfeN3WKk8ipBIoKNWmWEB7EC+c15ETk9kJNxF3P6JL/mRTuIWqJym3FW2ruuoc9pP+MkNGSovPl1LqqzqlQ/ioS5dv5aYyeUdVFCugwhDmkUYdf36lKNlhjwbY1ahFAdp826DSlvkkfRFXM4PaSXNJc8+IR3Iot1SBnFryoNT8fJIXtyyIh2l3Ep8IoUl+1SXYpE7cUa8DNYWF9R32QVIf+4P3GIj/SIe9Ix8iL8JJhcPRLgNFysBHtS7jIlffsqfdUUpJ7nSeGh3HlcwOCG/uV6gJstrINoi+Q8dFDR+3brRbpUEUwOFd37lSMnZScei3xoEW8UpDlpYxXqROwmHGOnqpw6LakMhsIRrxZtVadPL6NvMCCyE/9HBV1ZD14+wUghWgsGHKrfcokjk3jWgGKxQuZyHkipHK3WOTRyc6ug4wniUvJi4hs/yIywhR4AfCotk6V+kjxginTHAiRhLWXVhN9SNNVHxj/gsIcQYqN4SH/IdB/w5T+bNYbnGveQXI4N7GAzOIyizvUgS/woRN564F3k5/yb8CpXSjjJzcAx/0wZiNuvbMlyjeG2YSXuWLTncN/b99NJuzFNIafRBvAyazAJPKH07ELUVtS45N+k6U+TFXk24CGuHznGdRCfQsZnxg3x03PDYizzGEXe2mPXnkZUnl5zLlfamHyINMk25hezcKoNHrpG3CGcGwIF88Yccz/jDnWJw6E55lH7EyolvseEX0nMY4lJrwMmBlFelK8oOR4RLquTEoA/wP85IBGEhON2T4S0J8EE+hYlVnxUU8a5NIMdrcN69LjxjkLMHRBz5KcrRcBWnA2h/FccNegMdxt2fK/1Xx5WyZgYQMwIpLGaa7qMtP3BHkkeEDoQcZiBFJmogjA0ho4qymwKZ7Be/4h9GsCi9UDqFAvAV4x0ugeDyPvh0eKsj8SkiQnSljQTrwkqKk5JXKPLaUDZiocizPF1EfrgqP1CMOikIIs+hKslDUPgXd45hDBq4PGI2WYx9t5xw05zahHwe6Yv4APJKnkN2IwNSwoNj9FfCNXycO5+8M77o/DKzbmaAPkb9A8/YxA/Fg2rxEFvUtXh4DsC8So14gyjbKN/wo/ERV6GoA+RYrIlzYo2YI3ZkEGfI69Zf+K1OwYNhjkGN00tE9i/yOeKWSfFH/wD5HPbixAlyIdwKv0c+ixJPXwrZyPWP/PLgH+zycFmKL5aoeSCOwVZ4+jkV8Xigwoqc4uEWS5QJTPIzK/mTXO7LK3/hEwijD5U4OhShQxbxlnOoPGdhPpBLqCkzqJRnW65d8uRhIqklelALMRjiOqhFTgfxqk+wjwIGH8l2dtsdRTd0xamJlbVacQyoybvT5M7CqW0EnUxdhZkIHVteGsDrXCexxifWbF46CiKWf49FoRSa6xLUSimoUQB4SikV2Z6BZCoKvKWMjjuv+/mp/xG+lrrxoSC9Mk8e5RrJIv4cJ3ItG6WMQWIAMZAf77szuFhS+I4iI5wNE8qUeEq+5aVInDWdByJ/kSbCE1ccGxkykhxLmicS+XU8WYbO2gFELnOMiuMLHqeJtOT67KbF8ftY3DO5HOCnDKR8bWHkZF7kYpzwJ58MVzTLFJ9vh7iAIf7nNPHEfY6nGGMbrCyP2wXBF2mMNEd+w0B2Cb+ubIWXvDAacl+Nitx8HhkapyiPNo3ttfsFLIUHUtrCn/oTj/MkuE6gVi5U0l+uGzfXTYBz2nXbtnO6IQU1L+6iti4YFMST8tH2wj+uS7jRsF0KA94l5EKkVf8ptDgTFffwKwjjzHGjpLRA5HMFZR6OujZk6P2Whxx55oBnD3ynAabsz8VoKitORdCTKo4DbuxNDwDRUW3oRCgblvNYOud+mZiDOmFQ6r7OXqYGXccRD6F1L78W5TzSEWnSfzk3lH0aOE2FCrpuq5NnRRzVdDyEcX4kXdTapygXx4k3LvpnFahjyOiipDAkx3lRmK2fr4sxaAgjIVNB/J1f8HdBKrpE08fAFmKQVko3/IIKkNcNX/zi3IqcfHHELV9HPIU0OnSFSJaNgwwMg0TaiweGYmmOIo4m5Qjip3BeBdB5vAJXCLbM5/NRmujYpXyP1+lyenIaJpDZFIS0NcFXoTZNLZH2chwh5w3iPHjkHMQ/X0+iTqJWpUh7Qx2/Eg+H9jrcgsr18VCbDuQE5TwRtbwiCVxHfvUvU2EoZMYNkv41sstxlCKf0lwi92euCWz9Rdp0EDjEUKHiVAdaqGINuBtIeTcKLLvRIYobXYZ9wxtF5WVaOlFR8OLQTNfhuoS3jo1BMNG5jkHuoC0xll9B4hmhjl+kKZOuC3VljhLGnbSLnIdY+g53/FEQ5FsHoYlf/jZGaV5zmQUdUTywEjdlE8Q53xaA8A5lSDkjN2ZILKcixx8RkpHEF/9FKbPgz/GWNDv+lrr5iTIeKF4+vpLvITtd+ue0yX9JxNHpwy3Iecrkd8ntTtjwJ96Ih7KhvHiYi9WNHNbLpkq7Bys5aA7uAUNOhutDvMs9XnXsJx5G5FaRbwdo+uXl2uYaGirIZBrlU5p9T7tDHpyETDmIOE6mZXiQM0WeOOZ4iH+MfGvLz4WMEzLG0iDy2wKZp8exk24eLoTafECT5bSU09pQSVvXLeLxRkgijhFvkT0uYy1SGSkc5N0HqTcT9UUex9IYj/KLX3VgN8pYxwllP0qKq5yrrEZJ4U3Uq1j8LygeKAx/lvvZS4PyjrbqhucG2ZxXnFao7+EfBygg+knM/oohwkHKW6NhNnP5lw//Y/r9374+/flbfiM96cJzpTyakKZSyD6GdeFEBxgLFRT/40M3ZDkflzAuvaAb82r8XIWhDARfxBCulIeu5MRypA1ePo9fGPESJsK18szjcgjECkDh4382kByzIpK6apVSFHYgywn5HZn5GG4d/px2gLxyn7OcF85yxJAXkEoy6nTkNEQ4FLGv8hHApzDkTYMUuOPhMGREftG/JU8e8jCggFN5b+JHRr6KMlkdxbeEPRZKvGuhK7OU1XqRxzpe7VkNhaeLbgo7zeUhhW4aSWKTzOwxKd04MTB229C525B9VqKUS/C2baptqcBSMgn4U1dFbmal5cdAvpcWp2bSe277VProp+5Ib/yjt6XHPGZnsCGiOak41VEN/nHABZQ7CQc6WiyjoqR5bnwpffRDH0i/+euvSc+/4ofTw7apKymQeVlydsiQ03Z4rui0ODSOGeaM01UwEoJen9mLtEmhGzVSmDKa006gjrcwFsAohpJAIisdZr1FCIaN81BFlFnDaxqXWc6Lu+fBPm3D6tJsIZP/9nM84d/VqF3j3A4KImRwd8IJoRT5K7I6fvmoqVg+CSl274h2mtpgHcgRf3jx57K54D/Hpaz4w8UPJjoPhUdEuPxr0pnR1G9G17iM865EZjbb6rzdGEhDQSnR1TGatpWpn4RumJZ//NhilH9NREFnHAf/ccg3R/bi9l7BauVTXN1XnB7aD+f4rQwzaSAEHLKw+6RQ/I9BgdIk2Qw0Y40sasErYFPT6St37kuH5mbSG9/81vT4x12odKhHKxDJikkOmBR7xamCavDXAToHfZEOw0KyTZIMPkvCd/7319Kt7/qbdOjAXnHyehVz0ByKlQCdocxDgQc8i3NvOkYnajpvC7hjRlzCtTxd1y6ic6/k91l2HlUmrSSfBXsL7qU34Lzln4wuP2j529R0QWKKmokZcbx6CNqw7RkYlcQSeuAYXN18dIz5aP4CltLl6SBquKB7rlAOg1KNh7RoP97oKKMs7x/cvy99/BOfSBc8+oL0xCde7A1a3GS6bUZtybcgnJrRtIzUcT4A2u3KCmwRcRBA4X1RaBTBUUAKIv6IdXX5LUp6J8vvAt+o9YJOeWUaxWjqRutgMryk7TBrpyfQjWOyfHM0olr+uLG0EqNSWv7uRKELc0zwiAdQkdbmhX7tdqI65TZFeUaDd//Zb8APJfZ4CFTnU/00n4Zp50UXp1948YvTIx6+IxKHfspyQ6pT4LOKUw/V4K8DNHn0YTH4Hv6q8aMklxaX0tHDfORFHdU730mxc0+OLicFTbgw+IX0Xz03zsY7UMuzGh6sLldiGYkN4XJo44h8lrPR9JVzfIpC13nxtht+MnY2oi3/yAw8S44j7i5tu3AeRqXwNMI7KHJBOcJfwhQU04R7N8zagJM0kJISrkjrYjTGnAYp1xhYRZwYS1aH2BnQOlWKePfue9L1N9yQrrziivSKV74iDbi/S1AFwTg5XpQ0YiwnzgoiXaNugYhzbZSwa/M6FU44iJjXxrHld12d4hG29iLKMUuTcxt3NxUjgSciDH7B2vyBY+ehi276J7UTsNL1+OV3c+utqMfCxEBSeaTAaGt+9kUDA+ktbxstvcSuhmzM49Cqz/6gn7ZunVGY2MvDkUAaoIb0bqwVpxqqwV8HbILoQ+oYnp3LLWY5Omf07L4QnWgKo++ilWr0PV3Cct1SUVwtcOjyrIZJne5Y/GA8zCh/ufLRyWjN63jYuIKzG4py6CrQjDy7DWNfKBRMPHQ0DtwJU2SDOG9T0Y27YJJbGyKAP25d9xJunBe08uIswhbXcQVb5ETJdeXpXOXpZxNQzLq0sRE73xoY8ilbFcudd92Zrrv22vS85z0vvfo113nAGDaplJck02g8xRuPG7RxOg3tpTCJv0W0zZOP9aZiJItnGGh/o7P98dKQJwNFtxkmKawwMcNXSBlwrxT1+JjXcmIr6GgC/OPtERl89hsG8ud3Zpf26YFcoxXHA6tylLbafaOA8y/3Fit1Vmt54IqnX5OMfdlIhe12gzh38A7p37pIAhhImCb5j9Ox+X2PT8TqBQvGsTMfeYDwa9lXphfZ3Wv8UTYi72kuBYLBtzv+yIZKvDhjCCEpovwBm5ZwK+FXI/0bIdJU8jwpfZPCrcbflg+XLOzEvc1SRt28tGGCcjoUAD8bcR2LN8beelnnbNPKvvF8XIUtYft5m2A+tCLfSLAjRmapyy6VPNEOQ0nHjyhYIVidRvO8mvwudfmhSTxdOj7+ts2NlmnrPkpt2HH5a+XhRPNDJ4K/kw7alPfnVf3qfKmhnkh6pzfwWyH4hc2P9uo3Y3gyHz79kMHchHYiD5P39wd2j0F6xakP1XzFRlAUER1BZ+5IPL7n70i7c7Rk20eYhvip840Qv66fFNqq1OWH1uKHHgg/P8KMU5ef67X4ofXyd2kt/vH08OvyF/dxOhZ/l7phVuPvukO0D+7fyqyqHbQUpjY2bIk20ued/IU5SfELfKMyaENrUcNfqPx0Pom/S+NhJ/F0abP51wpzwvlzOR4vP3Qi+Dv+ZXOm2CBo1G9FuMZ/Uj5oo3EeYGChVqeZi1+D9WZIEtDhqDg1UQ3+A0C3+XtGrB8FikIvfqUjtR2Oczqo+Ecod1rTJP9xqvzHpgfK/0DiKG5d0j8bf52LvIaPgWf25HNmUdwayg9f4acwvu+6BJ8GCAwydbYqTcxDpkn8XWrCZZrE06UR/vXK3wA/x0l8hVbwrxFHV26hSXyF1ssPnQj+jn/H1TTCM+KTyfILcZ3J/m3bRJK/OqlzqLhWnPqoBn+dcNPPHYXesL5uADdFPilU8VvNfxyV/9h4oPwPRhzFrxBNJhRpmHdMu+byMuSxU6DAqhGzKyhccPT/9no1rJWeY2G9YU8H/s2I48Hmb3mivRSjvB6sFg+SCsnHA4OBaCjSrH8DMVU8tECNV6wTdJFC64I6kKniNMfarYP5lOdU2bh7AECQQT/ux+q8+DefKa36tmIEtIsOnQD9UqTXxnd6oBr8TUPpOm0XqjhdsXYdx/MfUqMs2/uXZ/26XhRx5D2QVs3WNlMxATbwk+jBAi2wGvvTBdXgV1ScBPiVTRl1qCcFzf15u+u6EJ0zvs8ujgdTh1dUVJyRqAa/ouIkAAPevnLGnCyMvu26jH2x734/HsKlOFZUVFRsANXgV1ScBGDas3nPV2HPiytUdmpked8zfr+DLaeKioqKDaAa/IqKzURr2ZsZPjN4DPrc3FxaXFxI8/MLXvLnS4xsgNKX4e/nbXYrKioqNopq8CsqTgLYUneJTXeyFf/4Jz6ebrzxxvSlL34p/f3f/126+eab0z133+NvNPDoHsbfy/sVFRUVG0TdS7+iYpOBofcSvWbuhw8fTjfdeFO69dZb065du9Jll12WvvPd76TbbrstDfqDdPNbbk6XX3a5jX4ZHFRUGKwS6VcHghXHi2rwKyo2ERhu9DNKemlpMX3kIx9Jt7zllvT8Fzw/XX3V1encHeemhYWF9M1vfjO94Q1v8PlNN92UHvWo79+QuS+v/x0L1WBUVJwZqEv6FRWbDGwws/s9e/akD33wQ+lZz35WevkvvTzteMQOfwN/enomXXDBBemX5LZv7770uc9+Ls3P893y9cMDjDV+FRUVZwaqwa+o2ESwBMuPh/GOHD6SvvW/30pPvPiJacd5O/IDfGLyjHsqXXrp0zSzf1S648t3pKNHjzr8umF5a1BFRcUZgWrwKypOBmRomc0Ph3wOlw/kaK7tZf4lbL1XAebn5m3ot8xuMW9FRUXFA0E1+BUVJwE8uDe7ZTadf/756fbbb0/f2P0NuzPLL0/kf/ozn0m7d+9OFz3hojQ9PW3/ioqKio2iGvyKipMA7uHv2LEjvehFL0wf+9jH0i233JL23LsnZvsy9l/4whfSn/zJW9POC3emSy+9NA0HwxyyoqKiYmOoT+lXVGwymN33evG50SNHjqT3vve96X3v+1vN4ofpwp0Xpv0HDqTP/8d/pEueekm69ppr01MuucRL/M09/oqKiooNoBr8iopNhg23/ryTHjvoCV/8zy+m97///emd73xnuvjii9NLX/LS9Oxdz07nnXdebKmrv/jgjtkrKioq1o1q8CsqNhG8Blc20PE5xl/A+N99193pVde8Kl155ZXphutvSEPN+DHw7atzzPBrd62oqNgY6j38iopNRJndd1FsOPf1GQz0We4vPNh4jckXFxersa+oqHhAqAa/omIzgc0et9sy5Bj5qZ7MvQYEzPb9ep6wlBfgGAx4pj82WKioqKg4XlSDX1FxksBs3tvallm/TrtjAfxs35nl41GooqKiYgOoBr+iYhNhA5+P5d68z0U8vd+16OEWfhh+Zv8lTEVFRcV6UQ1+RcVmwlP2MN7+6dhjhj8B5sl8OmnCVlRUVGwE1eBXVGwibLzH0Bj1cp7J18WNC03uC19FRUXFelENfkXFycSkFfpq0ysqKk4AqsGvqKioqKg4A1ANfkVFRUVFxRmAavArKioqKirOAFSDX1HxUEC9b19RUXGCUQ1+RcVJRvNufX3FvqKi4oQhpf8HkKudZDPc8CwAAAAASUVORK5CYII=;" vertex="1" parent="1">
          <mxGeometry x="430" y="280" width="508" height="268" as="geometry" />
        </mxCell>
      </root>
    </mxGraphModel>
  </diagram>
</mxfile>
